M48
; DRILL file {KiCad 7.0.8} date Thu Mar 28 15:32:12 2024
; FORMAT={-:-/ absolute / inch / decimal}
; #@! TF.CreationDate,2024-03-28T15:32:12+01:00
; #@! TF.GenerationSoftware,Kicad,Pcbnew,7.0.8
; #@! TF.FileFunction,Plated,1,2,PTH
FMAT,2
INCH
; #@! TA.AperFunction,Plated,PTH,ViaDrill
T1C0.0157
; #@! TA.AperFunction,Plated,PTH,ComponentDrill
T2C0.0300
; #@! TA.AperFunction,Plated,PTH,ComponentDrill
T3C0.0315
; #@! TA.AperFunction,Plated,PTH,ComponentDrill
T4C0.0374
; #@! TA.AperFunction,Plated,PTH,ComponentDrill
T5C0.0394
%
G90
G05
T1
X5.73Y-3.85
X5.745Y-2.8325
X5.985Y-3.4725
X6.03Y-3.85
X6.1875Y-3.4475
X6.1875Y-3.4975
X6.2Y-3.85
X6.27Y-2.2875
X6.4638Y-3.5562
X6.4875Y-3.58
X6.4975Y-3.85
X6.5925Y-2.655
X6.595Y-3.26
X6.595Y-3.415
X6.6693Y-3.8493
X6.7175Y-3.26
X6.7175Y-3.4175
X6.975Y-3.85
X7.1393Y-3.8493
X7.315Y-2.5125
X7.315Y-2.6
X7.46Y-3.8525
X7.5419Y-3.6049
X7.685Y-3.5315
X7.6925Y-2.225
X7.85Y-2.6825
X7.85Y-3.18
X7.85Y-3.665
X7.945Y-2.44
X7.945Y-2.9
X7.945Y-3.355
X7.945Y-3.85
X7.9646Y-3.7795
X8.42Y-2.9
X8.42Y-3.85
X8.43Y-2.44
X8.45Y-3.355
X8.485Y-2.305
X8.485Y-2.765
X8.485Y-3.23
X8.485Y-3.695
X8.525Y-2.305
X8.525Y-2.765
X8.525Y-3.23
X8.525Y-3.695
X8.585Y-2.305
X8.585Y-2.765
X8.585Y-3.23
X8.585Y-3.695
X8.6278Y-2.305
X8.6278Y-2.765
X8.6278Y-3.23
X8.6278Y-3.695
X8.79Y-3.5075
X8.9142Y-2.1908
X8.915Y-2.69
X8.915Y-3.1
T2
X6.435Y-2.3425
X6.535Y-2.3425
X6.635Y-2.3425
X6.735Y-2.3425
T3
X5.745Y-2.505
X5.745Y-3.105
X5.845Y-2.505
X5.845Y-3.105
X5.945Y-2.505
X5.945Y-3.105
X6.045Y-2.505
X6.045Y-3.105
X6.145Y-2.505
X6.145Y-3.105
X6.245Y-2.505
X6.245Y-3.105
X6.345Y-2.505
X6.345Y-3.105
X6.445Y-2.505
X6.445Y-3.105
X6.545Y-2.505
X6.545Y-3.105
X6.645Y-2.505
X6.645Y-3.105
X6.745Y-2.505
X6.745Y-3.105
X6.845Y-2.505
X6.845Y-3.105
X6.945Y-2.505
X6.945Y-3.105
X7.045Y-2.505
X7.045Y-3.105
X7.145Y-2.505
X7.145Y-3.105
X7.8475Y-2.2472
X7.8475Y-2.385
T4
X7.4425Y-2.81
X7.475Y-2.2875
X7.475Y-2.3859
X7.475Y-2.4844
X7.475Y-2.5828
X7.5409Y-2.81
X7.6394Y-2.81
X9.14Y-2.67
X9.14Y-2.7684
X9.14Y-2.8669
X9.14Y-2.9653
X9.14Y-3.0637
X9.14Y-3.1621
X9.14Y-3.2606
X9.14Y-3.359
T5
X7.0394Y-3.3386
X7.0394Y-3.437
X7.378Y-3.3701
X7.4764Y-3.3701
X7.5118Y-3.0512
X7.5416Y-3.895
X7.6102Y-3.0512
X7.64Y-3.895
T0
M30
