G04 #@! TF.GenerationSoftware,KiCad,Pcbnew,7.0.8*
G04 #@! TF.CreationDate,2024-03-28T15:32:18+01:00*
G04 #@! TF.ProjectId,Prozessorplatine,50726f7a-6573-4736-9f72-706c6174696e,rev?*
G04 #@! TF.SameCoordinates,Original*
G04 #@! TF.FileFunction,Paste,Top*
G04 #@! TF.FilePolarity,Positive*
%FSLAX46Y46*%
G04 Gerber Fmt 4.6, Leading zero omitted, Abs format (unit mm)*
G04 Created by KiCad (PCBNEW 7.0.8) date 2024-03-28 15:32:18*
%MOMM*%
%LPD*%
G01*
G04 APERTURE LIST*
G04 Aperture macros list*
%AMRoundRect*
0 Rectangle with rounded corners*
0 $1 Rounding radius*
0 $2 $3 $4 $5 $6 $7 $8 $9 X,Y pos of 4 corners*
0 Add a 4 corners polygon primitive as box body*
4,1,4,$2,$3,$4,$5,$6,$7,$8,$9,$2,$3,0*
0 Add four circle primitives for the rounded corners*
1,1,$1+$1,$2,$3*
1,1,$1+$1,$4,$5*
1,1,$1+$1,$6,$7*
1,1,$1+$1,$8,$9*
0 Add four rect primitives between the rounded corners*
20,1,$1+$1,$2,$3,$4,$5,0*
20,1,$1+$1,$4,$5,$6,$7,0*
20,1,$1+$1,$6,$7,$8,$9,0*
20,1,$1+$1,$8,$9,$2,$3,0*%
%AMOutline4P*
0 Free polygon, 4 corners , with rotation*
0 The origin of the aperture is its center*
0 number of corners: always 4*
0 $1 to $8 corner X, Y*
0 $9 Rotation angle, in degrees counterclockwise*
0 create outline with 4 corners*
4,1,4,$1,$2,$3,$4,$5,$6,$7,$8,$1,$2,$9*%
G04 Aperture macros list end*
%ADD10RoundRect,0.250000X0.625000X-0.375000X0.625000X0.375000X-0.625000X0.375000X-0.625000X-0.375000X0*%
%ADD11RoundRect,0.250000X-0.625000X0.375000X-0.625000X-0.375000X0.625000X-0.375000X0.625000X0.375000X0*%
%ADD12RoundRect,0.250000X0.375000X0.625000X-0.375000X0.625000X-0.375000X-0.625000X0.375000X-0.625000X0*%
%ADD13RoundRect,0.250000X-0.375000X-0.625000X0.375000X-0.625000X0.375000X0.625000X-0.375000X0.625000X0*%
%ADD14R,1.800000X2.500000*%
%ADD15R,4.200000X1.500000*%
%ADD16RoundRect,0.250000X1.425000X-0.425000X1.425000X0.425000X-1.425000X0.425000X-1.425000X-0.425000X0*%
%ADD17R,2.750000X3.050000*%
%ADD18R,1.200000X2.200000*%
%ADD19R,1.500000X0.700000*%
%ADD20R,1.500000X1.000000*%
%ADD21Outline4P,-1.000000X-0.375000X1.000000X-0.375000X0.500000X0.375000X-0.500000X0.375000X90.000000*%
%ADD22R,0.800000X2.000000*%
%ADD23Outline4P,-1.000000X-0.375000X1.000000X-0.375000X0.500000X0.375000X-0.500000X0.375000X270.000000*%
%ADD24RoundRect,0.150000X-0.825000X-0.150000X0.825000X-0.150000X0.825000X0.150000X-0.825000X0.150000X0*%
%ADD25R,0.900000X0.800000*%
G04 APERTURE END LIST*
D10*
X163258500Y-87633000D03*
X163258500Y-84833000D03*
D11*
X174371000Y-84833000D03*
X174371000Y-87633000D03*
D12*
X187198000Y-97853500D03*
X184398000Y-97853500D03*
D11*
X217297000Y-97279000D03*
X217297000Y-100079000D03*
D13*
X172590000Y-97790000D03*
X175390000Y-97790000D03*
D14*
X204851000Y-60928000D03*
X204851000Y-56928000D03*
X204851000Y-72358000D03*
X204851000Y-68358000D03*
X204851000Y-84169000D03*
X204851000Y-80169000D03*
X204851000Y-89313000D03*
X204851000Y-93313000D03*
D15*
X210693000Y-60601000D03*
X210693000Y-57001000D03*
X210693000Y-72031000D03*
X210693000Y-68431000D03*
X210693000Y-83842000D03*
X210693000Y-80242000D03*
X210693000Y-95653000D03*
X210693000Y-92053000D03*
D16*
X223266000Y-61447000D03*
X223266000Y-55647000D03*
X223266000Y-73131000D03*
X223266000Y-67331000D03*
D10*
X199390000Y-73536000D03*
X199390000Y-70736000D03*
X199390000Y-85220000D03*
X199390000Y-82420000D03*
X199390000Y-97666000D03*
X199390000Y-94866000D03*
D17*
X167258000Y-86506500D03*
X170308000Y-86506500D03*
X167258000Y-83156500D03*
X170308000Y-83156500D03*
D18*
X166503000Y-91131500D03*
X171063000Y-91131500D03*
D19*
X215447000Y-57047000D03*
D20*
X215447000Y-58547000D03*
D21*
X216522000Y-58547000D03*
D22*
X217297000Y-58547000D03*
D23*
X218072000Y-58547000D03*
D20*
X219147000Y-58547000D03*
D19*
X215447000Y-60047000D03*
X219147000Y-60047000D03*
X219147000Y-57047000D03*
X215447000Y-68731000D03*
D20*
X215447000Y-70231000D03*
D21*
X216522000Y-70231000D03*
D22*
X217297000Y-70231000D03*
D23*
X218072000Y-70231000D03*
D20*
X219147000Y-70231000D03*
D19*
X215447000Y-71731000D03*
X219147000Y-71731000D03*
X219147000Y-68731000D03*
X215447000Y-80542000D03*
D20*
X215447000Y-82042000D03*
D21*
X216522000Y-82042000D03*
D22*
X217297000Y-82042000D03*
D23*
X218072000Y-82042000D03*
D20*
X219147000Y-82042000D03*
D19*
X215447000Y-83542000D03*
X219147000Y-83542000D03*
X219147000Y-80542000D03*
D24*
X150623500Y-86296500D03*
X150623500Y-87566500D03*
X150623500Y-88836500D03*
X150623500Y-90106500D03*
X155573500Y-90106500D03*
X155573500Y-88836500D03*
X155573500Y-87566500D03*
X155573500Y-86296500D03*
D16*
X223266000Y-96753000D03*
X223266000Y-90953000D03*
D19*
X215447000Y-92353000D03*
D20*
X215447000Y-93853000D03*
D21*
X216522000Y-93853000D03*
D22*
X217297000Y-93853000D03*
D23*
X218072000Y-93853000D03*
D20*
X219147000Y-93853000D03*
D19*
X215447000Y-95353000D03*
X219147000Y-95353000D03*
X219147000Y-92353000D03*
D16*
X223266000Y-85069000D03*
X223266000Y-79269000D03*
D11*
X217297000Y-85468000D03*
X217297000Y-88268000D03*
X217297000Y-73657000D03*
X217297000Y-76457000D03*
X217297000Y-61973000D03*
X217297000Y-64773000D03*
D13*
X152841500Y-84010500D03*
X155641500Y-84010500D03*
D10*
X179070000Y-94364000D03*
X179070000Y-91564000D03*
D11*
X183642000Y-91564000D03*
X183642000Y-94364000D03*
X185928000Y-91564000D03*
X185928000Y-94364000D03*
D10*
X181356000Y-94364000D03*
X181356000Y-91564000D03*
D13*
X160652000Y-97790000D03*
X163452000Y-97790000D03*
X148584000Y-97790000D03*
X151384000Y-97790000D03*
D11*
X201803000Y-65275000D03*
X201803000Y-68075000D03*
D25*
X155972000Y-57152500D03*
X155972000Y-59052500D03*
X157972000Y-58102500D03*
D11*
X152019000Y-56829500D03*
X152019000Y-59629500D03*
M02*
