G04 #@! TF.GenerationSoftware,KiCad,Pcbnew,7.0.8*
G04 #@! TF.CreationDate,2024-03-28T15:32:18+01:00*
G04 #@! TF.ProjectId,Prozessorplatine,50726f7a-6573-4736-9f72-706c6174696e,rev?*
G04 #@! TF.SameCoordinates,Original*
G04 #@! TF.FileFunction,Copper,L1,Top*
G04 #@! TF.FilePolarity,Positive*
%FSLAX46Y46*%
G04 Gerber Fmt 4.6, Leading zero omitted, Abs format (unit mm)*
G04 Created by KiCad (PCBNEW 7.0.8) date 2024-03-28 15:32:18*
%MOMM*%
%LPD*%
G01*
G04 APERTURE LIST*
G04 Aperture macros list*
%AMRoundRect*
0 Rectangle with rounded corners*
0 $1 Rounding radius*
0 $2 $3 $4 $5 $6 $7 $8 $9 X,Y pos of 4 corners*
0 Add a 4 corners polygon primitive as box body*
4,1,4,$2,$3,$4,$5,$6,$7,$8,$9,$2,$3,0*
0 Add four circle primitives for the rounded corners*
1,1,$1+$1,$2,$3*
1,1,$1+$1,$4,$5*
1,1,$1+$1,$6,$7*
1,1,$1+$1,$8,$9*
0 Add four rect primitives between the rounded corners*
20,1,$1+$1,$2,$3,$4,$5,0*
20,1,$1+$1,$4,$5,$6,$7,0*
20,1,$1+$1,$6,$7,$8,$9,0*
20,1,$1+$1,$8,$9,$2,$3,0*%
%AMOutline4P*
0 Free polygon, 4 corners , with rotation*
0 The origin of the aperture is its center*
0 number of corners: always 4*
0 $1 to $8 corner X, Y*
0 $9 Rotation angle, in degrees counterclockwise*
0 create outline with 4 corners*
4,1,4,$1,$2,$3,$4,$5,$6,$7,$8,$1,$2,$9*%
G04 Aperture macros list end*
G04 #@! TA.AperFunction,SMDPad,CuDef*
%ADD10RoundRect,0.250000X0.625000X-0.375000X0.625000X0.375000X-0.625000X0.375000X-0.625000X-0.375000X0*%
G04 #@! TD*
G04 #@! TA.AperFunction,SMDPad,CuDef*
%ADD11RoundRect,0.250000X-0.625000X0.375000X-0.625000X-0.375000X0.625000X-0.375000X0.625000X0.375000X0*%
G04 #@! TD*
G04 #@! TA.AperFunction,SMDPad,CuDef*
%ADD12RoundRect,0.250000X0.375000X0.625000X-0.375000X0.625000X-0.375000X-0.625000X0.375000X-0.625000X0*%
G04 #@! TD*
G04 #@! TA.AperFunction,SMDPad,CuDef*
%ADD13RoundRect,0.250000X-0.375000X-0.625000X0.375000X-0.625000X0.375000X0.625000X-0.375000X0.625000X0*%
G04 #@! TD*
G04 #@! TA.AperFunction,SMDPad,CuDef*
%ADD14R,1.800000X2.500000*%
G04 #@! TD*
G04 #@! TA.AperFunction,ComponentPad*
%ADD15RoundRect,0.250000X-0.725000X0.600000X-0.725000X-0.600000X0.725000X-0.600000X0.725000X0.600000X0*%
G04 #@! TD*
G04 #@! TA.AperFunction,ComponentPad*
%ADD16O,1.950000X1.700000*%
G04 #@! TD*
G04 #@! TA.AperFunction,ComponentPad*
%ADD17RoundRect,0.250000X-0.600000X-0.725000X0.600000X-0.725000X0.600000X0.725000X-0.600000X0.725000X0*%
G04 #@! TD*
G04 #@! TA.AperFunction,ComponentPad*
%ADD18O,1.700000X1.950000*%
G04 #@! TD*
G04 #@! TA.AperFunction,SMDPad,CuDef*
%ADD19R,4.200000X1.500000*%
G04 #@! TD*
G04 #@! TA.AperFunction,SMDPad,CuDef*
%ADD20RoundRect,0.250000X1.425000X-0.425000X1.425000X0.425000X-1.425000X0.425000X-1.425000X-0.425000X0*%
G04 #@! TD*
G04 #@! TA.AperFunction,ComponentPad*
%ADD21R,1.600000X1.600000*%
G04 #@! TD*
G04 #@! TA.AperFunction,ComponentPad*
%ADD22O,1.600000X1.600000*%
G04 #@! TD*
G04 #@! TA.AperFunction,SMDPad,CuDef*
%ADD23R,1.200000X2.200000*%
G04 #@! TD*
G04 #@! TA.AperFunction,SMDPad,CuDef*
%ADD24R,5.800000X6.400000*%
G04 #@! TD*
G04 #@! TA.AperFunction,SMDPad,CuDef*
%ADD25R,1.500000X0.700000*%
G04 #@! TD*
G04 #@! TA.AperFunction,SMDPad,CuDef*
%ADD26R,1.500000X1.000000*%
G04 #@! TD*
G04 #@! TA.AperFunction,SMDPad,CuDef*
%ADD27Outline4P,-1.000000X-0.375000X1.000000X-0.375000X0.500000X0.375000X-0.500000X0.375000X90.000000*%
G04 #@! TD*
G04 #@! TA.AperFunction,SMDPad,CuDef*
%ADD28R,0.800000X2.000000*%
G04 #@! TD*
G04 #@! TA.AperFunction,SMDPad,CuDef*
%ADD29Outline4P,-1.000000X-0.375000X1.000000X-0.375000X0.500000X0.375000X-0.500000X0.375000X270.000000*%
G04 #@! TD*
G04 #@! TA.AperFunction,SMDPad,CuDef*
%ADD30RoundRect,0.150000X-0.825000X-0.150000X0.825000X-0.150000X0.825000X0.150000X-0.825000X0.150000X0*%
G04 #@! TD*
G04 #@! TA.AperFunction,ComponentPad*
%ADD31C,1.600000*%
G04 #@! TD*
G04 #@! TA.AperFunction,ComponentPad*
%ADD32RoundRect,0.250000X0.600000X0.750000X-0.600000X0.750000X-0.600000X-0.750000X0.600000X-0.750000X0*%
G04 #@! TD*
G04 #@! TA.AperFunction,ComponentPad*
%ADD33O,1.700000X2.000000*%
G04 #@! TD*
G04 #@! TA.AperFunction,SMDPad,CuDef*
%ADD34R,0.900000X0.800000*%
G04 #@! TD*
G04 #@! TA.AperFunction,ComponentPad*
%ADD35RoundRect,0.250000X-0.600000X-0.750000X0.600000X-0.750000X0.600000X0.750000X-0.600000X0.750000X0*%
G04 #@! TD*
G04 #@! TA.AperFunction,ComponentPad*
%ADD36RoundRect,0.250000X0.750000X-0.600000X0.750000X0.600000X-0.750000X0.600000X-0.750000X-0.600000X0*%
G04 #@! TD*
G04 #@! TA.AperFunction,ComponentPad*
%ADD37O,2.000000X1.700000*%
G04 #@! TD*
G04 #@! TA.AperFunction,ComponentPad*
%ADD38C,1.524000*%
G04 #@! TD*
G04 #@! TA.AperFunction,ViaPad*
%ADD39C,0.800000*%
G04 #@! TD*
G04 #@! TA.AperFunction,Conductor*
%ADD40C,0.250000*%
G04 #@! TD*
G04 #@! TA.AperFunction,Conductor*
%ADD41C,1.000000*%
G04 #@! TD*
G04 #@! TA.AperFunction,Conductor*
%ADD42C,0.500000*%
G04 #@! TD*
G04 APERTURE END LIST*
D10*
X163258500Y-87633000D03*
X163258500Y-84833000D03*
D11*
X174371000Y-84833000D03*
X174371000Y-87633000D03*
D12*
X187198000Y-97853500D03*
X184398000Y-97853500D03*
D11*
X217297000Y-97279000D03*
X217297000Y-100079000D03*
D13*
X172590000Y-97790000D03*
X175390000Y-97790000D03*
D14*
X204851000Y-60928000D03*
X204851000Y-56928000D03*
X204851000Y-72358000D03*
X204851000Y-68358000D03*
X204851000Y-84169000D03*
X204851000Y-80169000D03*
X204851000Y-89313000D03*
X204851000Y-93313000D03*
D15*
X232156000Y-67818000D03*
D16*
X232156000Y-70318000D03*
X232156000Y-72818000D03*
X232156000Y-75318000D03*
X232156000Y-77818000D03*
X232156000Y-80318000D03*
X232156000Y-82818000D03*
X232156000Y-85318000D03*
D17*
X189039500Y-71374000D03*
D18*
X191539500Y-71374000D03*
X194039500Y-71374000D03*
D19*
X210693000Y-60601000D03*
X210693000Y-57001000D03*
X210693000Y-72031000D03*
X210693000Y-68431000D03*
X210693000Y-83842000D03*
X210693000Y-80242000D03*
X210693000Y-95653000D03*
X210693000Y-92053000D03*
D20*
X223266000Y-61447000D03*
X223266000Y-55647000D03*
X223266000Y-73131000D03*
X223266000Y-67331000D03*
D10*
X199390000Y-73536000D03*
X199390000Y-70736000D03*
X199390000Y-85220000D03*
X199390000Y-82420000D03*
X199390000Y-97666000D03*
X199390000Y-94866000D03*
D21*
X181483000Y-63627000D03*
D22*
X178943000Y-63627000D03*
X176403000Y-63627000D03*
X173863000Y-63627000D03*
X171323000Y-63627000D03*
X168783000Y-63627000D03*
X166243000Y-63627000D03*
X163703000Y-63627000D03*
X161163000Y-63627000D03*
X158623000Y-63627000D03*
X156083000Y-63627000D03*
X153543000Y-63627000D03*
X151003000Y-63627000D03*
X148463000Y-63627000D03*
X145923000Y-63627000D03*
X145923000Y-78867000D03*
X148463000Y-78867000D03*
X151003000Y-78867000D03*
X153543000Y-78867000D03*
X156083000Y-78867000D03*
X158623000Y-78867000D03*
X161163000Y-78867000D03*
X163703000Y-78867000D03*
X166243000Y-78867000D03*
X168783000Y-78867000D03*
X171323000Y-78867000D03*
X173863000Y-78867000D03*
X176403000Y-78867000D03*
X178943000Y-78867000D03*
X181483000Y-78867000D03*
D23*
X166503000Y-91131500D03*
D24*
X168783000Y-84831500D03*
D23*
X171063000Y-91131500D03*
D25*
X215447000Y-57047000D03*
D26*
X215447000Y-58547000D03*
D27*
X216522000Y-58547000D03*
D28*
X217297000Y-58547000D03*
D29*
X218072000Y-58547000D03*
D26*
X219147000Y-58547000D03*
D25*
X215447000Y-60047000D03*
X219147000Y-60047000D03*
X219147000Y-57047000D03*
X215447000Y-68731000D03*
D26*
X215447000Y-70231000D03*
D27*
X216522000Y-70231000D03*
D28*
X217297000Y-70231000D03*
D29*
X218072000Y-70231000D03*
D26*
X219147000Y-70231000D03*
D25*
X215447000Y-71731000D03*
X219147000Y-71731000D03*
X219147000Y-68731000D03*
X215447000Y-80542000D03*
D26*
X215447000Y-82042000D03*
D27*
X216522000Y-82042000D03*
D28*
X217297000Y-82042000D03*
D29*
X218072000Y-82042000D03*
D26*
X219147000Y-82042000D03*
D25*
X215447000Y-83542000D03*
X219147000Y-83542000D03*
X219147000Y-80542000D03*
D30*
X150623500Y-86296500D03*
X150623500Y-87566500D03*
X150623500Y-88836500D03*
X150623500Y-90106500D03*
X155573500Y-90106500D03*
X155573500Y-88836500D03*
X155573500Y-87566500D03*
X155573500Y-86296500D03*
D20*
X223266000Y-96753000D03*
X223266000Y-90953000D03*
D25*
X215447000Y-92353000D03*
D26*
X215447000Y-93853000D03*
D27*
X216522000Y-93853000D03*
D28*
X217297000Y-93853000D03*
D29*
X218072000Y-93853000D03*
D26*
X219147000Y-93853000D03*
D25*
X215447000Y-95353000D03*
X219147000Y-95353000D03*
X219147000Y-92353000D03*
D20*
X223266000Y-85069000D03*
X223266000Y-79269000D03*
D11*
X217297000Y-85468000D03*
X217297000Y-88268000D03*
X217297000Y-73657000D03*
X217297000Y-76457000D03*
X217297000Y-61973000D03*
X217297000Y-64773000D03*
D13*
X152841500Y-84010500D03*
X155641500Y-84010500D03*
D10*
X179070000Y-94364000D03*
X179070000Y-91564000D03*
D11*
X183642000Y-91564000D03*
X183642000Y-94364000D03*
X185928000Y-91564000D03*
X185928000Y-94364000D03*
D10*
X181356000Y-94364000D03*
X181356000Y-91564000D03*
D15*
X189865000Y-58102500D03*
D16*
X189865000Y-60602500D03*
X189865000Y-63102500D03*
X189865000Y-65602500D03*
D13*
X160652000Y-97790000D03*
X163452000Y-97790000D03*
X148584000Y-97790000D03*
X151384000Y-97790000D03*
D21*
X199326500Y-60579000D03*
D31*
X199326500Y-57079000D03*
D11*
X201803000Y-65275000D03*
X201803000Y-68075000D03*
D32*
X194056000Y-98933000D03*
D33*
X191556000Y-98933000D03*
D34*
X155972000Y-57152500D03*
X155972000Y-59052500D03*
X157972000Y-58102500D03*
D11*
X152019000Y-56829500D03*
X152019000Y-59629500D03*
D35*
X190800000Y-77500000D03*
D33*
X193300000Y-77500000D03*
D36*
X178800000Y-87300000D03*
D37*
X178800000Y-84800000D03*
D35*
X187400000Y-85600000D03*
D33*
X189900000Y-85600000D03*
D38*
X171069000Y-59499500D03*
X168529000Y-59499500D03*
X165989000Y-59499500D03*
X163449000Y-59499500D03*
D39*
X218059000Y-58547000D03*
X219147000Y-58547000D03*
X216535000Y-58547000D03*
X215519000Y-58547000D03*
X218059000Y-82042000D03*
X215519000Y-82042000D03*
X219147000Y-82042000D03*
X216535000Y-82042000D03*
X165036500Y-97790000D03*
X219147000Y-70231000D03*
X199390000Y-68135500D03*
X216535000Y-70231000D03*
X189484000Y-97853500D03*
X167513000Y-86741000D03*
X170624500Y-86804500D03*
X218059000Y-70231000D03*
X199390000Y-93091000D03*
X177165000Y-97790000D03*
X199390000Y-80772000D03*
X218059000Y-93853000D03*
X170624500Y-82804000D03*
X167513000Y-82804000D03*
X219147000Y-93853000D03*
X215519000Y-93853000D03*
X159258000Y-58102500D03*
X216535000Y-93853000D03*
X215519000Y-70231000D03*
X153162000Y-97790000D03*
X226441000Y-68326000D03*
X191564000Y-91564000D03*
X164782500Y-90932000D03*
X223266000Y-89090500D03*
X226420000Y-55647000D03*
X226441000Y-78740000D03*
X164179250Y-90328750D03*
X181338000Y-97772000D03*
X169400000Y-97772000D03*
X157480000Y-97790000D03*
X145542000Y-97790000D03*
X185801000Y-66040000D03*
X185801000Y-63817500D03*
X157162500Y-87566500D03*
X157162500Y-88836500D03*
X201803000Y-61976000D03*
X214122000Y-61976000D03*
X201803000Y-73660000D03*
X213868000Y-73660000D03*
X201803000Y-85217000D03*
X214630000Y-85217000D03*
X213868000Y-97790000D03*
X201803000Y-97790000D03*
X195199000Y-89699000D03*
X167449500Y-67437000D03*
X152019000Y-88201500D03*
X195389500Y-56515000D03*
X202300000Y-96000000D03*
X145923000Y-71945500D03*
D40*
X215447000Y-58547000D02*
X215519000Y-58547000D01*
X219147000Y-58547000D02*
X219147000Y-58547000D01*
X215447000Y-58547000D02*
X215519000Y-58547000D01*
X218567000Y-58547000D02*
X219147000Y-58547000D01*
X217551000Y-58547000D02*
X218567000Y-58547000D01*
X215519000Y-58547000D02*
X216535000Y-58547000D01*
X219147000Y-58547000D02*
X219147000Y-58547000D01*
X216535000Y-58547000D02*
X217551000Y-58547000D01*
X219147000Y-93853000D02*
X219147000Y-93853000D01*
X215447000Y-82042000D02*
X215519000Y-82042000D01*
X187198000Y-97853500D02*
X189484000Y-97853500D01*
X179070000Y-91564000D02*
X178164000Y-91564000D01*
D41*
X178767000Y-84833000D02*
X178800000Y-84800000D01*
D40*
X176367000Y-89767000D02*
X176367000Y-84833000D01*
X163452000Y-97790000D02*
X165036500Y-97790000D01*
X219147000Y-70231000D02*
X219147000Y-70231000D01*
X153098500Y-89471500D02*
X153098500Y-84267500D01*
X215447000Y-93853000D02*
X219147000Y-93853000D01*
X175390000Y-97790000D02*
X177165000Y-97790000D01*
X199390000Y-94866000D02*
X199390000Y-93091000D01*
X155573500Y-95378500D02*
X153162000Y-97790000D01*
X155573500Y-90106500D02*
X153733500Y-90106500D01*
D41*
X178943000Y-78867000D02*
X178943000Y-84657000D01*
D40*
X215447000Y-93853000D02*
X215519000Y-93853000D01*
X163449000Y-84833000D02*
X169226000Y-84833000D01*
X219147000Y-82042000D02*
X219147000Y-82042000D01*
D41*
X176367000Y-84833000D02*
X178767000Y-84833000D01*
D40*
X215447000Y-82042000D02*
X219147000Y-82042000D01*
X199390000Y-82420000D02*
X199390000Y-80772000D01*
D41*
X174371000Y-84833000D02*
X176367000Y-84833000D01*
D40*
X153098500Y-84267500D02*
X152841500Y-84010500D01*
X219147000Y-93853000D02*
X219147000Y-93853000D01*
X151384000Y-97790000D02*
X153162000Y-97790000D01*
X169226000Y-84833000D02*
X169227500Y-84831500D01*
X153733500Y-90106500D02*
X153098500Y-89471500D01*
X215447000Y-70231000D02*
X215519000Y-70231000D01*
X199390000Y-68135500D02*
X199390000Y-70736000D01*
D41*
X178943000Y-84657000D02*
X178800000Y-84800000D01*
D40*
X155573500Y-90106500D02*
X155573500Y-95378500D01*
X169229000Y-84833000D02*
X169227500Y-84831500D01*
X178164000Y-91564000D02*
X176367000Y-89767000D01*
X199390000Y-68135500D02*
X201742500Y-68135500D01*
X157972000Y-58102500D02*
X159258000Y-58102500D01*
X201742500Y-68135500D02*
X201803000Y-68075000D01*
X215447000Y-70231000D02*
X219147000Y-70231000D01*
D41*
X164179250Y-90328750D02*
X164982000Y-91131500D01*
X219147000Y-57047000D02*
X221866000Y-57047000D01*
X163258500Y-87633000D02*
X163258500Y-89408000D01*
X204851000Y-75311000D02*
X207137000Y-77597000D01*
X163449000Y-89598500D02*
X164179250Y-90328750D01*
X219147000Y-68731000D02*
X221866000Y-68731000D01*
X196965000Y-91579500D02*
X199231500Y-89313000D01*
X221993000Y-80542000D02*
X223266000Y-79269000D01*
X221866000Y-68731000D02*
X223266000Y-67331000D01*
X191579500Y-91579500D02*
X191579500Y-98909500D01*
X221866000Y-57047000D02*
X223266000Y-55647000D01*
X204851000Y-89313000D02*
X199231500Y-89313000D01*
X215011000Y-77597000D02*
X216154000Y-78740000D01*
X185928000Y-91564000D02*
X191564000Y-91564000D01*
X217599000Y-67183000D02*
X219147000Y-68731000D01*
X223266000Y-79269000D02*
X226039000Y-79269000D01*
X214376000Y-89408000D02*
X215392000Y-90424000D01*
X219147000Y-80542000D02*
X221993000Y-80542000D01*
X204851000Y-60928000D02*
X204851000Y-62992000D01*
X221866000Y-92353000D02*
X223266000Y-90953000D01*
X217345000Y-78740000D02*
X219147000Y-80542000D01*
X217218000Y-90424000D02*
X219147000Y-92353000D01*
X223266000Y-67331000D02*
X225446000Y-67331000D01*
X215519000Y-66040000D02*
X216662000Y-67183000D01*
X204851000Y-72358000D02*
X204851000Y-75311000D01*
X164982000Y-91131500D02*
X166503000Y-91131500D01*
X219147000Y-92353000D02*
X221866000Y-92353000D01*
X207899000Y-66040000D02*
X215519000Y-66040000D01*
X226039000Y-79269000D02*
X226441000Y-78867000D01*
X207137000Y-77597000D02*
X215011000Y-77597000D01*
X226441000Y-78867000D02*
X226441000Y-78740000D01*
X191564000Y-91564000D02*
X191579500Y-91579500D01*
X193300000Y-89828000D02*
X191564000Y-91564000D01*
X163258500Y-89408000D02*
X163449000Y-89598500D01*
X216662000Y-67183000D02*
X217599000Y-67183000D01*
X223266000Y-90953000D02*
X223266000Y-89090500D01*
X223266000Y-55647000D02*
X226420000Y-55647000D01*
X216154000Y-78740000D02*
X217345000Y-78740000D01*
X204946000Y-89408000D02*
X204851000Y-89313000D01*
X199326500Y-60579000D02*
X204502000Y-60579000D01*
X204502000Y-60579000D02*
X204851000Y-60928000D01*
X225446000Y-67331000D02*
X226441000Y-68326000D01*
X204851000Y-62992000D02*
X207899000Y-66040000D01*
X191579500Y-98909500D02*
X191556000Y-98933000D01*
X191579500Y-91579500D02*
X196965000Y-91579500D01*
X204851000Y-84169000D02*
X204851000Y-89313000D01*
X193300000Y-77500000D02*
X193300000Y-89828000D01*
X214376000Y-89408000D02*
X204946000Y-89408000D01*
X215392000Y-90424000D02*
X217218000Y-90424000D01*
D42*
X172974000Y-76771500D02*
X173863000Y-77660500D01*
X151003000Y-78867000D02*
X151003000Y-79946500D01*
X155035250Y-82454750D02*
X153511250Y-82454750D01*
X173863000Y-78867000D02*
X173863000Y-80010000D01*
X151003000Y-78867000D02*
X151003000Y-78486000D01*
D40*
X152717500Y-76771500D02*
X152971500Y-76771500D01*
D42*
X173863000Y-77660500D02*
X173863000Y-78867000D01*
X152971500Y-76771500D02*
X172974000Y-76771500D01*
X172593000Y-81280000D02*
X172593000Y-85855000D01*
X155641500Y-83061000D02*
X155035250Y-82454750D01*
X155641500Y-84010500D02*
X155641500Y-86228500D01*
X174371000Y-89471500D02*
X172711000Y-91131500D01*
X155641500Y-84010500D02*
X155641500Y-83061000D01*
X155641500Y-86228500D02*
X155573500Y-86296500D01*
X151003000Y-79946500D02*
X153511250Y-82454750D01*
X173863000Y-80010000D02*
X172593000Y-81280000D01*
X171507500Y-91131500D02*
X172711000Y-91131500D01*
X151003000Y-78486000D02*
X152717500Y-76771500D01*
X172593000Y-85855000D02*
X174371000Y-87633000D01*
X174371000Y-87633000D02*
X174371000Y-89471500D01*
D41*
X217297000Y-64773000D02*
X217297000Y-63754000D01*
X225425000Y-63754000D02*
X228346000Y-66675000D01*
X228346000Y-68262500D02*
X230401500Y-70318000D01*
X210693000Y-62230000D02*
X210693000Y-60601000D01*
X230401500Y-70318000D02*
X232156000Y-70318000D01*
X228346000Y-66675000D02*
X228346000Y-68262500D01*
X217297000Y-63754000D02*
X212217000Y-63754000D01*
X212217000Y-63754000D02*
X210693000Y-62230000D01*
X217297000Y-63754000D02*
X225425000Y-63754000D01*
X219147000Y-61921000D02*
X219199000Y-61973000D01*
X223266000Y-61849000D02*
X223142000Y-61973000D01*
X219199000Y-61973000D02*
X223142000Y-61973000D01*
X223142000Y-61973000D02*
X227581000Y-61973000D01*
X232156000Y-66548000D02*
X232156000Y-67818000D01*
X219147000Y-60047000D02*
X219147000Y-61921000D01*
X223266000Y-61447000D02*
X223266000Y-61849000D01*
X227581000Y-61973000D02*
X232156000Y-66548000D01*
X217297000Y-61973000D02*
X219199000Y-61973000D01*
X212344000Y-75565000D02*
X217170000Y-75565000D01*
X217297000Y-76457000D02*
X217297000Y-75692000D01*
X217297000Y-75692000D02*
X217170000Y-75565000D01*
X217170000Y-75565000D02*
X231909000Y-75565000D01*
X231909000Y-75565000D02*
X232156000Y-75318000D01*
X210693000Y-73914000D02*
X212344000Y-75565000D01*
X210693000Y-72031000D02*
X210693000Y-73914000D01*
X223266000Y-73131000D02*
X223266000Y-73400000D01*
X219147000Y-73328000D02*
X218818000Y-73657000D01*
X218818000Y-73657000D02*
X223523000Y-73657000D01*
X223266000Y-73400000D02*
X223523000Y-73657000D01*
X227023000Y-72818000D02*
X226184000Y-73657000D01*
X217297000Y-73657000D02*
X218818000Y-73657000D01*
X219147000Y-71731000D02*
X219147000Y-73328000D01*
X232156000Y-72818000D02*
X227023000Y-72818000D01*
X226184000Y-73657000D02*
X223523000Y-73657000D01*
D40*
X184316500Y-97772000D02*
X184398000Y-97853500D01*
X181338000Y-97772000D02*
X184316500Y-97772000D01*
D41*
X230197000Y-80318000D02*
X232156000Y-80318000D01*
X226695000Y-86106000D02*
X226695000Y-83820000D01*
X217170000Y-87503000D02*
X225298000Y-87503000D01*
X226695000Y-83820000D02*
X230197000Y-80318000D01*
X225298000Y-87503000D02*
X226695000Y-86106000D01*
X214354000Y-87503000D02*
X210693000Y-83842000D01*
X217170000Y-87503000D02*
X214354000Y-87503000D01*
X217297000Y-87630000D02*
X217170000Y-87503000D01*
X217297000Y-88268000D02*
X217297000Y-87630000D01*
X225933000Y-81915000D02*
X230030000Y-77818000D01*
X223266000Y-85069000D02*
X223266000Y-82867500D01*
X219326000Y-85468000D02*
X222867000Y-85468000D01*
X222867000Y-85468000D02*
X223266000Y-85069000D01*
X219147000Y-83542000D02*
X219147000Y-85289000D01*
X230030000Y-77818000D02*
X232156000Y-77818000D01*
X224218500Y-81915000D02*
X225933000Y-81915000D01*
X223266000Y-82867500D02*
X224218500Y-81915000D01*
X217297000Y-85468000D02*
X219326000Y-85468000D01*
X219147000Y-85289000D02*
X219326000Y-85468000D01*
X210693000Y-98679000D02*
X210693000Y-95653000D01*
X225358500Y-100079000D02*
X217297000Y-100079000D01*
X232156000Y-88011000D02*
X229425500Y-90741500D01*
X212093000Y-100079000D02*
X210693000Y-98679000D01*
X229425500Y-90741500D02*
X229425500Y-96012000D01*
X229425500Y-96012000D02*
X225358500Y-100079000D01*
X232156000Y-85318000D02*
X232156000Y-88011000D01*
X217297000Y-100079000D02*
X212093000Y-100079000D01*
X229235000Y-84836000D02*
X229235000Y-87058500D01*
X229235000Y-84836000D02*
X231253000Y-82818000D01*
X231253000Y-82818000D02*
X232156000Y-82818000D01*
X217297000Y-97279000D02*
X219199000Y-97279000D01*
X223266000Y-96753000D02*
X223266000Y-97149000D01*
X226631500Y-89662000D02*
X226631500Y-95498000D01*
X219147000Y-97227000D02*
X219199000Y-97279000D01*
X219147000Y-95353000D02*
X219147000Y-97227000D01*
X219199000Y-97279000D02*
X223396000Y-97279000D01*
X226631500Y-95498000D02*
X224850500Y-97279000D01*
X229235000Y-87058500D02*
X226631500Y-89662000D01*
X223396000Y-97279000D02*
X224850500Y-97279000D01*
X223266000Y-97149000D02*
X223396000Y-97279000D01*
D40*
X169400000Y-97772000D02*
X172572000Y-97772000D01*
X172572000Y-97772000D02*
X172590000Y-97790000D01*
X160652000Y-97790000D02*
X157480000Y-97790000D01*
X148584000Y-97790000D02*
X145542000Y-97790000D01*
D41*
X210693000Y-57001000D02*
X215401000Y-57001000D01*
X204851000Y-56928000D02*
X210620000Y-56928000D01*
X215401000Y-57001000D02*
X215447000Y-57047000D01*
X210620000Y-56928000D02*
X210693000Y-57001000D01*
X204851000Y-68358000D02*
X215074000Y-68358000D01*
X215074000Y-68358000D02*
X215447000Y-68731000D01*
X215074000Y-80169000D02*
X215447000Y-80542000D01*
X204851000Y-80169000D02*
X215074000Y-80169000D01*
X206111000Y-92053000D02*
X204851000Y-93313000D01*
X210693000Y-92053000D02*
X215147000Y-92053000D01*
X210693000Y-92053000D02*
X206111000Y-92053000D01*
X215147000Y-92053000D02*
X215447000Y-92353000D01*
D40*
X183578500Y-57023000D02*
X166624000Y-57023000D01*
X184531000Y-57975500D02*
X183578500Y-57023000D01*
X184531000Y-65405000D02*
X184531000Y-57975500D01*
X166624000Y-57023000D02*
X165989000Y-57658000D01*
X165989000Y-57658000D02*
X165989000Y-59499500D01*
X185801000Y-66040000D02*
X185166000Y-66040000D01*
X185166000Y-66040000D02*
X184531000Y-65405000D01*
X163449000Y-59499500D02*
X163449000Y-57150000D01*
X185801000Y-57023000D02*
X185801000Y-63817500D01*
X184721500Y-55943500D02*
X185801000Y-57023000D01*
X163449000Y-57150000D02*
X164655500Y-55943500D01*
X164655500Y-55943500D02*
X184721500Y-55943500D01*
X155573500Y-87566500D02*
X157162500Y-87566500D01*
X155573500Y-88836500D02*
X157162500Y-88836500D01*
X183642000Y-91564000D02*
X181356000Y-91564000D01*
X181356000Y-94364000D02*
X179070000Y-94364000D01*
X154876500Y-81216500D02*
X155892500Y-81216500D01*
X155892500Y-81216500D02*
X158242000Y-83566000D01*
X159575500Y-95948500D02*
X177485500Y-95948500D01*
X153543000Y-79883000D02*
X154876500Y-81216500D01*
X158242000Y-83566000D02*
X158242000Y-94615000D01*
X177485500Y-95948500D02*
X179070000Y-94364000D01*
X153543000Y-78867000D02*
X153543000Y-79883000D01*
X158242000Y-94615000D02*
X159575500Y-95948500D01*
X185928000Y-94364000D02*
X183642000Y-94364000D01*
X201800000Y-61979000D02*
X201803000Y-61976000D01*
X170370500Y-68389500D02*
X168783000Y-66802000D01*
X215447000Y-60047000D02*
X215447000Y-60651000D01*
X168783000Y-66802000D02*
X168783000Y-63627000D01*
X196215000Y-68389500D02*
X170370500Y-68389500D01*
X201803000Y-65211500D02*
X201806000Y-65214500D01*
X201803000Y-61976000D02*
X201803000Y-65211500D01*
X199329500Y-65275000D02*
X196215000Y-68389500D01*
X215447000Y-60651000D02*
X214122000Y-61976000D01*
X201803000Y-65275000D02*
X199329500Y-65275000D01*
X167449500Y-69596000D02*
X163703000Y-65849500D01*
X199390000Y-73536000D02*
X197742000Y-73536000D01*
X215447000Y-71731000D02*
X215447000Y-72081000D01*
X196278500Y-69596000D02*
X167449500Y-69596000D01*
X201679000Y-73536000D02*
X201803000Y-73660000D01*
X199390000Y-73536000D02*
X201679000Y-73536000D01*
X163703000Y-65849500D02*
X163703000Y-63627000D01*
X196913500Y-70231000D02*
X196278500Y-69596000D01*
X197742000Y-73536000D02*
X196913500Y-72707500D01*
X196913500Y-72707500D02*
X196913500Y-70231000D01*
X215447000Y-72081000D02*
X213868000Y-73660000D01*
X199390000Y-85220000D02*
X201800000Y-85220000D01*
X215447000Y-84400000D02*
X214630000Y-85217000D01*
X188595000Y-74231500D02*
X194881500Y-74231500D01*
X194881500Y-74231500D02*
X196596000Y-75946000D01*
X161163000Y-63627000D02*
X161163000Y-66738500D01*
X165671500Y-71247000D02*
X185610500Y-71247000D01*
X215447000Y-83542000D02*
X215447000Y-84400000D01*
X185610500Y-71247000D02*
X188595000Y-74231500D01*
X198377000Y-85220000D02*
X199390000Y-85220000D01*
X161163000Y-66738500D02*
X165671500Y-71247000D01*
X196596000Y-75946000D02*
X196596000Y-83439000D01*
X201800000Y-85220000D02*
X201803000Y-85217000D01*
X196596000Y-83439000D02*
X198377000Y-85220000D01*
X153543000Y-66992500D02*
X159067500Y-72517000D01*
X153543000Y-63627000D02*
X153543000Y-66992500D01*
X201803000Y-97790000D02*
X199514000Y-97790000D01*
X213868000Y-97282000D02*
X213868000Y-97790000D01*
X199514000Y-97790000D02*
X199390000Y-97666000D01*
X215447000Y-95353000D02*
X215447000Y-95703000D01*
X159067500Y-72517000D02*
X184721500Y-72517000D01*
X184721500Y-72517000D02*
X188023500Y-75819000D01*
X215447000Y-95703000D02*
X213868000Y-97282000D01*
X195199000Y-86106000D02*
X195199000Y-89699000D01*
X188023500Y-75819000D02*
X194310000Y-75819000D01*
X195199000Y-76708000D02*
X195199000Y-86106000D01*
X194310000Y-75819000D02*
X195199000Y-76708000D01*
X152273000Y-62674500D02*
X152273000Y-66357500D01*
X178371500Y-62103000D02*
X152844500Y-62103000D01*
X178943000Y-62674500D02*
X178371500Y-62103000D01*
X149796500Y-85915500D02*
X150242500Y-85915500D01*
X152844500Y-62103000D02*
X152273000Y-62674500D01*
X150242500Y-85915500D02*
X150623500Y-86296500D01*
X149796500Y-68834000D02*
X149796500Y-85915500D01*
X178943000Y-63627000D02*
X178943000Y-62674500D01*
X152273000Y-66357500D02*
X149796500Y-68834000D01*
X166243000Y-66230500D02*
X167449500Y-67437000D01*
X150623500Y-88836500D02*
X150623500Y-87566500D01*
X166243000Y-63627000D02*
X166243000Y-66230500D01*
X150623500Y-87566500D02*
X151384000Y-87566500D01*
X150623500Y-88836500D02*
X151384000Y-88836500D01*
X151384000Y-88836500D02*
X152019000Y-88201500D01*
X151384000Y-87566500D02*
X152019000Y-88201500D01*
X148082000Y-67818000D02*
X149733000Y-66167000D01*
X180149500Y-61404500D02*
X181483000Y-62738000D01*
X150623500Y-90106500D02*
X145859500Y-90106500D01*
X181483000Y-62738000D02*
X181483000Y-63627000D01*
X145859500Y-90106500D02*
X143129000Y-87376000D01*
X143129000Y-87376000D02*
X143129000Y-78549500D01*
X148082000Y-73596500D02*
X143129000Y-78549500D01*
X149733000Y-62230000D02*
X150558500Y-61404500D01*
X150558500Y-61404500D02*
X180149500Y-61404500D01*
X148082000Y-67818000D02*
X148082000Y-73596500D01*
X149733000Y-66167000D02*
X149733000Y-62230000D01*
X161290000Y-56261000D02*
X162433000Y-55118000D01*
X161290000Y-58610500D02*
X161290000Y-56261000D01*
X202300000Y-96000000D02*
X203400000Y-97100000D01*
X203400000Y-98500000D02*
X202967000Y-98933000D01*
X202967000Y-98933000D02*
X194056000Y-98933000D01*
X203400000Y-97100000D02*
X203400000Y-98500000D01*
X160020000Y-59880500D02*
X161290000Y-58610500D01*
X162433000Y-55118000D02*
X185801000Y-55118000D01*
X185801000Y-55118000D02*
X193992500Y-55118000D01*
X155972000Y-59052500D02*
X155972000Y-59261500D01*
X193992500Y-55118000D02*
X195389500Y-56515000D01*
X155972000Y-59261500D02*
X156591000Y-59880500D01*
X156591000Y-59880500D02*
X160020000Y-59880500D01*
X155649000Y-56829500D02*
X155972000Y-57152500D01*
X152019000Y-56829500D02*
X155649000Y-56829500D01*
X147193000Y-65976500D02*
X147193000Y-62801500D01*
X145923000Y-71945500D02*
X145923000Y-67246500D01*
X150365000Y-59629500D02*
X152019000Y-59629500D01*
X147193000Y-62801500D02*
X150365000Y-59629500D01*
X145923000Y-67246500D02*
X147193000Y-65976500D01*
D41*
X178800000Y-87300000D02*
X180300000Y-87300000D01*
X182000000Y-85600000D02*
X187400000Y-85600000D01*
X180300000Y-87300000D02*
X182000000Y-85600000D01*
X187400000Y-82900000D02*
X187400000Y-85600000D01*
X190800000Y-80900000D02*
X190200000Y-81500000D01*
X190200000Y-81500000D02*
X188800000Y-81500000D01*
X188800000Y-81500000D02*
X187400000Y-82900000D01*
X190800000Y-77500000D02*
X190800000Y-80900000D01*
M02*
