G04 #@! TF.GenerationSoftware,KiCad,Pcbnew,7.0.8*
G04 #@! TF.CreationDate,2024-03-28T15:32:18+01:00*
G04 #@! TF.ProjectId,Prozessorplatine,50726f7a-6573-4736-9f72-706c6174696e,rev?*
G04 #@! TF.SameCoordinates,Original*
G04 #@! TF.FileFunction,Legend,Bot*
G04 #@! TF.FilePolarity,Positive*
%FSLAX46Y46*%
G04 Gerber Fmt 4.6, Leading zero omitted, Abs format (unit mm)*
G04 Created by KiCad (PCBNEW 7.0.8) date 2024-03-28 15:32:18*
%MOMM*%
%LPD*%
G01*
G04 APERTURE LIST*
%ADD10C,0.150000*%
%ADD11C,0.125000*%
%ADD12C,0.120000*%
G04 APERTURE END LIST*
D10*
X187261332Y-97812700D02*
X187118475Y-97860319D01*
X187118475Y-97860319D02*
X186880380Y-97860319D01*
X186880380Y-97860319D02*
X186785142Y-97812700D01*
X186785142Y-97812700D02*
X186737523Y-97765080D01*
X186737523Y-97765080D02*
X186689904Y-97669842D01*
X186689904Y-97669842D02*
X186689904Y-97574604D01*
X186689904Y-97574604D02*
X186737523Y-97479366D01*
X186737523Y-97479366D02*
X186785142Y-97431747D01*
X186785142Y-97431747D02*
X186880380Y-97384128D01*
X186880380Y-97384128D02*
X187070856Y-97336509D01*
X187070856Y-97336509D02*
X187166094Y-97288890D01*
X187166094Y-97288890D02*
X187213713Y-97241271D01*
X187213713Y-97241271D02*
X187261332Y-97146033D01*
X187261332Y-97146033D02*
X187261332Y-97050795D01*
X187261332Y-97050795D02*
X187213713Y-96955557D01*
X187213713Y-96955557D02*
X187166094Y-96907938D01*
X187166094Y-96907938D02*
X187070856Y-96860319D01*
X187070856Y-96860319D02*
X186832761Y-96860319D01*
X186832761Y-96860319D02*
X186689904Y-96907938D01*
X186356570Y-96860319D02*
X186118475Y-97860319D01*
X186118475Y-97860319D02*
X185927999Y-97146033D01*
X185927999Y-97146033D02*
X185737523Y-97860319D01*
X185737523Y-97860319D02*
X185499428Y-96860319D01*
X184594666Y-97860319D02*
X185166094Y-97860319D01*
X184880380Y-97860319D02*
X184880380Y-96860319D01*
X184880380Y-96860319D02*
X184975618Y-97003176D01*
X184975618Y-97003176D02*
X185070856Y-97098414D01*
X185070856Y-97098414D02*
X185166094Y-97146033D01*
X175323332Y-97812700D02*
X175180475Y-97860319D01*
X175180475Y-97860319D02*
X174942380Y-97860319D01*
X174942380Y-97860319D02*
X174847142Y-97812700D01*
X174847142Y-97812700D02*
X174799523Y-97765080D01*
X174799523Y-97765080D02*
X174751904Y-97669842D01*
X174751904Y-97669842D02*
X174751904Y-97574604D01*
X174751904Y-97574604D02*
X174799523Y-97479366D01*
X174799523Y-97479366D02*
X174847142Y-97431747D01*
X174847142Y-97431747D02*
X174942380Y-97384128D01*
X174942380Y-97384128D02*
X175132856Y-97336509D01*
X175132856Y-97336509D02*
X175228094Y-97288890D01*
X175228094Y-97288890D02*
X175275713Y-97241271D01*
X175275713Y-97241271D02*
X175323332Y-97146033D01*
X175323332Y-97146033D02*
X175323332Y-97050795D01*
X175323332Y-97050795D02*
X175275713Y-96955557D01*
X175275713Y-96955557D02*
X175228094Y-96907938D01*
X175228094Y-96907938D02*
X175132856Y-96860319D01*
X175132856Y-96860319D02*
X174894761Y-96860319D01*
X174894761Y-96860319D02*
X174751904Y-96907938D01*
X174418570Y-96860319D02*
X174180475Y-97860319D01*
X174180475Y-97860319D02*
X173989999Y-97146033D01*
X173989999Y-97146033D02*
X173799523Y-97860319D01*
X173799523Y-97860319D02*
X173561428Y-96860319D01*
X173228094Y-96955557D02*
X173180475Y-96907938D01*
X173180475Y-96907938D02*
X173085237Y-96860319D01*
X173085237Y-96860319D02*
X172847142Y-96860319D01*
X172847142Y-96860319D02*
X172751904Y-96907938D01*
X172751904Y-96907938D02*
X172704285Y-96955557D01*
X172704285Y-96955557D02*
X172656666Y-97050795D01*
X172656666Y-97050795D02*
X172656666Y-97146033D01*
X172656666Y-97146033D02*
X172704285Y-97288890D01*
X172704285Y-97288890D02*
X173275713Y-97860319D01*
X173275713Y-97860319D02*
X172656666Y-97860319D01*
X163385332Y-97812700D02*
X163242475Y-97860319D01*
X163242475Y-97860319D02*
X163004380Y-97860319D01*
X163004380Y-97860319D02*
X162909142Y-97812700D01*
X162909142Y-97812700D02*
X162861523Y-97765080D01*
X162861523Y-97765080D02*
X162813904Y-97669842D01*
X162813904Y-97669842D02*
X162813904Y-97574604D01*
X162813904Y-97574604D02*
X162861523Y-97479366D01*
X162861523Y-97479366D02*
X162909142Y-97431747D01*
X162909142Y-97431747D02*
X163004380Y-97384128D01*
X163004380Y-97384128D02*
X163194856Y-97336509D01*
X163194856Y-97336509D02*
X163290094Y-97288890D01*
X163290094Y-97288890D02*
X163337713Y-97241271D01*
X163337713Y-97241271D02*
X163385332Y-97146033D01*
X163385332Y-97146033D02*
X163385332Y-97050795D01*
X163385332Y-97050795D02*
X163337713Y-96955557D01*
X163337713Y-96955557D02*
X163290094Y-96907938D01*
X163290094Y-96907938D02*
X163194856Y-96860319D01*
X163194856Y-96860319D02*
X162956761Y-96860319D01*
X162956761Y-96860319D02*
X162813904Y-96907938D01*
X162480570Y-96860319D02*
X162242475Y-97860319D01*
X162242475Y-97860319D02*
X162051999Y-97146033D01*
X162051999Y-97146033D02*
X161861523Y-97860319D01*
X161861523Y-97860319D02*
X161623428Y-96860319D01*
X161337713Y-96860319D02*
X160718666Y-96860319D01*
X160718666Y-96860319D02*
X161051999Y-97241271D01*
X161051999Y-97241271D02*
X160909142Y-97241271D01*
X160909142Y-97241271D02*
X160813904Y-97288890D01*
X160813904Y-97288890D02*
X160766285Y-97336509D01*
X160766285Y-97336509D02*
X160718666Y-97431747D01*
X160718666Y-97431747D02*
X160718666Y-97669842D01*
X160718666Y-97669842D02*
X160766285Y-97765080D01*
X160766285Y-97765080D02*
X160813904Y-97812700D01*
X160813904Y-97812700D02*
X160909142Y-97860319D01*
X160909142Y-97860319D02*
X161194856Y-97860319D01*
X161194856Y-97860319D02*
X161290094Y-97812700D01*
X161290094Y-97812700D02*
X161337713Y-97765080D01*
X151447332Y-97812700D02*
X151304475Y-97860319D01*
X151304475Y-97860319D02*
X151066380Y-97860319D01*
X151066380Y-97860319D02*
X150971142Y-97812700D01*
X150971142Y-97812700D02*
X150923523Y-97765080D01*
X150923523Y-97765080D02*
X150875904Y-97669842D01*
X150875904Y-97669842D02*
X150875904Y-97574604D01*
X150875904Y-97574604D02*
X150923523Y-97479366D01*
X150923523Y-97479366D02*
X150971142Y-97431747D01*
X150971142Y-97431747D02*
X151066380Y-97384128D01*
X151066380Y-97384128D02*
X151256856Y-97336509D01*
X151256856Y-97336509D02*
X151352094Y-97288890D01*
X151352094Y-97288890D02*
X151399713Y-97241271D01*
X151399713Y-97241271D02*
X151447332Y-97146033D01*
X151447332Y-97146033D02*
X151447332Y-97050795D01*
X151447332Y-97050795D02*
X151399713Y-96955557D01*
X151399713Y-96955557D02*
X151352094Y-96907938D01*
X151352094Y-96907938D02*
X151256856Y-96860319D01*
X151256856Y-96860319D02*
X151018761Y-96860319D01*
X151018761Y-96860319D02*
X150875904Y-96907938D01*
X150542570Y-96860319D02*
X150304475Y-97860319D01*
X150304475Y-97860319D02*
X150113999Y-97146033D01*
X150113999Y-97146033D02*
X149923523Y-97860319D01*
X149923523Y-97860319D02*
X149685428Y-96860319D01*
X148875904Y-97193652D02*
X148875904Y-97860319D01*
X149113999Y-96812700D02*
X149352094Y-97526985D01*
X149352094Y-97526985D02*
X148733047Y-97526985D01*
X167592333Y-56914319D02*
X167592333Y-57628604D01*
X167592333Y-57628604D02*
X167639952Y-57771461D01*
X167639952Y-57771461D02*
X167735190Y-57866700D01*
X167735190Y-57866700D02*
X167878047Y-57914319D01*
X167878047Y-57914319D02*
X167973285Y-57914319D01*
X166592333Y-57914319D02*
X167163761Y-57914319D01*
X166878047Y-57914319D02*
X166878047Y-56914319D01*
X166878047Y-56914319D02*
X166973285Y-57057176D01*
X166973285Y-57057176D02*
X167068523Y-57152414D01*
X167068523Y-57152414D02*
X167163761Y-57200033D01*
D11*
X164420428Y-61603000D02*
X164306142Y-61641095D01*
X164306142Y-61641095D02*
X164115666Y-61641095D01*
X164115666Y-61641095D02*
X164039475Y-61603000D01*
X164039475Y-61603000D02*
X164001380Y-61564904D01*
X164001380Y-61564904D02*
X163963285Y-61488714D01*
X163963285Y-61488714D02*
X163963285Y-61412523D01*
X163963285Y-61412523D02*
X164001380Y-61336333D01*
X164001380Y-61336333D02*
X164039475Y-61298238D01*
X164039475Y-61298238D02*
X164115666Y-61260142D01*
X164115666Y-61260142D02*
X164268047Y-61222047D01*
X164268047Y-61222047D02*
X164344237Y-61183952D01*
X164344237Y-61183952D02*
X164382332Y-61145857D01*
X164382332Y-61145857D02*
X164420428Y-61069666D01*
X164420428Y-61069666D02*
X164420428Y-60993476D01*
X164420428Y-60993476D02*
X164382332Y-60917285D01*
X164382332Y-60917285D02*
X164344237Y-60879190D01*
X164344237Y-60879190D02*
X164268047Y-60841095D01*
X164268047Y-60841095D02*
X164077570Y-60841095D01*
X164077570Y-60841095D02*
X163963285Y-60879190D01*
X163620427Y-61641095D02*
X163620427Y-60841095D01*
X163620427Y-60841095D02*
X163429951Y-60841095D01*
X163429951Y-60841095D02*
X163315665Y-60879190D01*
X163315665Y-60879190D02*
X163239475Y-60955380D01*
X163239475Y-60955380D02*
X163201380Y-61031571D01*
X163201380Y-61031571D02*
X163163284Y-61183952D01*
X163163284Y-61183952D02*
X163163284Y-61298238D01*
X163163284Y-61298238D02*
X163201380Y-61450619D01*
X163201380Y-61450619D02*
X163239475Y-61526809D01*
X163239475Y-61526809D02*
X163315665Y-61603000D01*
X163315665Y-61603000D02*
X163429951Y-61641095D01*
X163429951Y-61641095D02*
X163620427Y-61641095D01*
X162858523Y-61412523D02*
X162477570Y-61412523D01*
X162934713Y-61641095D02*
X162668046Y-60841095D01*
X162668046Y-60841095D02*
X162401380Y-61641095D01*
X169595666Y-60841095D02*
X169328999Y-61641095D01*
X169328999Y-61641095D02*
X169062333Y-60841095D01*
X168338523Y-61564904D02*
X168376619Y-61603000D01*
X168376619Y-61603000D02*
X168490904Y-61641095D01*
X168490904Y-61641095D02*
X168567095Y-61641095D01*
X168567095Y-61641095D02*
X168681381Y-61603000D01*
X168681381Y-61603000D02*
X168757571Y-61526809D01*
X168757571Y-61526809D02*
X168795666Y-61450619D01*
X168795666Y-61450619D02*
X168833762Y-61298238D01*
X168833762Y-61298238D02*
X168833762Y-61183952D01*
X168833762Y-61183952D02*
X168795666Y-61031571D01*
X168795666Y-61031571D02*
X168757571Y-60955380D01*
X168757571Y-60955380D02*
X168681381Y-60879190D01*
X168681381Y-60879190D02*
X168567095Y-60841095D01*
X168567095Y-60841095D02*
X168490904Y-60841095D01*
X168490904Y-60841095D02*
X168376619Y-60879190D01*
X168376619Y-60879190D02*
X168338523Y-60917285D01*
X167538523Y-61564904D02*
X167576619Y-61603000D01*
X167576619Y-61603000D02*
X167690904Y-61641095D01*
X167690904Y-61641095D02*
X167767095Y-61641095D01*
X167767095Y-61641095D02*
X167881381Y-61603000D01*
X167881381Y-61603000D02*
X167957571Y-61526809D01*
X167957571Y-61526809D02*
X167995666Y-61450619D01*
X167995666Y-61450619D02*
X168033762Y-61298238D01*
X168033762Y-61298238D02*
X168033762Y-61183952D01*
X168033762Y-61183952D02*
X167995666Y-61031571D01*
X167995666Y-61031571D02*
X167957571Y-60955380D01*
X167957571Y-60955380D02*
X167881381Y-60879190D01*
X167881381Y-60879190D02*
X167767095Y-60841095D01*
X167767095Y-60841095D02*
X167690904Y-60841095D01*
X167690904Y-60841095D02*
X167576619Y-60879190D01*
X167576619Y-60879190D02*
X167538523Y-60917285D01*
D10*
X169592333Y-70066700D02*
X169449476Y-70114319D01*
X169449476Y-70114319D02*
X169211381Y-70114319D01*
X169211381Y-70114319D02*
X169116143Y-70066700D01*
X169116143Y-70066700D02*
X169068524Y-70019080D01*
X169068524Y-70019080D02*
X169020905Y-69923842D01*
X169020905Y-69923842D02*
X169020905Y-69828604D01*
X169020905Y-69828604D02*
X169068524Y-69733366D01*
X169068524Y-69733366D02*
X169116143Y-69685747D01*
X169116143Y-69685747D02*
X169211381Y-69638128D01*
X169211381Y-69638128D02*
X169401857Y-69590509D01*
X169401857Y-69590509D02*
X169497095Y-69542890D01*
X169497095Y-69542890D02*
X169544714Y-69495271D01*
X169544714Y-69495271D02*
X169592333Y-69400033D01*
X169592333Y-69400033D02*
X169592333Y-69304795D01*
X169592333Y-69304795D02*
X169544714Y-69209557D01*
X169544714Y-69209557D02*
X169497095Y-69161938D01*
X169497095Y-69161938D02*
X169401857Y-69114319D01*
X169401857Y-69114319D02*
X169163762Y-69114319D01*
X169163762Y-69114319D02*
X169020905Y-69161938D01*
X168163762Y-70066700D02*
X168259000Y-70114319D01*
X168259000Y-70114319D02*
X168449476Y-70114319D01*
X168449476Y-70114319D02*
X168544714Y-70066700D01*
X168544714Y-70066700D02*
X168592333Y-70019080D01*
X168592333Y-70019080D02*
X168639952Y-69923842D01*
X168639952Y-69923842D02*
X168639952Y-69638128D01*
X168639952Y-69638128D02*
X168592333Y-69542890D01*
X168592333Y-69542890D02*
X168544714Y-69495271D01*
X168544714Y-69495271D02*
X168449476Y-69447652D01*
X168449476Y-69447652D02*
X168259000Y-69447652D01*
X168259000Y-69447652D02*
X168163762Y-69495271D01*
X167735190Y-70114319D02*
X167735190Y-69447652D01*
X167735190Y-69638128D02*
X167687571Y-69542890D01*
X167687571Y-69542890D02*
X167639952Y-69495271D01*
X167639952Y-69495271D02*
X167544714Y-69447652D01*
X167544714Y-69447652D02*
X167449476Y-69447652D01*
X166735190Y-70066700D02*
X166830428Y-70114319D01*
X166830428Y-70114319D02*
X167020904Y-70114319D01*
X167020904Y-70114319D02*
X167116142Y-70066700D01*
X167116142Y-70066700D02*
X167163761Y-69971461D01*
X167163761Y-69971461D02*
X167163761Y-69590509D01*
X167163761Y-69590509D02*
X167116142Y-69495271D01*
X167116142Y-69495271D02*
X167020904Y-69447652D01*
X167020904Y-69447652D02*
X166830428Y-69447652D01*
X166830428Y-69447652D02*
X166735190Y-69495271D01*
X166735190Y-69495271D02*
X166687571Y-69590509D01*
X166687571Y-69590509D02*
X166687571Y-69685747D01*
X166687571Y-69685747D02*
X167163761Y-69780985D01*
X165878047Y-70066700D02*
X165973285Y-70114319D01*
X165973285Y-70114319D02*
X166163761Y-70114319D01*
X166163761Y-70114319D02*
X166258999Y-70066700D01*
X166258999Y-70066700D02*
X166306618Y-69971461D01*
X166306618Y-69971461D02*
X166306618Y-69590509D01*
X166306618Y-69590509D02*
X166258999Y-69495271D01*
X166258999Y-69495271D02*
X166163761Y-69447652D01*
X166163761Y-69447652D02*
X165973285Y-69447652D01*
X165973285Y-69447652D02*
X165878047Y-69495271D01*
X165878047Y-69495271D02*
X165830428Y-69590509D01*
X165830428Y-69590509D02*
X165830428Y-69685747D01*
X165830428Y-69685747D02*
X166306618Y-69780985D01*
X165401856Y-69447652D02*
X165401856Y-70114319D01*
X165401856Y-69542890D02*
X165354237Y-69495271D01*
X165354237Y-69495271D02*
X165258999Y-69447652D01*
X165258999Y-69447652D02*
X165116142Y-69447652D01*
X165116142Y-69447652D02*
X165020904Y-69495271D01*
X165020904Y-69495271D02*
X164973285Y-69590509D01*
X164973285Y-69590509D02*
X164973285Y-70114319D01*
X168973285Y-78480509D02*
X169306618Y-78480509D01*
X169306618Y-79004319D02*
X169306618Y-78004319D01*
X169306618Y-78004319D02*
X168830428Y-78004319D01*
X168449475Y-79004319D02*
X168449475Y-78337652D01*
X168449475Y-78528128D02*
X168401856Y-78432890D01*
X168401856Y-78432890D02*
X168354237Y-78385271D01*
X168354237Y-78385271D02*
X168258999Y-78337652D01*
X168258999Y-78337652D02*
X168163761Y-78337652D01*
X167401856Y-79004319D02*
X167401856Y-78480509D01*
X167401856Y-78480509D02*
X167449475Y-78385271D01*
X167449475Y-78385271D02*
X167544713Y-78337652D01*
X167544713Y-78337652D02*
X167735189Y-78337652D01*
X167735189Y-78337652D02*
X167830427Y-78385271D01*
X167401856Y-78956700D02*
X167497094Y-79004319D01*
X167497094Y-79004319D02*
X167735189Y-79004319D01*
X167735189Y-79004319D02*
X167830427Y-78956700D01*
X167830427Y-78956700D02*
X167878046Y-78861461D01*
X167878046Y-78861461D02*
X167878046Y-78766223D01*
X167878046Y-78766223D02*
X167830427Y-78670985D01*
X167830427Y-78670985D02*
X167735189Y-78623366D01*
X167735189Y-78623366D02*
X167497094Y-78623366D01*
X167497094Y-78623366D02*
X167401856Y-78575747D01*
X166925665Y-79004319D02*
X166925665Y-78337652D01*
X166925665Y-78432890D02*
X166878046Y-78385271D01*
X166878046Y-78385271D02*
X166782808Y-78337652D01*
X166782808Y-78337652D02*
X166639951Y-78337652D01*
X166639951Y-78337652D02*
X166544713Y-78385271D01*
X166544713Y-78385271D02*
X166497094Y-78480509D01*
X166497094Y-78480509D02*
X166497094Y-79004319D01*
X166497094Y-78480509D02*
X166449475Y-78385271D01*
X166449475Y-78385271D02*
X166354237Y-78337652D01*
X166354237Y-78337652D02*
X166211380Y-78337652D01*
X166211380Y-78337652D02*
X166116141Y-78385271D01*
X166116141Y-78385271D02*
X166068522Y-78480509D01*
X166068522Y-78480509D02*
X166068522Y-79004319D01*
X165211380Y-78956700D02*
X165306618Y-79004319D01*
X165306618Y-79004319D02*
X165497094Y-79004319D01*
X165497094Y-79004319D02*
X165592332Y-78956700D01*
X165592332Y-78956700D02*
X165639951Y-78861461D01*
X165639951Y-78861461D02*
X165639951Y-78480509D01*
X165639951Y-78480509D02*
X165592332Y-78385271D01*
X165592332Y-78385271D02*
X165497094Y-78337652D01*
X165497094Y-78337652D02*
X165306618Y-78337652D01*
X165306618Y-78337652D02*
X165211380Y-78385271D01*
X165211380Y-78385271D02*
X165163761Y-78480509D01*
X165163761Y-78480509D02*
X165163761Y-78575747D01*
X165163761Y-78575747D02*
X165639951Y-78670985D01*
D11*
X171678523Y-60879190D02*
X171754713Y-60841095D01*
X171754713Y-60841095D02*
X171868999Y-60841095D01*
X171868999Y-60841095D02*
X171983285Y-60879190D01*
X171983285Y-60879190D02*
X172059475Y-60955380D01*
X172059475Y-60955380D02*
X172097570Y-61031571D01*
X172097570Y-61031571D02*
X172135666Y-61183952D01*
X172135666Y-61183952D02*
X172135666Y-61298238D01*
X172135666Y-61298238D02*
X172097570Y-61450619D01*
X172097570Y-61450619D02*
X172059475Y-61526809D01*
X172059475Y-61526809D02*
X171983285Y-61603000D01*
X171983285Y-61603000D02*
X171868999Y-61641095D01*
X171868999Y-61641095D02*
X171792808Y-61641095D01*
X171792808Y-61641095D02*
X171678523Y-61603000D01*
X171678523Y-61603000D02*
X171640427Y-61564904D01*
X171640427Y-61564904D02*
X171640427Y-61298238D01*
X171640427Y-61298238D02*
X171792808Y-61298238D01*
X171297570Y-61641095D02*
X171297570Y-60841095D01*
X171297570Y-60841095D02*
X170840427Y-61641095D01*
X170840427Y-61641095D02*
X170840427Y-60841095D01*
X170459475Y-61641095D02*
X170459475Y-60841095D01*
X170459475Y-60841095D02*
X170268999Y-60841095D01*
X170268999Y-60841095D02*
X170154713Y-60879190D01*
X170154713Y-60879190D02*
X170078523Y-60955380D01*
X170078523Y-60955380D02*
X170040428Y-61031571D01*
X170040428Y-61031571D02*
X170002332Y-61183952D01*
X170002332Y-61183952D02*
X170002332Y-61298238D01*
X170002332Y-61298238D02*
X170040428Y-61450619D01*
X170040428Y-61450619D02*
X170078523Y-61526809D01*
X170078523Y-61526809D02*
X170154713Y-61603000D01*
X170154713Y-61603000D02*
X170268999Y-61641095D01*
X170268999Y-61641095D02*
X170459475Y-61641095D01*
D10*
X168520904Y-84338319D02*
X168520904Y-83338319D01*
X168520904Y-83338319D02*
X168139952Y-83338319D01*
X168139952Y-83338319D02*
X168044714Y-83385938D01*
X168044714Y-83385938D02*
X167997095Y-83433557D01*
X167997095Y-83433557D02*
X167949476Y-83528795D01*
X167949476Y-83528795D02*
X167949476Y-83671652D01*
X167949476Y-83671652D02*
X167997095Y-83766890D01*
X167997095Y-83766890D02*
X168044714Y-83814509D01*
X168044714Y-83814509D02*
X168139952Y-83862128D01*
X168139952Y-83862128D02*
X168520904Y-83862128D01*
X166949476Y-84243080D02*
X166997095Y-84290700D01*
X166997095Y-84290700D02*
X167139952Y-84338319D01*
X167139952Y-84338319D02*
X167235190Y-84338319D01*
X167235190Y-84338319D02*
X167378047Y-84290700D01*
X167378047Y-84290700D02*
X167473285Y-84195461D01*
X167473285Y-84195461D02*
X167520904Y-84100223D01*
X167520904Y-84100223D02*
X167568523Y-83909747D01*
X167568523Y-83909747D02*
X167568523Y-83766890D01*
X167568523Y-83766890D02*
X167520904Y-83576414D01*
X167520904Y-83576414D02*
X167473285Y-83481176D01*
X167473285Y-83481176D02*
X167378047Y-83385938D01*
X167378047Y-83385938D02*
X167235190Y-83338319D01*
X167235190Y-83338319D02*
X167139952Y-83338319D01*
X167139952Y-83338319D02*
X166997095Y-83385938D01*
X166997095Y-83385938D02*
X166949476Y-83433557D01*
X166187571Y-83814509D02*
X166044714Y-83862128D01*
X166044714Y-83862128D02*
X165997095Y-83909747D01*
X165997095Y-83909747D02*
X165949476Y-84004985D01*
X165949476Y-84004985D02*
X165949476Y-84147842D01*
X165949476Y-84147842D02*
X165997095Y-84243080D01*
X165997095Y-84243080D02*
X166044714Y-84290700D01*
X166044714Y-84290700D02*
X166139952Y-84338319D01*
X166139952Y-84338319D02*
X166520904Y-84338319D01*
X166520904Y-84338319D02*
X166520904Y-83338319D01*
X166520904Y-83338319D02*
X166187571Y-83338319D01*
X166187571Y-83338319D02*
X166092333Y-83385938D01*
X166092333Y-83385938D02*
X166044714Y-83433557D01*
X166044714Y-83433557D02*
X165997095Y-83528795D01*
X165997095Y-83528795D02*
X165997095Y-83624033D01*
X165997095Y-83624033D02*
X166044714Y-83719271D01*
X166044714Y-83719271D02*
X166092333Y-83766890D01*
X166092333Y-83766890D02*
X166187571Y-83814509D01*
X166187571Y-83814509D02*
X166520904Y-83814509D01*
D11*
X166941381Y-61603000D02*
X166827095Y-61641095D01*
X166827095Y-61641095D02*
X166636619Y-61641095D01*
X166636619Y-61641095D02*
X166560428Y-61603000D01*
X166560428Y-61603000D02*
X166522333Y-61564904D01*
X166522333Y-61564904D02*
X166484238Y-61488714D01*
X166484238Y-61488714D02*
X166484238Y-61412523D01*
X166484238Y-61412523D02*
X166522333Y-61336333D01*
X166522333Y-61336333D02*
X166560428Y-61298238D01*
X166560428Y-61298238D02*
X166636619Y-61260142D01*
X166636619Y-61260142D02*
X166789000Y-61222047D01*
X166789000Y-61222047D02*
X166865190Y-61183952D01*
X166865190Y-61183952D02*
X166903285Y-61145857D01*
X166903285Y-61145857D02*
X166941381Y-61069666D01*
X166941381Y-61069666D02*
X166941381Y-60993476D01*
X166941381Y-60993476D02*
X166903285Y-60917285D01*
X166903285Y-60917285D02*
X166865190Y-60879190D01*
X166865190Y-60879190D02*
X166789000Y-60841095D01*
X166789000Y-60841095D02*
X166598523Y-60841095D01*
X166598523Y-60841095D02*
X166484238Y-60879190D01*
X165684237Y-61564904D02*
X165722333Y-61603000D01*
X165722333Y-61603000D02*
X165836618Y-61641095D01*
X165836618Y-61641095D02*
X165912809Y-61641095D01*
X165912809Y-61641095D02*
X166027095Y-61603000D01*
X166027095Y-61603000D02*
X166103285Y-61526809D01*
X166103285Y-61526809D02*
X166141380Y-61450619D01*
X166141380Y-61450619D02*
X166179476Y-61298238D01*
X166179476Y-61298238D02*
X166179476Y-61183952D01*
X166179476Y-61183952D02*
X166141380Y-61031571D01*
X166141380Y-61031571D02*
X166103285Y-60955380D01*
X166103285Y-60955380D02*
X166027095Y-60879190D01*
X166027095Y-60879190D02*
X165912809Y-60841095D01*
X165912809Y-60841095D02*
X165836618Y-60841095D01*
X165836618Y-60841095D02*
X165722333Y-60879190D01*
X165722333Y-60879190D02*
X165684237Y-60917285D01*
X164960428Y-61641095D02*
X165341380Y-61641095D01*
X165341380Y-61641095D02*
X165341380Y-60841095D01*
D12*
X182868000Y-92995500D02*
X182868000Y-96615500D01*
X182868000Y-96615500D02*
X188988000Y-96615500D01*
X188988000Y-92995500D02*
X182868000Y-92995500D01*
X188988000Y-96615500D02*
X188988000Y-92995500D01*
X170930000Y-92995500D02*
X170930000Y-96615500D01*
X170930000Y-96615500D02*
X177050000Y-96615500D01*
X177050000Y-92995500D02*
X170930000Y-92995500D01*
X177050000Y-96615500D02*
X177050000Y-92995500D01*
X158992000Y-92995500D02*
X158992000Y-96615500D01*
X158992000Y-96615500D02*
X165112000Y-96615500D01*
X165112000Y-92995500D02*
X158992000Y-92995500D01*
X165112000Y-96615500D02*
X165112000Y-92995500D01*
X147054000Y-92995500D02*
X147054000Y-96615500D01*
X147054000Y-96615500D02*
X153174000Y-96615500D01*
X153174000Y-92995500D02*
X147054000Y-92995500D01*
X153174000Y-96615500D02*
X153174000Y-92995500D01*
D10*
X180975000Y-85915500D02*
X180975000Y-57975500D01*
X180975000Y-57975500D02*
X153543000Y-57975500D01*
X180467000Y-81597500D02*
X154051000Y-81597500D01*
X180467000Y-62293500D02*
X180467000Y-81597500D01*
X180467000Y-62293500D02*
X154051000Y-62293500D01*
X177927000Y-75247500D02*
X156591000Y-75247500D01*
X177927000Y-64325500D02*
X177927000Y-75247500D01*
X156591000Y-75247500D02*
X156591000Y-64325500D01*
X156591000Y-64325500D02*
X177927000Y-64325500D01*
X154051000Y-81597500D02*
X154051000Y-62293500D01*
X153543000Y-85915500D02*
X180975000Y-85915500D01*
X153543000Y-57975500D02*
X153543000Y-85915500D01*
M02*
