G04 #@! TF.GenerationSoftware,KiCad,Pcbnew,7.0.8*
G04 #@! TF.CreationDate,2024-03-28T15:32:18+01:00*
G04 #@! TF.ProjectId,Prozessorplatine,50726f7a-6573-4736-9f72-706c6174696e,rev?*
G04 #@! TF.SameCoordinates,Original*
G04 #@! TF.FileFunction,Copper,L2,Bot*
G04 #@! TF.FilePolarity,Positive*
%FSLAX46Y46*%
G04 Gerber Fmt 4.6, Leading zero omitted, Abs format (unit mm)*
G04 Created by KiCad (PCBNEW 7.0.8) date 2024-03-28 15:32:18*
%MOMM*%
%LPD*%
G01*
G04 APERTURE LIST*
G04 Aperture macros list*
%AMRoundRect*
0 Rectangle with rounded corners*
0 $1 Rounding radius*
0 $2 $3 $4 $5 $6 $7 $8 $9 X,Y pos of 4 corners*
0 Add a 4 corners polygon primitive as box body*
4,1,4,$2,$3,$4,$5,$6,$7,$8,$9,$2,$3,0*
0 Add four circle primitives for the rounded corners*
1,1,$1+$1,$2,$3*
1,1,$1+$1,$4,$5*
1,1,$1+$1,$6,$7*
1,1,$1+$1,$8,$9*
0 Add four rect primitives between the rounded corners*
20,1,$1+$1,$2,$3,$4,$5,0*
20,1,$1+$1,$4,$5,$6,$7,0*
20,1,$1+$1,$6,$7,$8,$9,0*
20,1,$1+$1,$8,$9,$2,$3,0*%
G04 Aperture macros list end*
G04 #@! TA.AperFunction,ComponentPad*
%ADD10RoundRect,0.250000X-0.725000X0.600000X-0.725000X-0.600000X0.725000X-0.600000X0.725000X0.600000X0*%
G04 #@! TD*
G04 #@! TA.AperFunction,ComponentPad*
%ADD11O,1.950000X1.700000*%
G04 #@! TD*
G04 #@! TA.AperFunction,ComponentPad*
%ADD12RoundRect,0.250000X-0.600000X-0.725000X0.600000X-0.725000X0.600000X0.725000X-0.600000X0.725000X0*%
G04 #@! TD*
G04 #@! TA.AperFunction,ComponentPad*
%ADD13O,1.700000X1.950000*%
G04 #@! TD*
G04 #@! TA.AperFunction,ComponentPad*
%ADD14R,1.600000X1.600000*%
G04 #@! TD*
G04 #@! TA.AperFunction,ComponentPad*
%ADD15O,1.600000X1.600000*%
G04 #@! TD*
G04 #@! TA.AperFunction,ComponentPad*
%ADD16C,1.600000*%
G04 #@! TD*
G04 #@! TA.AperFunction,ComponentPad*
%ADD17RoundRect,0.250000X0.600000X0.750000X-0.600000X0.750000X-0.600000X-0.750000X0.600000X-0.750000X0*%
G04 #@! TD*
G04 #@! TA.AperFunction,ComponentPad*
%ADD18O,1.700000X2.000000*%
G04 #@! TD*
G04 #@! TA.AperFunction,ComponentPad*
%ADD19RoundRect,0.250000X-0.600000X-0.750000X0.600000X-0.750000X0.600000X0.750000X-0.600000X0.750000X0*%
G04 #@! TD*
G04 #@! TA.AperFunction,ComponentPad*
%ADD20RoundRect,0.250000X0.750000X-0.600000X0.750000X0.600000X-0.750000X0.600000X-0.750000X-0.600000X0*%
G04 #@! TD*
G04 #@! TA.AperFunction,ComponentPad*
%ADD21O,2.000000X1.700000*%
G04 #@! TD*
G04 #@! TA.AperFunction,SMDPad,CuDef*
%ADD22R,2.180000X1.600000*%
G04 #@! TD*
G04 #@! TA.AperFunction,ComponentPad*
%ADD23C,1.524000*%
G04 #@! TD*
G04 #@! TA.AperFunction,ViaPad*
%ADD24C,0.800000*%
G04 #@! TD*
G04 #@! TA.AperFunction,Conductor*
%ADD25C,1.000000*%
G04 #@! TD*
G04 #@! TA.AperFunction,Conductor*
%ADD26C,0.500000*%
G04 #@! TD*
G04 #@! TA.AperFunction,Conductor*
%ADD27C,0.250000*%
G04 #@! TD*
G04 APERTURE END LIST*
D10*
X232156000Y-67818000D03*
D11*
X232156000Y-70318000D03*
X232156000Y-72818000D03*
X232156000Y-75318000D03*
X232156000Y-77818000D03*
X232156000Y-80318000D03*
X232156000Y-82818000D03*
X232156000Y-85318000D03*
D12*
X189039500Y-71374000D03*
D13*
X191539500Y-71374000D03*
X194039500Y-71374000D03*
D14*
X181483000Y-63627000D03*
D15*
X178943000Y-63627000D03*
X176403000Y-63627000D03*
X173863000Y-63627000D03*
X171323000Y-63627000D03*
X168783000Y-63627000D03*
X166243000Y-63627000D03*
X163703000Y-63627000D03*
X161163000Y-63627000D03*
X158623000Y-63627000D03*
X156083000Y-63627000D03*
X153543000Y-63627000D03*
X151003000Y-63627000D03*
X148463000Y-63627000D03*
X145923000Y-63627000D03*
X145923000Y-78867000D03*
X148463000Y-78867000D03*
X151003000Y-78867000D03*
X153543000Y-78867000D03*
X156083000Y-78867000D03*
X158623000Y-78867000D03*
X161163000Y-78867000D03*
X163703000Y-78867000D03*
X166243000Y-78867000D03*
X168783000Y-78867000D03*
X171323000Y-78867000D03*
X173863000Y-78867000D03*
X176403000Y-78867000D03*
X178943000Y-78867000D03*
X181483000Y-78867000D03*
D10*
X189865000Y-58102500D03*
D11*
X189865000Y-60602500D03*
X189865000Y-63102500D03*
X189865000Y-65602500D03*
D14*
X199326500Y-60579000D03*
D16*
X199326500Y-57079000D03*
D17*
X194056000Y-98933000D03*
D18*
X191556000Y-98933000D03*
D19*
X190800000Y-77500000D03*
D18*
X193300000Y-77500000D03*
D20*
X178800000Y-87300000D03*
D21*
X178800000Y-84800000D03*
D19*
X187400000Y-85600000D03*
D18*
X189900000Y-85600000D03*
D22*
X181338000Y-94805500D03*
X190518000Y-94805500D03*
X169400000Y-94805500D03*
X178580000Y-94805500D03*
X157462000Y-94805500D03*
X166642000Y-94805500D03*
X145524000Y-94805500D03*
X154704000Y-94805500D03*
D23*
X171069000Y-59499500D03*
X168529000Y-59499500D03*
X165989000Y-59499500D03*
X163449000Y-59499500D03*
D24*
X218059000Y-58547000D03*
X219147000Y-58547000D03*
X216535000Y-58547000D03*
X215519000Y-58547000D03*
X218059000Y-82042000D03*
X215519000Y-82042000D03*
X219147000Y-82042000D03*
X216535000Y-82042000D03*
X165036500Y-97790000D03*
X219147000Y-70231000D03*
X199390000Y-68135500D03*
X216535000Y-70231000D03*
X189484000Y-97853500D03*
X167513000Y-86741000D03*
X170624500Y-86804500D03*
X218059000Y-70231000D03*
X199390000Y-93091000D03*
X177165000Y-97790000D03*
X199390000Y-80772000D03*
X218059000Y-93853000D03*
X170624500Y-82804000D03*
X167513000Y-82804000D03*
X219147000Y-93853000D03*
X215519000Y-93853000D03*
X159258000Y-58102500D03*
X216535000Y-93853000D03*
X215519000Y-70231000D03*
X153162000Y-97790000D03*
X226441000Y-68326000D03*
X191564000Y-91564000D03*
X164782500Y-90932000D03*
X223266000Y-89090500D03*
X226420000Y-55647000D03*
X226441000Y-78740000D03*
X164179250Y-90328750D03*
X181338000Y-97772000D03*
X169400000Y-97772000D03*
X157480000Y-97790000D03*
X145542000Y-97790000D03*
X185801000Y-66040000D03*
X185801000Y-63817500D03*
X157162500Y-87566500D03*
X157162500Y-88836500D03*
X201803000Y-61976000D03*
X214122000Y-61976000D03*
X201803000Y-73660000D03*
X213868000Y-73660000D03*
X201803000Y-85217000D03*
X214630000Y-85217000D03*
X213868000Y-97790000D03*
X201803000Y-97790000D03*
X195199000Y-89699000D03*
X167449500Y-67437000D03*
X152019000Y-88201500D03*
X195389500Y-56515000D03*
X202300000Y-96000000D03*
X145923000Y-71945500D03*
D25*
X164782500Y-90932000D02*
X164687250Y-90836750D01*
X182228250Y-91471750D02*
X184571750Y-91471750D01*
X223266000Y-81915000D02*
X226441000Y-78740000D01*
X191600000Y-91528000D02*
X191564000Y-91564000D01*
X226420000Y-78719000D02*
X226441000Y-78740000D01*
X184571750Y-91471750D02*
X191471750Y-91471750D01*
X164782500Y-90932000D02*
X165322250Y-91471750D01*
X226420000Y-55647000D02*
X226420000Y-78719000D01*
X165322250Y-91471750D02*
X182228250Y-91471750D01*
X223266000Y-89090500D02*
X223266000Y-81915000D01*
X164179250Y-90328750D02*
X164687250Y-90836750D01*
X191471750Y-91471750D02*
X191564000Y-91564000D01*
D26*
X187325000Y-59690000D02*
X187325000Y-58991500D01*
X187325000Y-68834000D02*
X179768500Y-76390500D01*
X186055000Y-57086500D02*
X186848750Y-57880250D01*
X169227500Y-57086500D02*
X168529000Y-57785000D01*
X189865000Y-58102500D02*
X187071000Y-58102500D01*
X179768500Y-76390500D02*
X174879000Y-76390500D01*
X187325000Y-58356500D02*
X187325000Y-59690000D01*
X186848750Y-57880250D02*
X187325000Y-58356500D01*
X187071000Y-58102500D02*
X186848750Y-57880250D01*
X183642000Y-57086500D02*
X186055000Y-57086500D01*
X168529000Y-57785000D02*
X168529000Y-59499500D01*
X173863000Y-77406500D02*
X173863000Y-78867000D01*
X174879000Y-76390500D02*
X173863000Y-77406500D01*
X187325000Y-59690000D02*
X187325000Y-68834000D01*
X183642000Y-57086500D02*
X169227500Y-57086500D01*
D27*
X181338000Y-94805500D02*
X181338000Y-97772000D01*
X150304500Y-89027000D02*
X150304500Y-81343500D01*
X151193500Y-89916000D02*
X150304500Y-89027000D01*
X170561000Y-66103500D02*
X171323000Y-65341500D01*
X159829500Y-66103500D02*
X170561000Y-66103500D01*
X181338000Y-93771500D02*
X180086000Y-92519500D01*
X157797500Y-89916000D02*
X151193500Y-89916000D01*
X171323000Y-65341500D02*
X171323000Y-63627000D01*
X180086000Y-92519500D02*
X160401000Y-92519500D01*
X150304500Y-81343500D02*
X149733000Y-80772000D01*
X156781500Y-69151500D02*
X159829500Y-66103500D01*
X149733000Y-80772000D02*
X149733000Y-71628000D01*
X149733000Y-71628000D02*
X152209500Y-69151500D01*
X181338000Y-94805500D02*
X181338000Y-93771500D01*
X160401000Y-92519500D02*
X157797500Y-89916000D01*
X152209500Y-69151500D02*
X156781500Y-69151500D01*
X157543500Y-91122500D02*
X150050500Y-91122500D01*
X150050500Y-91122500D02*
X149161500Y-90233500D01*
X149161500Y-82423000D02*
X147193000Y-80454500D01*
X169400000Y-94805500D02*
X169400000Y-93708000D01*
X169400000Y-94805500D02*
X169400000Y-97772000D01*
X149161500Y-90233500D02*
X149161500Y-82423000D01*
X147193000Y-71564500D02*
X150876000Y-67881500D01*
X159702500Y-93281500D02*
X157543500Y-91122500D01*
X150876000Y-67881500D02*
X156210000Y-67881500D01*
X169400000Y-93708000D02*
X168973500Y-93281500D01*
X156210000Y-67881500D02*
X158623000Y-65468500D01*
X147193000Y-80454500D02*
X147193000Y-71564500D01*
X168973500Y-93281500D02*
X159702500Y-93281500D01*
X158623000Y-65468500D02*
X158623000Y-63627000D01*
X156083000Y-65341500D02*
X156083000Y-63627000D01*
X144272000Y-89979500D02*
X144272000Y-71501000D01*
X157480000Y-94823500D02*
X157462000Y-94805500D01*
X146621500Y-92329000D02*
X144272000Y-89979500D01*
X149034500Y-66738500D02*
X154686000Y-66738500D01*
X157462000Y-93517500D02*
X156273500Y-92329000D01*
X154686000Y-66738500D02*
X156083000Y-65341500D01*
X156273500Y-92329000D02*
X146621500Y-92329000D01*
X157480000Y-97790000D02*
X157480000Y-94823500D01*
X144272000Y-71501000D02*
X149034500Y-66738500D01*
X157462000Y-94805500D02*
X157462000Y-93517500D01*
X143573500Y-92855000D02*
X143573500Y-70485000D01*
X148272500Y-65786000D02*
X143573500Y-70485000D01*
X145524000Y-94805500D02*
X143573500Y-92855000D01*
X145542000Y-97790000D02*
X145542000Y-94823500D01*
X151003000Y-65278000D02*
X151003000Y-63627000D01*
X148272500Y-65786000D02*
X150495000Y-65786000D01*
X145542000Y-94823500D02*
X145524000Y-94805500D01*
X150495000Y-65786000D02*
X151003000Y-65278000D01*
X166243000Y-77406500D02*
X166243000Y-78867000D01*
X185801000Y-68262500D02*
X179260500Y-74803000D01*
X167576500Y-74803000D02*
X166243000Y-76136500D01*
X185801000Y-66040000D02*
X185801000Y-68262500D01*
X166243000Y-76136500D02*
X166243000Y-77406500D01*
X179260500Y-74803000D02*
X167576500Y-74803000D01*
X163703000Y-75184000D02*
X163703000Y-78867000D01*
X165163500Y-73723500D02*
X163703000Y-75184000D01*
X184086500Y-66040000D02*
X184086500Y-68072000D01*
X184086500Y-66040000D02*
X184086500Y-64770000D01*
X184086500Y-64770000D02*
X185039000Y-63817500D01*
X185039000Y-63817500D02*
X185801000Y-63817500D01*
X178435000Y-73723500D02*
X165163500Y-73723500D01*
X184086500Y-68072000D02*
X178435000Y-73723500D01*
X159800000Y-80700000D02*
X182190000Y-80700000D01*
X191539500Y-67794500D02*
X192659000Y-66675000D01*
X188595000Y-74295000D02*
X190246000Y-74295000D01*
X157162500Y-83337500D02*
X159800000Y-80700000D01*
X192659000Y-63881000D02*
X191880500Y-63102500D01*
X191539500Y-71374000D02*
X191539500Y-67794500D01*
X191880500Y-63102500D02*
X189865000Y-63102500D01*
X192659000Y-66675000D02*
X192659000Y-63881000D01*
X190246000Y-74295000D02*
X191539500Y-73001500D01*
X191539500Y-73001500D02*
X191539500Y-71374000D01*
X182190000Y-80700000D02*
X188595000Y-74295000D01*
X157162500Y-87566500D02*
X157162500Y-83337500D01*
X183376000Y-81800000D02*
X189357000Y-75819000D01*
X192278000Y-75819000D02*
X194039500Y-74057500D01*
X158700000Y-83500000D02*
X160400000Y-81800000D01*
X158700000Y-88200000D02*
X158700000Y-83500000D01*
X194039500Y-74057500D02*
X194039500Y-71374000D01*
X194039500Y-62658000D02*
X194039500Y-71374000D01*
X157162500Y-88836500D02*
X158063500Y-88836500D01*
X189357000Y-75819000D02*
X192278000Y-75819000D01*
X158063500Y-88836500D02*
X158700000Y-88200000D01*
X191984000Y-60602500D02*
X194039500Y-62658000D01*
X189865000Y-60602500D02*
X191984000Y-60602500D01*
X160400000Y-81800000D02*
X183376000Y-81800000D01*
X214122000Y-61976000D02*
X201803000Y-61976000D01*
X213868000Y-73660000D02*
X201803000Y-73660000D01*
X214630000Y-85217000D02*
X201803000Y-85217000D01*
X195199000Y-89699000D02*
X195199000Y-91694000D01*
X197167500Y-97091500D02*
X197866000Y-97790000D01*
X197866000Y-97790000D02*
X201803000Y-97790000D01*
X197167500Y-93662500D02*
X197167500Y-97091500D01*
X195199000Y-91694000D02*
X197167500Y-93662500D01*
X213868000Y-97790000D02*
X201803000Y-97790000D01*
X160528000Y-67437000D02*
X167449500Y-67437000D01*
X157480000Y-70485000D02*
X160528000Y-67437000D01*
X152273000Y-87947500D02*
X152273000Y-71437500D01*
X152273000Y-71437500D02*
X153225500Y-70485000D01*
X152019000Y-88201500D02*
X152273000Y-87947500D01*
X153225500Y-70485000D02*
X157480000Y-70485000D01*
X197421500Y-61087000D02*
X195389500Y-59055000D01*
X202300000Y-96000000D02*
X202100000Y-95800000D01*
X197421500Y-88421500D02*
X197421500Y-61087000D01*
X202100000Y-95800000D02*
X202100000Y-93100000D01*
X195389500Y-59055000D02*
X195389500Y-56515000D01*
X202100000Y-93100000D02*
X197421500Y-88421500D01*
X145923000Y-78867000D02*
X145923000Y-71945500D01*
G04 #@! TA.AperFunction,Conductor*
G36*
X188370598Y-58881002D02*
G01*
X188417091Y-58934658D01*
X188422079Y-58947360D01*
X188435220Y-58987016D01*
X188447885Y-59025238D01*
X188540970Y-59176152D01*
X188540975Y-59176158D01*
X188666341Y-59301524D01*
X188666347Y-59301529D01*
X188666348Y-59301530D01*
X188811014Y-59390761D01*
X188812306Y-59391558D01*
X188859784Y-59444344D01*
X188871187Y-59514419D01*
X188842894Y-59579535D01*
X188833344Y-59589765D01*
X188716521Y-59701730D01*
X188579013Y-59887654D01*
X188474903Y-60094147D01*
X188443871Y-60195479D01*
X188407189Y-60315257D01*
X188381704Y-60514277D01*
X188377815Y-60544644D01*
X188387630Y-60775678D01*
X188436351Y-61001740D01*
X188522575Y-61216315D01*
X188522577Y-61216319D01*
X188620165Y-61374811D01*
X188643821Y-61413230D01*
X188796602Y-61586824D01*
X188976524Y-61732100D01*
X188997733Y-61743948D01*
X189047446Y-61794629D01*
X189061869Y-61864145D01*
X189036418Y-61930423D01*
X189006839Y-61958338D01*
X188883478Y-62041716D01*
X188883477Y-62041717D01*
X188716521Y-62201730D01*
X188579013Y-62387654D01*
X188474903Y-62594147D01*
X188434157Y-62727197D01*
X188407189Y-62815257D01*
X188380154Y-63026382D01*
X188377815Y-63044644D01*
X188387630Y-63275678D01*
X188436351Y-63501740D01*
X188522575Y-63716315D01*
X188522577Y-63716319D01*
X188608020Y-63855086D01*
X188643821Y-63913230D01*
X188796602Y-64086824D01*
X188976524Y-64232100D01*
X188998222Y-64244221D01*
X189047935Y-64294901D01*
X189062358Y-64364418D01*
X189036907Y-64430696D01*
X189007328Y-64458611D01*
X188883794Y-64542106D01*
X188883786Y-64542112D01*
X188716903Y-64702056D01*
X188716897Y-64702064D01*
X188579443Y-64887913D01*
X188475369Y-65094334D01*
X188407679Y-65315364D01*
X188403437Y-65348500D01*
X189463602Y-65348500D01*
X189428481Y-65403149D01*
X189390000Y-65534205D01*
X189390000Y-65670795D01*
X189428481Y-65801851D01*
X189463602Y-65856500D01*
X188405561Y-65856500D01*
X188436831Y-66001593D01*
X188523022Y-66216087D01*
X188644227Y-66412935D01*
X188796951Y-66586461D01*
X188796954Y-66586464D01*
X188976800Y-66731680D01*
X189178617Y-66844422D01*
X189396570Y-66921431D01*
X189611000Y-66958198D01*
X189611000Y-66008691D01*
X189729801Y-66062946D01*
X189831025Y-66077500D01*
X189898975Y-66077500D01*
X190000199Y-66062946D01*
X190119000Y-66008691D01*
X190119000Y-66954430D01*
X190220331Y-66945805D01*
X190220338Y-66945804D01*
X190444033Y-66887559D01*
X190654678Y-66792342D01*
X190654684Y-66792339D01*
X190846205Y-66662893D01*
X190846213Y-66662887D01*
X191013096Y-66502943D01*
X191013102Y-66502935D01*
X191150556Y-66317086D01*
X191254630Y-66110665D01*
X191322320Y-65889635D01*
X191326563Y-65856500D01*
X190266398Y-65856500D01*
X190301519Y-65801851D01*
X190340000Y-65670795D01*
X190340000Y-65534205D01*
X190301519Y-65403149D01*
X190266398Y-65348500D01*
X191324439Y-65348500D01*
X191293168Y-65203406D01*
X191206977Y-64988912D01*
X191085772Y-64792064D01*
X190933048Y-64618538D01*
X190933045Y-64618535D01*
X190753197Y-64473317D01*
X190753192Y-64473314D01*
X190731801Y-64461364D01*
X190682087Y-64410679D01*
X190667667Y-64341162D01*
X190693120Y-64274885D01*
X190722690Y-64246979D01*
X190846523Y-64163283D01*
X191013476Y-64003272D01*
X191150985Y-63817347D01*
X191157073Y-63805271D01*
X191205603Y-63753451D01*
X191269581Y-63736000D01*
X191565906Y-63736000D01*
X191634027Y-63756002D01*
X191655001Y-63772905D01*
X191988595Y-64106499D01*
X192022621Y-64168811D01*
X192025500Y-64195594D01*
X192025500Y-66360403D01*
X192005498Y-66428524D01*
X191988595Y-66449499D01*
X191150833Y-67287260D01*
X191138401Y-67297221D01*
X191138589Y-67297448D01*
X191132480Y-67302501D01*
X191084515Y-67353579D01*
X191063366Y-67374727D01*
X191059060Y-67380277D01*
X191055214Y-67384779D01*
X191022917Y-67419174D01*
X191022911Y-67419183D01*
X191013151Y-67436935D01*
X191002303Y-67453450D01*
X190989886Y-67469458D01*
X190971145Y-67512764D01*
X190968534Y-67518094D01*
X190945805Y-67559439D01*
X190945803Y-67559444D01*
X190940767Y-67579059D01*
X190934364Y-67597762D01*
X190926319Y-67616352D01*
X190918937Y-67662956D01*
X190917733Y-67668768D01*
X190906000Y-67714468D01*
X190906000Y-67734723D01*
X190904449Y-67754433D01*
X190901280Y-67774442D01*
X190901280Y-67774443D01*
X190905720Y-67821417D01*
X190906000Y-67827350D01*
X190906000Y-69973307D01*
X190885998Y-70041428D01*
X190846064Y-70080599D01*
X190728770Y-70152820D01*
X190555178Y-70305599D01*
X190532700Y-70333438D01*
X190474342Y-70373872D01*
X190403388Y-70376337D01*
X190342365Y-70340050D01*
X190327427Y-70320427D01*
X190238136Y-70175663D01*
X190238129Y-70175654D01*
X190112845Y-70050370D01*
X190112839Y-70050365D01*
X189962025Y-69957342D01*
X189793821Y-69901606D01*
X189793818Y-69901605D01*
X189690016Y-69891000D01*
X189293500Y-69891000D01*
X189293500Y-70967808D01*
X189174699Y-70913554D01*
X189073475Y-70899000D01*
X189005525Y-70899000D01*
X188904301Y-70913554D01*
X188785500Y-70967808D01*
X188785500Y-69891000D01*
X188388983Y-69891000D01*
X188285181Y-69901605D01*
X188285178Y-69901606D01*
X188116974Y-69957342D01*
X187966160Y-70050365D01*
X187966154Y-70050370D01*
X187840870Y-70175654D01*
X187840865Y-70175660D01*
X187747842Y-70326474D01*
X187692106Y-70494678D01*
X187692105Y-70494681D01*
X187681500Y-70598483D01*
X187681500Y-71120000D01*
X188638102Y-71120000D01*
X188602981Y-71174649D01*
X188564500Y-71305705D01*
X188564500Y-71442295D01*
X188602981Y-71573351D01*
X188638102Y-71628000D01*
X187681500Y-71628000D01*
X187681500Y-72149516D01*
X187692105Y-72253318D01*
X187692106Y-72253321D01*
X187747842Y-72421525D01*
X187840865Y-72572339D01*
X187840870Y-72572345D01*
X187966154Y-72697629D01*
X187966160Y-72697634D01*
X188116974Y-72790657D01*
X188285178Y-72846393D01*
X188285181Y-72846394D01*
X188388983Y-72856999D01*
X188388983Y-72857000D01*
X188785500Y-72857000D01*
X188785500Y-71780191D01*
X188904301Y-71834446D01*
X189005525Y-71849000D01*
X189073475Y-71849000D01*
X189174699Y-71834446D01*
X189293500Y-71780191D01*
X189293500Y-72857000D01*
X189690017Y-72857000D01*
X189690016Y-72856999D01*
X189793818Y-72846394D01*
X189793821Y-72846393D01*
X189962025Y-72790657D01*
X190112839Y-72697634D01*
X190112845Y-72697629D01*
X190238129Y-72572345D01*
X190238134Y-72572339D01*
X190328200Y-72426319D01*
X190380986Y-72378841D01*
X190451060Y-72367438D01*
X190516176Y-72395730D01*
X190526398Y-72405273D01*
X190600358Y-72482441D01*
X190638730Y-72522478D01*
X190710910Y-72575861D01*
X190799295Y-72641230D01*
X190842170Y-72697817D01*
X190847645Y-72768602D01*
X190813981Y-72831111D01*
X190813467Y-72831628D01*
X190020498Y-73624596D01*
X189958188Y-73658620D01*
X189931405Y-73661500D01*
X188678853Y-73661500D01*
X188663011Y-73659750D01*
X188662984Y-73660044D01*
X188655091Y-73659297D01*
X188585028Y-73661500D01*
X188555144Y-73661500D01*
X188555140Y-73661500D01*
X188555129Y-73661501D01*
X188548190Y-73662377D01*
X188542277Y-73662843D01*
X188495114Y-73664325D01*
X188495107Y-73664327D01*
X188475649Y-73669979D01*
X188456304Y-73673985D01*
X188436206Y-73676525D01*
X188436197Y-73676527D01*
X188392331Y-73693894D01*
X188386716Y-73695817D01*
X188341408Y-73708981D01*
X188323964Y-73719297D01*
X188306218Y-73727990D01*
X188287382Y-73735448D01*
X188249209Y-73763181D01*
X188244248Y-73766440D01*
X188203638Y-73790458D01*
X188189311Y-73804784D01*
X188174285Y-73817617D01*
X188157895Y-73829525D01*
X188157893Y-73829527D01*
X188127808Y-73865892D01*
X188123812Y-73870283D01*
X183009588Y-78984505D01*
X182947276Y-79018531D01*
X182876461Y-79013466D01*
X182819625Y-78970919D01*
X182794814Y-78904399D01*
X182794972Y-78884431D01*
X182796498Y-78867000D01*
X182776543Y-78638913D01*
X182717284Y-78417757D01*
X182620523Y-78210251D01*
X182489198Y-78022700D01*
X182327300Y-77860802D01*
X182327291Y-77860796D01*
X182139749Y-77729477D01*
X181932246Y-77632717D01*
X181932240Y-77632715D01*
X181774225Y-77590375D01*
X181711087Y-77573457D01*
X181483000Y-77553502D01*
X181254913Y-77573457D01*
X181033759Y-77632715D01*
X181033753Y-77632717D01*
X180826250Y-77729477D01*
X180638703Y-77860799D01*
X180638697Y-77860804D01*
X180476804Y-78022697D01*
X180476799Y-78022703D01*
X180345475Y-78210252D01*
X180326918Y-78250049D01*
X180280001Y-78303333D01*
X180211724Y-78322794D01*
X180143764Y-78302252D01*
X180098530Y-78250049D01*
X180080089Y-78210503D01*
X179948815Y-78023025D01*
X179948810Y-78023019D01*
X179786980Y-77861189D01*
X179786974Y-77861184D01*
X179599498Y-77729912D01*
X179392073Y-77633188D01*
X179392071Y-77633187D01*
X179197000Y-77580917D01*
X179197000Y-78555314D01*
X179181045Y-78539359D01*
X179068148Y-78481835D01*
X178974481Y-78467000D01*
X178911519Y-78467000D01*
X178817852Y-78481835D01*
X178704955Y-78539359D01*
X178689000Y-78555314D01*
X178689000Y-77580917D01*
X178688999Y-77580917D01*
X178493928Y-77633187D01*
X178493926Y-77633188D01*
X178286501Y-77729912D01*
X178099025Y-77861184D01*
X178099019Y-77861189D01*
X177937189Y-78023019D01*
X177937184Y-78023025D01*
X177805910Y-78210504D01*
X177787468Y-78250051D01*
X177740550Y-78303335D01*
X177672272Y-78322794D01*
X177604313Y-78302250D01*
X177559080Y-78250047D01*
X177543781Y-78217238D01*
X177540523Y-78210251D01*
X177409198Y-78022700D01*
X177247300Y-77860802D01*
X177247291Y-77860796D01*
X177059749Y-77729477D01*
X176852246Y-77632717D01*
X176852240Y-77632715D01*
X176694225Y-77590375D01*
X176631087Y-77573457D01*
X176403000Y-77553502D01*
X176174913Y-77573457D01*
X175953759Y-77632715D01*
X175953753Y-77632717D01*
X175746250Y-77729477D01*
X175558703Y-77860799D01*
X175558697Y-77860804D01*
X175396804Y-78022697D01*
X175396799Y-78022703D01*
X175265477Y-78210250D01*
X175247195Y-78249457D01*
X175200278Y-78302742D01*
X175132001Y-78322203D01*
X175064041Y-78301661D01*
X175018805Y-78249457D01*
X175003781Y-78217238D01*
X175000523Y-78210251D01*
X174869198Y-78022700D01*
X174707300Y-77860802D01*
X174707296Y-77860799D01*
X174707293Y-77860796D01*
X174697424Y-77853886D01*
X174653096Y-77798428D01*
X174645788Y-77727809D01*
X174677820Y-77664449D01*
X174680539Y-77661641D01*
X175156278Y-77185902D01*
X175218588Y-77151879D01*
X175245371Y-77149000D01*
X179704059Y-77149000D01*
X179722319Y-77150330D01*
X179727215Y-77151047D01*
X179746289Y-77153841D01*
X179779646Y-77150922D01*
X179798885Y-77149240D01*
X179804378Y-77149000D01*
X179812676Y-77149000D01*
X179812680Y-77149000D01*
X179839012Y-77145921D01*
X179845596Y-77145152D01*
X179852361Y-77144560D01*
X179922926Y-77138387D01*
X179922932Y-77138384D01*
X179930118Y-77136902D01*
X179930131Y-77136968D01*
X179937487Y-77135336D01*
X179937472Y-77135271D01*
X179944604Y-77133579D01*
X179944613Y-77133579D01*
X180017565Y-77107026D01*
X180091238Y-77082614D01*
X180091240Y-77082612D01*
X180097889Y-77079512D01*
X180097918Y-77079574D01*
X180104703Y-77076289D01*
X180104673Y-77076229D01*
X180111228Y-77072936D01*
X180111232Y-77072935D01*
X180176105Y-77030266D01*
X180242151Y-76989530D01*
X180242160Y-76989520D01*
X180247908Y-76984977D01*
X180247950Y-76985031D01*
X180253789Y-76980275D01*
X180253746Y-76980223D01*
X180259365Y-76975506D01*
X180259374Y-76975501D01*
X180312663Y-76919017D01*
X187815778Y-69415901D01*
X187829617Y-69403941D01*
X187849058Y-69389469D01*
X187883001Y-69349015D01*
X187886700Y-69344979D01*
X187892581Y-69339100D01*
X187902547Y-69326494D01*
X187913135Y-69313105D01*
X187960030Y-69257217D01*
X187963032Y-69253640D01*
X187963033Y-69253636D01*
X187963036Y-69253634D01*
X187967070Y-69247502D01*
X187967127Y-69247539D01*
X187971171Y-69241191D01*
X187971112Y-69241155D01*
X187974961Y-69234912D01*
X187974967Y-69234905D01*
X188007775Y-69164547D01*
X188042609Y-69095188D01*
X188042610Y-69095182D01*
X188045119Y-69088291D01*
X188045184Y-69088314D01*
X188047658Y-69081197D01*
X188047594Y-69081176D01*
X188049903Y-69074208D01*
X188065607Y-68998150D01*
X188071165Y-68974698D01*
X188083500Y-68922656D01*
X188083500Y-68922649D01*
X188084352Y-68915368D01*
X188084419Y-68915375D01*
X188085185Y-68907877D01*
X188085119Y-68907872D01*
X188085757Y-68900565D01*
X188085759Y-68900558D01*
X188083500Y-68822920D01*
X188083500Y-59645820D01*
X188083500Y-58987000D01*
X188103502Y-58918879D01*
X188157158Y-58872386D01*
X188209500Y-58861000D01*
X188302477Y-58861000D01*
X188370598Y-58881002D01*
G37*
G04 #@! TD.AperFunction*
G04 #@! TA.AperFunction,Conductor*
G36*
X236454121Y-54147502D02*
G01*
X236500614Y-54201158D01*
X236512000Y-54253500D01*
X236512000Y-101956500D01*
X236491998Y-102024621D01*
X236438342Y-102071114D01*
X236386000Y-102082500D01*
X142645500Y-102082500D01*
X142577379Y-102062498D01*
X142530886Y-102008842D01*
X142519500Y-101956500D01*
X142519500Y-99140713D01*
X190197500Y-99140713D01*
X190212198Y-99313417D01*
X190212199Y-99313421D01*
X190261636Y-99503282D01*
X190270470Y-99537207D01*
X190288458Y-99577000D01*
X190359223Y-99733553D01*
X190365722Y-99747929D01*
X190495217Y-99939523D01*
X190578480Y-100026398D01*
X190655230Y-100106478D01*
X190841154Y-100243986D01*
X190908841Y-100278112D01*
X191047643Y-100348095D01*
X191268757Y-100415811D01*
X191498135Y-100445184D01*
X191729178Y-100435369D01*
X191955238Y-100386649D01*
X192169813Y-100300426D01*
X192366730Y-100179179D01*
X192540324Y-100026398D01*
X192562464Y-99998977D01*
X192620818Y-99958542D01*
X192691771Y-99956074D01*
X192752796Y-99992358D01*
X192767735Y-100011981D01*
X192826021Y-100106476D01*
X192856970Y-100156652D01*
X192856975Y-100156658D01*
X192982341Y-100282024D01*
X192982347Y-100282029D01*
X192982348Y-100282030D01*
X193133262Y-100375115D01*
X193301574Y-100430887D01*
X193405455Y-100441500D01*
X194706544Y-100441499D01*
X194810426Y-100430887D01*
X194978738Y-100375115D01*
X195129652Y-100282030D01*
X195255030Y-100156652D01*
X195348115Y-100005738D01*
X195403887Y-99837426D01*
X195414500Y-99733545D01*
X195414499Y-98132456D01*
X195403887Y-98028574D01*
X195348115Y-97860262D01*
X195255030Y-97709348D01*
X195255029Y-97709347D01*
X195255024Y-97709341D01*
X195129658Y-97583975D01*
X195129652Y-97583970D01*
X195091724Y-97560576D01*
X194978738Y-97490885D01*
X194894582Y-97462999D01*
X194810427Y-97435113D01*
X194810420Y-97435112D01*
X194706553Y-97424500D01*
X193405455Y-97424500D01*
X193301574Y-97435112D01*
X193133261Y-97490885D01*
X192982347Y-97583970D01*
X192982341Y-97583975D01*
X192856975Y-97709341D01*
X192856968Y-97709349D01*
X192766940Y-97855307D01*
X192714154Y-97902784D01*
X192644079Y-97914187D01*
X192578964Y-97885894D01*
X192568738Y-97876348D01*
X192456772Y-97759524D01*
X192456771Y-97759523D01*
X192456769Y-97759521D01*
X192270845Y-97622013D01*
X192135470Y-97553759D01*
X192064357Y-97517905D01*
X192064354Y-97517904D01*
X192064352Y-97517903D01*
X191949940Y-97482865D01*
X191843243Y-97450189D01*
X191613865Y-97420816D01*
X191613861Y-97420816D01*
X191613853Y-97420815D01*
X191382821Y-97430630D01*
X191156759Y-97479351D01*
X190942184Y-97565575D01*
X190942180Y-97565577D01*
X190745272Y-97686819D01*
X190745268Y-97686822D01*
X190571676Y-97839601D01*
X190472906Y-97961927D01*
X190426400Y-98019524D01*
X190363313Y-98132455D01*
X190313619Y-98221410D01*
X190236582Y-98439442D01*
X190236582Y-98439443D01*
X190231537Y-98468866D01*
X190197500Y-98667375D01*
X190197500Y-98667378D01*
X190197500Y-99140713D01*
X142519500Y-99140713D01*
X142519500Y-70464943D01*
X142935280Y-70464943D01*
X142939720Y-70511917D01*
X142940000Y-70517850D01*
X142940000Y-92771146D01*
X142938251Y-92786988D01*
X142938544Y-92787016D01*
X142937798Y-92794907D01*
X142937798Y-92794909D01*
X142938255Y-92809436D01*
X142940000Y-92864957D01*
X142940000Y-92894851D01*
X142940001Y-92894872D01*
X142940878Y-92901820D01*
X142941344Y-92907732D01*
X142942826Y-92954888D01*
X142942827Y-92954893D01*
X142948477Y-92974339D01*
X142952486Y-92993697D01*
X142955025Y-93013793D01*
X142955026Y-93013799D01*
X142972393Y-93057662D01*
X142974316Y-93063279D01*
X142987482Y-93108593D01*
X142997794Y-93126031D01*
X143006488Y-93143779D01*
X143013944Y-93162609D01*
X143013950Y-93162620D01*
X143041677Y-93200783D01*
X143044937Y-93205746D01*
X143068960Y-93246365D01*
X143083279Y-93260684D01*
X143096117Y-93275714D01*
X143105656Y-93288843D01*
X143108028Y-93292107D01*
X143117957Y-93300321D01*
X143144386Y-93322185D01*
X143148767Y-93326171D01*
X143541435Y-93718839D01*
X143888595Y-94065999D01*
X143922621Y-94128311D01*
X143925500Y-94155094D01*
X143925500Y-95654149D01*
X143932009Y-95714696D01*
X143932011Y-95714704D01*
X143983110Y-95851702D01*
X143983112Y-95851707D01*
X144070738Y-95968761D01*
X144187792Y-96056387D01*
X144187794Y-96056388D01*
X144187796Y-96056389D01*
X144246875Y-96078424D01*
X144324795Y-96107488D01*
X144324803Y-96107490D01*
X144385350Y-96113999D01*
X144385355Y-96113999D01*
X144385362Y-96114000D01*
X144782500Y-96114000D01*
X144850621Y-96134002D01*
X144897114Y-96187658D01*
X144908500Y-96240000D01*
X144908500Y-97087474D01*
X144888498Y-97155595D01*
X144876137Y-97171784D01*
X144802957Y-97253059D01*
X144707476Y-97418438D01*
X144707473Y-97418444D01*
X144699739Y-97442246D01*
X144648457Y-97600072D01*
X144628496Y-97790000D01*
X144648457Y-97979927D01*
X144664264Y-98028574D01*
X144707473Y-98161556D01*
X144707476Y-98161561D01*
X144802958Y-98326941D01*
X144802965Y-98326951D01*
X144930744Y-98468864D01*
X144930747Y-98468866D01*
X145085248Y-98581118D01*
X145259712Y-98658794D01*
X145446513Y-98698500D01*
X145637487Y-98698500D01*
X145824288Y-98658794D01*
X145998752Y-98581118D01*
X146153253Y-98468866D01*
X146168282Y-98452175D01*
X146281034Y-98326951D01*
X146281035Y-98326949D01*
X146281040Y-98326944D01*
X146376527Y-98161556D01*
X146435542Y-97979928D01*
X146455504Y-97790000D01*
X146435542Y-97600072D01*
X146376527Y-97418444D01*
X146281040Y-97253056D01*
X146207863Y-97171784D01*
X146177146Y-97107776D01*
X146175500Y-97087474D01*
X146175500Y-96240000D01*
X146195502Y-96171879D01*
X146249158Y-96125386D01*
X146301500Y-96114000D01*
X146662632Y-96114000D01*
X146662638Y-96114000D01*
X146662645Y-96113999D01*
X146662649Y-96113999D01*
X146723196Y-96107490D01*
X146723199Y-96107489D01*
X146723201Y-96107489D01*
X146860204Y-96056389D01*
X146860799Y-96055944D01*
X146977261Y-95968761D01*
X147064887Y-95851707D01*
X147064887Y-95851706D01*
X147064889Y-95851704D01*
X147115989Y-95714701D01*
X147122500Y-95654138D01*
X147122500Y-95059500D01*
X153106000Y-95059500D01*
X153106000Y-95654097D01*
X153112505Y-95714593D01*
X153163555Y-95851464D01*
X153163555Y-95851465D01*
X153251095Y-95968404D01*
X153368034Y-96055944D01*
X153504906Y-96106994D01*
X153565402Y-96113499D01*
X153565415Y-96113500D01*
X154450000Y-96113500D01*
X154450000Y-95059500D01*
X153106000Y-95059500D01*
X147122500Y-95059500D01*
X147122500Y-94551500D01*
X153106000Y-94551500D01*
X154450000Y-94551500D01*
X154450000Y-93497500D01*
X153565402Y-93497500D01*
X153504906Y-93504005D01*
X153368035Y-93555055D01*
X153368034Y-93555055D01*
X153251095Y-93642595D01*
X153163555Y-93759534D01*
X153163555Y-93759535D01*
X153112505Y-93896406D01*
X153106000Y-93956902D01*
X153106000Y-94551500D01*
X147122500Y-94551500D01*
X147122500Y-93956862D01*
X147120150Y-93935002D01*
X147115990Y-93896303D01*
X147115988Y-93896295D01*
X147074068Y-93783906D01*
X147064889Y-93759296D01*
X147064888Y-93759294D01*
X147064887Y-93759292D01*
X146977261Y-93642238D01*
X146860207Y-93554612D01*
X146860202Y-93554610D01*
X146723204Y-93503511D01*
X146723196Y-93503509D01*
X146662649Y-93497000D01*
X146662638Y-93497000D01*
X145163595Y-93497000D01*
X145095474Y-93476998D01*
X145074499Y-93460095D01*
X144243904Y-92629499D01*
X144209879Y-92567187D01*
X144207000Y-92540404D01*
X144207000Y-91114594D01*
X144227002Y-91046473D01*
X144280658Y-90999980D01*
X144350932Y-90989876D01*
X144415512Y-91019370D01*
X144422093Y-91025497D01*
X145270610Y-91874015D01*
X146114255Y-92717660D01*
X146124220Y-92730097D01*
X146124447Y-92729910D01*
X146129499Y-92736017D01*
X146180578Y-92783983D01*
X146201723Y-92805129D01*
X146201727Y-92805132D01*
X146201730Y-92805135D01*
X146207282Y-92809442D01*
X146211769Y-92813273D01*
X146234459Y-92834581D01*
X146246177Y-92845585D01*
X146246179Y-92845586D01*
X146263928Y-92855343D01*
X146280453Y-92866198D01*
X146296459Y-92878614D01*
X146326726Y-92891711D01*
X146339762Y-92897352D01*
X146345083Y-92899958D01*
X146386440Y-92922695D01*
X146386448Y-92922697D01*
X146406058Y-92927732D01*
X146424767Y-92934137D01*
X146443355Y-92942181D01*
X146489977Y-92949564D01*
X146495762Y-92950763D01*
X146541470Y-92962500D01*
X146561724Y-92962500D01*
X146581434Y-92964051D01*
X146583641Y-92964400D01*
X146601443Y-92967220D01*
X146635370Y-92964012D01*
X146648417Y-92962780D01*
X146654350Y-92962500D01*
X155958905Y-92962500D01*
X156027026Y-92982502D01*
X156048000Y-92999405D01*
X156337799Y-93289204D01*
X156371825Y-93351516D01*
X156366760Y-93422331D01*
X156324213Y-93479167D01*
X156270174Y-93500431D01*
X156270474Y-93501697D01*
X156262802Y-93503510D01*
X156262799Y-93503510D01*
X156262799Y-93503511D01*
X156261475Y-93504005D01*
X156126319Y-93554416D01*
X156055503Y-93559481D01*
X156038255Y-93554416D01*
X155903094Y-93504005D01*
X155903096Y-93504005D01*
X155842597Y-93497500D01*
X154958000Y-93497500D01*
X154958000Y-96113500D01*
X155842585Y-96113500D01*
X155842597Y-96113499D01*
X155903096Y-96106994D01*
X156038252Y-96056583D01*
X156109068Y-96051517D01*
X156126305Y-96056579D01*
X156227542Y-96094339D01*
X156262798Y-96107489D01*
X156262803Y-96107490D01*
X156323350Y-96113999D01*
X156323355Y-96113999D01*
X156323362Y-96114000D01*
X156720500Y-96114000D01*
X156788621Y-96134002D01*
X156835114Y-96187658D01*
X156846500Y-96240000D01*
X156846500Y-97087474D01*
X156826498Y-97155595D01*
X156814137Y-97171784D01*
X156740957Y-97253059D01*
X156645476Y-97418438D01*
X156645473Y-97418444D01*
X156637739Y-97442246D01*
X156586457Y-97600072D01*
X156566496Y-97790000D01*
X156586457Y-97979927D01*
X156602264Y-98028574D01*
X156645473Y-98161556D01*
X156645476Y-98161561D01*
X156740958Y-98326941D01*
X156740965Y-98326951D01*
X156868744Y-98468864D01*
X156868747Y-98468866D01*
X157023248Y-98581118D01*
X157197712Y-98658794D01*
X157384513Y-98698500D01*
X157575487Y-98698500D01*
X157762288Y-98658794D01*
X157936752Y-98581118D01*
X158091253Y-98468866D01*
X158106282Y-98452175D01*
X158219034Y-98326951D01*
X158219035Y-98326949D01*
X158219040Y-98326944D01*
X158314527Y-98161556D01*
X158373542Y-97979928D01*
X158393504Y-97790000D01*
X158373542Y-97600072D01*
X158314527Y-97418444D01*
X158219040Y-97253056D01*
X158145863Y-97171784D01*
X158115146Y-97107776D01*
X158113500Y-97087474D01*
X158113500Y-96240000D01*
X158133502Y-96171879D01*
X158187158Y-96125386D01*
X158239500Y-96114000D01*
X158600632Y-96114000D01*
X158600638Y-96114000D01*
X158600645Y-96113999D01*
X158600649Y-96113999D01*
X158661196Y-96107490D01*
X158661199Y-96107489D01*
X158661201Y-96107489D01*
X158798204Y-96056389D01*
X158798799Y-96055944D01*
X158915261Y-95968761D01*
X159002887Y-95851707D01*
X159002887Y-95851706D01*
X159002889Y-95851704D01*
X159053989Y-95714701D01*
X159060500Y-95654138D01*
X159060500Y-95059500D01*
X165044000Y-95059500D01*
X165044000Y-95654097D01*
X165050505Y-95714593D01*
X165101555Y-95851464D01*
X165101555Y-95851465D01*
X165189095Y-95968404D01*
X165306034Y-96055944D01*
X165442906Y-96106994D01*
X165503402Y-96113499D01*
X165503415Y-96113500D01*
X166388000Y-96113500D01*
X166388000Y-95059500D01*
X165044000Y-95059500D01*
X159060500Y-95059500D01*
X159060500Y-93956862D01*
X159058150Y-93935002D01*
X159053990Y-93896303D01*
X159053989Y-93896302D01*
X159053989Y-93896299D01*
X159038480Y-93854720D01*
X159033416Y-93783906D01*
X159067441Y-93721594D01*
X159129754Y-93687569D01*
X159200569Y-93692633D01*
X159242788Y-93718838D01*
X159255192Y-93730485D01*
X159261580Y-93736484D01*
X159282724Y-93757630D01*
X159282728Y-93757633D01*
X159282730Y-93757635D01*
X159288282Y-93761942D01*
X159292769Y-93765773D01*
X159315459Y-93787081D01*
X159327177Y-93798085D01*
X159327179Y-93798086D01*
X159344928Y-93807843D01*
X159361453Y-93818698D01*
X159377459Y-93831114D01*
X159419186Y-93849170D01*
X159420762Y-93849852D01*
X159426083Y-93852458D01*
X159467440Y-93875195D01*
X159467448Y-93875197D01*
X159487058Y-93880232D01*
X159505767Y-93886637D01*
X159524355Y-93894681D01*
X159570977Y-93902064D01*
X159576762Y-93903263D01*
X159622470Y-93915000D01*
X159642724Y-93915000D01*
X159662434Y-93916551D01*
X159664641Y-93916900D01*
X159682443Y-93919720D01*
X159716370Y-93916512D01*
X159729417Y-93915280D01*
X159735350Y-93915000D01*
X164918000Y-93915000D01*
X164986121Y-93935002D01*
X165032614Y-93988658D01*
X165044000Y-94041000D01*
X165044000Y-94551500D01*
X166770000Y-94551500D01*
X166838121Y-94571502D01*
X166884614Y-94625158D01*
X166896000Y-94677500D01*
X166896000Y-96113500D01*
X167780585Y-96113500D01*
X167780597Y-96113499D01*
X167841096Y-96106994D01*
X167976252Y-96056583D01*
X168047068Y-96051517D01*
X168064305Y-96056579D01*
X168165542Y-96094339D01*
X168200798Y-96107489D01*
X168200803Y-96107490D01*
X168261350Y-96113999D01*
X168261355Y-96113999D01*
X168261362Y-96114000D01*
X168640500Y-96114000D01*
X168708621Y-96134002D01*
X168755114Y-96187658D01*
X168766500Y-96240000D01*
X168766500Y-97069474D01*
X168746498Y-97137595D01*
X168734137Y-97153784D01*
X168660957Y-97235059D01*
X168566239Y-97399117D01*
X168565473Y-97400444D01*
X168559624Y-97418445D01*
X168506457Y-97582072D01*
X168486496Y-97772000D01*
X168506457Y-97961927D01*
X168525171Y-98019520D01*
X168565473Y-98143556D01*
X168565476Y-98143561D01*
X168660958Y-98308941D01*
X168660965Y-98308951D01*
X168788744Y-98450864D01*
X168808462Y-98465190D01*
X168943248Y-98563118D01*
X169117712Y-98640794D01*
X169304513Y-98680500D01*
X169495487Y-98680500D01*
X169682288Y-98640794D01*
X169856752Y-98563118D01*
X170011253Y-98450866D01*
X170021532Y-98439450D01*
X170139034Y-98308951D01*
X170139035Y-98308949D01*
X170139040Y-98308944D01*
X170234527Y-98143556D01*
X170293542Y-97961928D01*
X170313504Y-97772000D01*
X170293542Y-97582072D01*
X170234527Y-97400444D01*
X170149434Y-97253059D01*
X170139042Y-97235059D01*
X170139041Y-97235058D01*
X170139040Y-97235056D01*
X170065863Y-97153784D01*
X170035146Y-97089776D01*
X170033500Y-97069474D01*
X170033500Y-96240000D01*
X170053502Y-96171879D01*
X170107158Y-96125386D01*
X170159500Y-96114000D01*
X170538632Y-96114000D01*
X170538638Y-96114000D01*
X170538645Y-96113999D01*
X170538649Y-96113999D01*
X170599196Y-96107490D01*
X170599199Y-96107489D01*
X170599201Y-96107489D01*
X170736204Y-96056389D01*
X170736799Y-96055944D01*
X170853261Y-95968761D01*
X170940887Y-95851707D01*
X170940887Y-95851706D01*
X170940889Y-95851704D01*
X170991989Y-95714701D01*
X170998500Y-95654138D01*
X170998500Y-95059500D01*
X176982000Y-95059500D01*
X176982000Y-95654097D01*
X176988505Y-95714593D01*
X177039555Y-95851464D01*
X177039555Y-95851465D01*
X177127095Y-95968404D01*
X177244034Y-96055944D01*
X177380906Y-96106994D01*
X177441402Y-96113499D01*
X177441415Y-96113500D01*
X178326000Y-96113500D01*
X178326000Y-95059500D01*
X176982000Y-95059500D01*
X170998500Y-95059500D01*
X170998500Y-94551500D01*
X176982000Y-94551500D01*
X178326000Y-94551500D01*
X178326000Y-93497500D01*
X177441402Y-93497500D01*
X177380906Y-93504005D01*
X177244035Y-93555055D01*
X177244034Y-93555055D01*
X177127095Y-93642595D01*
X177039555Y-93759534D01*
X177039555Y-93759535D01*
X176988505Y-93896406D01*
X176982000Y-93956902D01*
X176982000Y-94551500D01*
X170998500Y-94551500D01*
X170998500Y-93956862D01*
X170996150Y-93935002D01*
X170991990Y-93896303D01*
X170991988Y-93896295D01*
X170950068Y-93783906D01*
X170940889Y-93759296D01*
X170940888Y-93759294D01*
X170940887Y-93759292D01*
X170853261Y-93642238D01*
X170736207Y-93554612D01*
X170736202Y-93554610D01*
X170599204Y-93503511D01*
X170599196Y-93503509D01*
X170538649Y-93497000D01*
X170538638Y-93497000D01*
X170083435Y-93497000D01*
X170015314Y-93476998D01*
X169968821Y-93423342D01*
X169966284Y-93417386D01*
X169965179Y-93414594D01*
X169959552Y-93400383D01*
X169931808Y-93362198D01*
X169928567Y-93357264D01*
X169920210Y-93343131D01*
X169902755Y-93274313D01*
X169925277Y-93206984D01*
X169980625Y-93162519D01*
X170028668Y-93153000D01*
X179771406Y-93153000D01*
X179839527Y-93173002D01*
X179860501Y-93189905D01*
X180000302Y-93329706D01*
X180034328Y-93392018D01*
X180029263Y-93462833D01*
X179986716Y-93519669D01*
X179920196Y-93544480D01*
X179867176Y-93536857D01*
X179779094Y-93504005D01*
X179779096Y-93504005D01*
X179718597Y-93497500D01*
X178834000Y-93497500D01*
X178834000Y-96113500D01*
X179718585Y-96113500D01*
X179718597Y-96113499D01*
X179779096Y-96106994D01*
X179914252Y-96056583D01*
X179985068Y-96051517D01*
X180002305Y-96056579D01*
X180103542Y-96094339D01*
X180138798Y-96107489D01*
X180138803Y-96107490D01*
X180199350Y-96113999D01*
X180199355Y-96113999D01*
X180199362Y-96114000D01*
X180578500Y-96114000D01*
X180646621Y-96134002D01*
X180693114Y-96187658D01*
X180704500Y-96240000D01*
X180704500Y-97069474D01*
X180684498Y-97137595D01*
X180672137Y-97153784D01*
X180598957Y-97235059D01*
X180504239Y-97399117D01*
X180503473Y-97400444D01*
X180497624Y-97418445D01*
X180444457Y-97582072D01*
X180424496Y-97772000D01*
X180444457Y-97961927D01*
X180463171Y-98019520D01*
X180503473Y-98143556D01*
X180503476Y-98143561D01*
X180598958Y-98308941D01*
X180598965Y-98308951D01*
X180726744Y-98450864D01*
X180746462Y-98465190D01*
X180881248Y-98563118D01*
X181055712Y-98640794D01*
X181242513Y-98680500D01*
X181433487Y-98680500D01*
X181620288Y-98640794D01*
X181794752Y-98563118D01*
X181949253Y-98450866D01*
X181959532Y-98439450D01*
X182077034Y-98308951D01*
X182077035Y-98308949D01*
X182077040Y-98308944D01*
X182172527Y-98143556D01*
X182231542Y-97961928D01*
X182251504Y-97772000D01*
X182231542Y-97582072D01*
X182172527Y-97400444D01*
X182087434Y-97253059D01*
X182077042Y-97235059D01*
X182077041Y-97235058D01*
X182077040Y-97235056D01*
X182003863Y-97153784D01*
X181973146Y-97089776D01*
X181971500Y-97069474D01*
X181971500Y-96240000D01*
X181991502Y-96171879D01*
X182045158Y-96125386D01*
X182097500Y-96114000D01*
X182476632Y-96114000D01*
X182476638Y-96114000D01*
X182476645Y-96113999D01*
X182476649Y-96113999D01*
X182537196Y-96107490D01*
X182537199Y-96107489D01*
X182537201Y-96107489D01*
X182674204Y-96056389D01*
X182674799Y-96055944D01*
X182791261Y-95968761D01*
X182878887Y-95851707D01*
X182878887Y-95851706D01*
X182878889Y-95851704D01*
X182929989Y-95714701D01*
X182936500Y-95654138D01*
X182936500Y-95059500D01*
X188920000Y-95059500D01*
X188920000Y-95654097D01*
X188926505Y-95714593D01*
X188977555Y-95851464D01*
X188977555Y-95851465D01*
X189065095Y-95968404D01*
X189182034Y-96055944D01*
X189318906Y-96106994D01*
X189379402Y-96113499D01*
X189379415Y-96113500D01*
X190264000Y-96113500D01*
X190264000Y-95059500D01*
X190772000Y-95059500D01*
X190772000Y-96113500D01*
X191656585Y-96113500D01*
X191656597Y-96113499D01*
X191717093Y-96106994D01*
X191853964Y-96055944D01*
X191853965Y-96055944D01*
X191970904Y-95968404D01*
X192058444Y-95851465D01*
X192058444Y-95851464D01*
X192109494Y-95714593D01*
X192115999Y-95654097D01*
X192116000Y-95654085D01*
X192116000Y-95059500D01*
X190772000Y-95059500D01*
X190264000Y-95059500D01*
X188920000Y-95059500D01*
X182936500Y-95059500D01*
X182936500Y-94551500D01*
X188920000Y-94551500D01*
X190264000Y-94551500D01*
X190264000Y-93497500D01*
X190772000Y-93497500D01*
X190772000Y-94551500D01*
X192116000Y-94551500D01*
X192116000Y-93956914D01*
X192115999Y-93956902D01*
X192109494Y-93896406D01*
X192058444Y-93759535D01*
X192058444Y-93759534D01*
X191970904Y-93642595D01*
X191853965Y-93555055D01*
X191717093Y-93504005D01*
X191656597Y-93497500D01*
X190772000Y-93497500D01*
X190264000Y-93497500D01*
X189379402Y-93497500D01*
X189318906Y-93504005D01*
X189182035Y-93555055D01*
X189182034Y-93555055D01*
X189065095Y-93642595D01*
X188977555Y-93759534D01*
X188977555Y-93759535D01*
X188926505Y-93896406D01*
X188920000Y-93956902D01*
X188920000Y-94551500D01*
X182936500Y-94551500D01*
X182936500Y-93956862D01*
X182934150Y-93935002D01*
X182929990Y-93896303D01*
X182929988Y-93896295D01*
X182888068Y-93783906D01*
X182878889Y-93759296D01*
X182878888Y-93759294D01*
X182878887Y-93759292D01*
X182791261Y-93642238D01*
X182674207Y-93554612D01*
X182674202Y-93554610D01*
X182537204Y-93503511D01*
X182537196Y-93503509D01*
X182476649Y-93497000D01*
X182476638Y-93497000D01*
X181985813Y-93497000D01*
X181917692Y-93476998D01*
X181883876Y-93445059D01*
X181869817Y-93425709D01*
X181866557Y-93420745D01*
X181842541Y-93380135D01*
X181828218Y-93365812D01*
X181815377Y-93350779D01*
X181803471Y-93334392D01*
X181777004Y-93312497D01*
X181767108Y-93304310D01*
X181762736Y-93300331D01*
X181157750Y-92695345D01*
X181123724Y-92633033D01*
X181128789Y-92562218D01*
X181171336Y-92505382D01*
X181237856Y-92480571D01*
X181246845Y-92480250D01*
X182178703Y-92480250D01*
X184522203Y-92480250D01*
X191107234Y-92480250D01*
X191166630Y-92495128D01*
X191176196Y-92500241D01*
X191176200Y-92500242D01*
X191176207Y-92500245D01*
X191366295Y-92557908D01*
X191366296Y-92557908D01*
X191366299Y-92557909D01*
X191366303Y-92557909D01*
X191366307Y-92557910D01*
X191563996Y-92577380D01*
X191564000Y-92577380D01*
X191564004Y-92577380D01*
X191761692Y-92557910D01*
X191761693Y-92557909D01*
X191761701Y-92557909D01*
X191951804Y-92500241D01*
X192127003Y-92406595D01*
X192135222Y-92399850D01*
X192280565Y-92280571D01*
X192280566Y-92280569D01*
X192280568Y-92280568D01*
X192310191Y-92244469D01*
X192314336Y-92239896D01*
X192348152Y-92206082D01*
X192442595Y-92091003D01*
X192536241Y-91915803D01*
X192593909Y-91725700D01*
X192593910Y-91725691D01*
X192613380Y-91528004D01*
X192613380Y-91527995D01*
X192593910Y-91330307D01*
X192593908Y-91330295D01*
X192536241Y-91140196D01*
X192536240Y-91140194D01*
X192471658Y-91019370D01*
X192442595Y-90964996D01*
X192316568Y-90811432D01*
X192163004Y-90685405D01*
X192089651Y-90646197D01*
X191987807Y-90591760D01*
X191963038Y-90584246D01*
X191946458Y-90579216D01*
X191923649Y-90569768D01*
X191859554Y-90535509D01*
X191856142Y-90534474D01*
X191669451Y-90477841D01*
X191669442Y-90477839D01*
X191471754Y-90458370D01*
X191471747Y-90458370D01*
X191425285Y-90462946D01*
X191419106Y-90463250D01*
X165792174Y-90463250D01*
X165724053Y-90443248D01*
X165703079Y-90426345D01*
X165591231Y-90314497D01*
X165460582Y-90183848D01*
X165436630Y-90159896D01*
X165436612Y-90159877D01*
X164975734Y-89699000D01*
X194285496Y-89699000D01*
X194305457Y-89888927D01*
X194322359Y-89940944D01*
X194364473Y-90070556D01*
X194372471Y-90084409D01*
X194416064Y-90159915D01*
X194459960Y-90235944D01*
X194533137Y-90317215D01*
X194563853Y-90381220D01*
X194565500Y-90401524D01*
X194565500Y-91610146D01*
X194563751Y-91625988D01*
X194564044Y-91626016D01*
X194563298Y-91633907D01*
X194565500Y-91703957D01*
X194565500Y-91733851D01*
X194565501Y-91733872D01*
X194566378Y-91740820D01*
X194566844Y-91746732D01*
X194568326Y-91793888D01*
X194568327Y-91793893D01*
X194573977Y-91813339D01*
X194577986Y-91832697D01*
X194580525Y-91852793D01*
X194580526Y-91852799D01*
X194597893Y-91896662D01*
X194599816Y-91902279D01*
X194612982Y-91947593D01*
X194623294Y-91965031D01*
X194631988Y-91982779D01*
X194639444Y-92001609D01*
X194639450Y-92001620D01*
X194667177Y-92039783D01*
X194670437Y-92044746D01*
X194694460Y-92085365D01*
X194708779Y-92099684D01*
X194721617Y-92114714D01*
X194731156Y-92127843D01*
X194733528Y-92131107D01*
X194761794Y-92154491D01*
X194769886Y-92161185D01*
X194774267Y-92165171D01*
X195655408Y-93046312D01*
X196497095Y-93887999D01*
X196531121Y-93950311D01*
X196534000Y-93977094D01*
X196534000Y-97007646D01*
X196532251Y-97023488D01*
X196532544Y-97023516D01*
X196531798Y-97031407D01*
X196534000Y-97101457D01*
X196534000Y-97131351D01*
X196534001Y-97131372D01*
X196534878Y-97138320D01*
X196535344Y-97144232D01*
X196536826Y-97191388D01*
X196536827Y-97191393D01*
X196542477Y-97210839D01*
X196546486Y-97230197D01*
X196549025Y-97250293D01*
X196549026Y-97250299D01*
X196566393Y-97294162D01*
X196568316Y-97299779D01*
X196581482Y-97345093D01*
X196591794Y-97362531D01*
X196600488Y-97380279D01*
X196607944Y-97399109D01*
X196607950Y-97399120D01*
X196635677Y-97437283D01*
X196638937Y-97442246D01*
X196662960Y-97482865D01*
X196677279Y-97497184D01*
X196690117Y-97512214D01*
X196694251Y-97517903D01*
X196702028Y-97528607D01*
X196730294Y-97551991D01*
X196738386Y-97558685D01*
X196742767Y-97562671D01*
X197056439Y-97876343D01*
X197358753Y-98178657D01*
X197368720Y-98191097D01*
X197368947Y-98190910D01*
X197373999Y-98197017D01*
X197425095Y-98244999D01*
X197446225Y-98266130D01*
X197451768Y-98270430D01*
X197456281Y-98274285D01*
X197490679Y-98306586D01*
X197490680Y-98306586D01*
X197490682Y-98306588D01*
X197508429Y-98316344D01*
X197524959Y-98327202D01*
X197540959Y-98339613D01*
X197572136Y-98353104D01*
X197584251Y-98358347D01*
X197589585Y-98360959D01*
X197630940Y-98383695D01*
X197650562Y-98388733D01*
X197669263Y-98395135D01*
X197681814Y-98400567D01*
X197687852Y-98403180D01*
X197687853Y-98403180D01*
X197687855Y-98403181D01*
X197734477Y-98410564D01*
X197740262Y-98411763D01*
X197785970Y-98423500D01*
X197806224Y-98423500D01*
X197825934Y-98425051D01*
X197828141Y-98425400D01*
X197845943Y-98428220D01*
X197879870Y-98425012D01*
X197892917Y-98423780D01*
X197898850Y-98423500D01*
X201094800Y-98423500D01*
X201162921Y-98443502D01*
X201188437Y-98465190D01*
X201191747Y-98468866D01*
X201346248Y-98581118D01*
X201520712Y-98658794D01*
X201707513Y-98698500D01*
X201898487Y-98698500D01*
X202085288Y-98658794D01*
X202259752Y-98581118D01*
X202414253Y-98468866D01*
X202417563Y-98465190D01*
X202478009Y-98427950D01*
X202511200Y-98423500D01*
X213159800Y-98423500D01*
X213227921Y-98443502D01*
X213253437Y-98465190D01*
X213256747Y-98468866D01*
X213411248Y-98581118D01*
X213585712Y-98658794D01*
X213772513Y-98698500D01*
X213963487Y-98698500D01*
X214150288Y-98658794D01*
X214324752Y-98581118D01*
X214479253Y-98468866D01*
X214494282Y-98452175D01*
X214607034Y-98326951D01*
X214607035Y-98326949D01*
X214607040Y-98326944D01*
X214702527Y-98161556D01*
X214761542Y-97979928D01*
X214781056Y-97794265D01*
X230682788Y-97794265D01*
X230712412Y-98063514D01*
X230780928Y-98325590D01*
X230886869Y-98574889D01*
X230886870Y-98574890D01*
X231027982Y-98806110D01*
X231201255Y-99014320D01*
X231402998Y-99195082D01*
X231628910Y-99344544D01*
X231874176Y-99459520D01*
X232133569Y-99537560D01*
X232133572Y-99537560D01*
X232133574Y-99537561D01*
X232401557Y-99577000D01*
X232401561Y-99577000D01*
X232604633Y-99577000D01*
X232639363Y-99574457D01*
X232807156Y-99562177D01*
X232807160Y-99562176D01*
X232807161Y-99562176D01*
X232919277Y-99537201D01*
X233071553Y-99503280D01*
X233324558Y-99406514D01*
X233560777Y-99273941D01*
X233775177Y-99108388D01*
X233963186Y-98913381D01*
X234120799Y-98693079D01*
X234127267Y-98680500D01*
X234244656Y-98452175D01*
X234244657Y-98452172D01*
X234258853Y-98410560D01*
X234332118Y-98195805D01*
X234363007Y-98028574D01*
X234381318Y-97929441D01*
X234381319Y-97929430D01*
X234384602Y-97839601D01*
X234391212Y-97658735D01*
X234376338Y-97523558D01*
X234361587Y-97389485D01*
X234304672Y-97171784D01*
X234293072Y-97127412D01*
X234282042Y-97101457D01*
X234187130Y-96878110D01*
X234182769Y-96870965D01*
X234046018Y-96646890D01*
X233872745Y-96438680D01*
X233872741Y-96438677D01*
X233872740Y-96438675D01*
X233671012Y-96257927D01*
X233671002Y-96257918D01*
X233445090Y-96108456D01*
X233199824Y-95993480D01*
X233042392Y-95946115D01*
X232940425Y-95915438D01*
X232672442Y-95876000D01*
X232672439Y-95876000D01*
X232469369Y-95876000D01*
X232469367Y-95876000D01*
X232266839Y-95890823D01*
X232266838Y-95890823D01*
X232002456Y-95949717D01*
X232002441Y-95949722D01*
X231749441Y-96046486D01*
X231513229Y-96179055D01*
X231513225Y-96179057D01*
X231298818Y-96344616D01*
X231110815Y-96539617D01*
X231110810Y-96539623D01*
X230953203Y-96759917D01*
X230953196Y-96759927D01*
X230829343Y-97000824D01*
X230829342Y-97000827D01*
X230741883Y-97257189D01*
X230741880Y-97257202D01*
X230692681Y-97523558D01*
X230692680Y-97523569D01*
X230682788Y-97794265D01*
X214781056Y-97794265D01*
X214781504Y-97790000D01*
X214761542Y-97600072D01*
X214702527Y-97418444D01*
X214607040Y-97253056D01*
X214607038Y-97253054D01*
X214607034Y-97253048D01*
X214479255Y-97111135D01*
X214324752Y-96998882D01*
X214150288Y-96921206D01*
X213963487Y-96881500D01*
X213772513Y-96881500D01*
X213585711Y-96921206D01*
X213411247Y-96998882D01*
X213256747Y-97111133D01*
X213253437Y-97114810D01*
X213192991Y-97152050D01*
X213159800Y-97156500D01*
X202511200Y-97156500D01*
X202443079Y-97136498D01*
X202417563Y-97114810D01*
X202414254Y-97111135D01*
X202412380Y-97109448D01*
X202411610Y-97108198D01*
X202409834Y-97106226D01*
X202410194Y-97105901D01*
X202375135Y-97049004D01*
X202376482Y-96978021D01*
X202415991Y-96919033D01*
X202470484Y-96892558D01*
X202582288Y-96868794D01*
X202756752Y-96791118D01*
X202911253Y-96678866D01*
X202911255Y-96678864D01*
X203039034Y-96536951D01*
X203039035Y-96536949D01*
X203039040Y-96536944D01*
X203134527Y-96371556D01*
X203193542Y-96189928D01*
X203213504Y-96000000D01*
X203193542Y-95810072D01*
X203134527Y-95628444D01*
X203039040Y-95463056D01*
X203039038Y-95463054D01*
X203039034Y-95463048D01*
X202911255Y-95321135D01*
X202785439Y-95229724D01*
X202742085Y-95173501D01*
X202733500Y-95127788D01*
X202733500Y-93183855D01*
X202735249Y-93168014D01*
X202734956Y-93167987D01*
X202735701Y-93160094D01*
X202735702Y-93160091D01*
X202733500Y-93090041D01*
X202733500Y-93060144D01*
X202732619Y-93053178D01*
X202732155Y-93047282D01*
X202730673Y-93000110D01*
X202725022Y-92980663D01*
X202721012Y-92961300D01*
X202720203Y-92954893D01*
X202718474Y-92941203D01*
X202701099Y-92897320D01*
X202699179Y-92891711D01*
X202686018Y-92846407D01*
X202675706Y-92828970D01*
X202667010Y-92811221D01*
X202659552Y-92792383D01*
X202631812Y-92754203D01*
X202628564Y-92749258D01*
X202604542Y-92708638D01*
X202590214Y-92694310D01*
X202577384Y-92679289D01*
X202565472Y-92662893D01*
X202565469Y-92662891D01*
X202565469Y-92662890D01*
X202529107Y-92632808D01*
X202524726Y-92628822D01*
X198091905Y-88196000D01*
X198057879Y-88133688D01*
X198055000Y-88106905D01*
X198055000Y-85217000D01*
X200889496Y-85217000D01*
X200909457Y-85406927D01*
X200922839Y-85448110D01*
X200968473Y-85588556D01*
X200968476Y-85588561D01*
X201063958Y-85753941D01*
X201063965Y-85753951D01*
X201191744Y-85895864D01*
X201191747Y-85895866D01*
X201346248Y-86008118D01*
X201520712Y-86085794D01*
X201707513Y-86125500D01*
X201898487Y-86125500D01*
X202085288Y-86085794D01*
X202259752Y-86008118D01*
X202414253Y-85895866D01*
X202417563Y-85892190D01*
X202478009Y-85854950D01*
X202511200Y-85850500D01*
X213921800Y-85850500D01*
X213989921Y-85870502D01*
X214015437Y-85892190D01*
X214018747Y-85895866D01*
X214173248Y-86008118D01*
X214347712Y-86085794D01*
X214534513Y-86125500D01*
X214725487Y-86125500D01*
X214912288Y-86085794D01*
X215086752Y-86008118D01*
X215241253Y-85895866D01*
X215278094Y-85854950D01*
X215369034Y-85753951D01*
X215369035Y-85753949D01*
X215369040Y-85753944D01*
X215464527Y-85588556D01*
X215523542Y-85406928D01*
X215543504Y-85217000D01*
X215523542Y-85027072D01*
X215464527Y-84845444D01*
X215369040Y-84680056D01*
X215369038Y-84680054D01*
X215369034Y-84680048D01*
X215241255Y-84538135D01*
X215086752Y-84425882D01*
X214912288Y-84348206D01*
X214725487Y-84308500D01*
X214534513Y-84308500D01*
X214347711Y-84348206D01*
X214173247Y-84425882D01*
X214018747Y-84538133D01*
X214015437Y-84541810D01*
X213954991Y-84579050D01*
X213921800Y-84583500D01*
X202511200Y-84583500D01*
X202443079Y-84563498D01*
X202417563Y-84541810D01*
X202414252Y-84538133D01*
X202259752Y-84425882D01*
X202085288Y-84348206D01*
X201898487Y-84308500D01*
X201707513Y-84308500D01*
X201520711Y-84348206D01*
X201346247Y-84425882D01*
X201191744Y-84538135D01*
X201063965Y-84680048D01*
X201063958Y-84680058D01*
X200978586Y-84827927D01*
X200968473Y-84845444D01*
X200953999Y-84889986D01*
X200909457Y-85027072D01*
X200889496Y-85217000D01*
X198055000Y-85217000D01*
X198055000Y-81915002D01*
X222252620Y-81915002D01*
X222257196Y-81961464D01*
X222257500Y-81967643D01*
X222257500Y-89140053D01*
X222272090Y-89288194D01*
X222272091Y-89288200D01*
X222272092Y-89288201D01*
X222329759Y-89478304D01*
X222423405Y-89653504D01*
X222549432Y-89807068D01*
X222702996Y-89933095D01*
X222878196Y-90026741D01*
X223068299Y-90084408D01*
X223068303Y-90084408D01*
X223068305Y-90084409D01*
X223265997Y-90103880D01*
X223266000Y-90103880D01*
X223266003Y-90103880D01*
X223463694Y-90084409D01*
X223463695Y-90084408D01*
X223463701Y-90084408D01*
X223653804Y-90026741D01*
X223829004Y-89933095D01*
X223982568Y-89807068D01*
X224108595Y-89653504D01*
X224202241Y-89478304D01*
X224259908Y-89288201D01*
X224260652Y-89280654D01*
X224272333Y-89162048D01*
X224274500Y-89140047D01*
X224274500Y-85260144D01*
X230668815Y-85260144D01*
X230678630Y-85491178D01*
X230727351Y-85717240D01*
X230813575Y-85931815D01*
X230813577Y-85931819D01*
X230932832Y-86125500D01*
X230934821Y-86128730D01*
X231087602Y-86302324D01*
X231267524Y-86447600D01*
X231469409Y-86560380D01*
X231534699Y-86583448D01*
X231687442Y-86637417D01*
X231687446Y-86637417D01*
X231687450Y-86637419D01*
X231915375Y-86676500D01*
X231915379Y-86676500D01*
X232338713Y-86676500D01*
X232511418Y-86661801D01*
X232735207Y-86603530D01*
X232945929Y-86508278D01*
X233137523Y-86378783D01*
X233304476Y-86218772D01*
X233441985Y-86032847D01*
X233546095Y-85826357D01*
X233613811Y-85605243D01*
X233643184Y-85375865D01*
X233641915Y-85346000D01*
X233633369Y-85144821D01*
X233584648Y-84918759D01*
X233555188Y-84845445D01*
X233498426Y-84704187D01*
X233377179Y-84507270D01*
X233224398Y-84333676D01*
X233044476Y-84188400D01*
X233023264Y-84176550D01*
X232973552Y-84125869D01*
X232959131Y-84056352D01*
X232984582Y-83990074D01*
X233014161Y-83962161D01*
X233137523Y-83878783D01*
X233304476Y-83718772D01*
X233441985Y-83532847D01*
X233546095Y-83326357D01*
X233613811Y-83105243D01*
X233643184Y-82875865D01*
X233641679Y-82840448D01*
X233633369Y-82644821D01*
X233595779Y-82470405D01*
X233584649Y-82418762D01*
X233577553Y-82401104D01*
X233563851Y-82367005D01*
X233498426Y-82204187D01*
X233377179Y-82007270D01*
X233224398Y-81833676D01*
X233044476Y-81688400D01*
X233023264Y-81676550D01*
X232973552Y-81625869D01*
X232959131Y-81556352D01*
X232984582Y-81490074D01*
X233014161Y-81462161D01*
X233137523Y-81378783D01*
X233304476Y-81218772D01*
X233441985Y-81032847D01*
X233546095Y-80826357D01*
X233613811Y-80605243D01*
X233643184Y-80375865D01*
X233642962Y-80370646D01*
X233633369Y-80144821D01*
X233608786Y-80030757D01*
X233584649Y-79918762D01*
X233498426Y-79704187D01*
X233492867Y-79695159D01*
X233387326Y-79523750D01*
X233377179Y-79507270D01*
X233224398Y-79333676D01*
X233044476Y-79188400D01*
X233023264Y-79176550D01*
X232973552Y-79125869D01*
X232959131Y-79056352D01*
X232984582Y-78990074D01*
X233014161Y-78962161D01*
X233137523Y-78878783D01*
X233304476Y-78718772D01*
X233441985Y-78532847D01*
X233546095Y-78326357D01*
X233613811Y-78105243D01*
X233643184Y-77875865D01*
X233642762Y-77865934D01*
X233633369Y-77644821D01*
X233584648Y-77418759D01*
X233563706Y-77366644D01*
X233498426Y-77204187D01*
X233466406Y-77152184D01*
X233377180Y-77007272D01*
X233377179Y-77007270D01*
X233224398Y-76833676D01*
X233044476Y-76688400D01*
X233023264Y-76676550D01*
X232973552Y-76625869D01*
X232959131Y-76556352D01*
X232984582Y-76490074D01*
X233014161Y-76462161D01*
X233137523Y-76378783D01*
X233304476Y-76218772D01*
X233441985Y-76032847D01*
X233546095Y-75826357D01*
X233613811Y-75605243D01*
X233643184Y-75375865D01*
X233643090Y-75373659D01*
X233633369Y-75144821D01*
X233594701Y-74965405D01*
X233584649Y-74918762D01*
X233584043Y-74917255D01*
X233565339Y-74870708D01*
X233498426Y-74704187D01*
X233487811Y-74686948D01*
X233377180Y-74507272D01*
X233377179Y-74507270D01*
X233224398Y-74333676D01*
X233044476Y-74188400D01*
X233023264Y-74176550D01*
X232973552Y-74125869D01*
X232959131Y-74056352D01*
X232984582Y-73990074D01*
X233014161Y-73962161D01*
X233137523Y-73878783D01*
X233304476Y-73718772D01*
X233441985Y-73532847D01*
X233546095Y-73326357D01*
X233613811Y-73105243D01*
X233643184Y-72875865D01*
X233642887Y-72868882D01*
X233633369Y-72644821D01*
X233598374Y-72482445D01*
X233584649Y-72418762D01*
X233568607Y-72378841D01*
X233559333Y-72355761D01*
X233498426Y-72204187D01*
X233481766Y-72177130D01*
X233377180Y-72007272D01*
X233377179Y-72007270D01*
X233224398Y-71833676D01*
X233044476Y-71688400D01*
X233023264Y-71676550D01*
X232973552Y-71625869D01*
X232959131Y-71556352D01*
X232984582Y-71490074D01*
X233014161Y-71462161D01*
X233137523Y-71378783D01*
X233304476Y-71218772D01*
X233441985Y-71032847D01*
X233546095Y-70826357D01*
X233613811Y-70605243D01*
X233643184Y-70375865D01*
X233643099Y-70373872D01*
X233633369Y-70144821D01*
X233600649Y-69993001D01*
X233584649Y-69918762D01*
X233498426Y-69704187D01*
X233484501Y-69681572D01*
X233377180Y-69507272D01*
X233377179Y-69507270D01*
X233344464Y-69470098D01*
X233224398Y-69333675D01*
X233196976Y-69311534D01*
X233156542Y-69253177D01*
X233154076Y-69182223D01*
X233190363Y-69121200D01*
X233209979Y-69106265D01*
X233354652Y-69017030D01*
X233480030Y-68891652D01*
X233573115Y-68740738D01*
X233628887Y-68572426D01*
X233639500Y-68468545D01*
X233639499Y-67167456D01*
X233639452Y-67167000D01*
X233628887Y-67063574D01*
X233617963Y-67030608D01*
X233573115Y-66895262D01*
X233480030Y-66744348D01*
X233480029Y-66744347D01*
X233480024Y-66744341D01*
X233354658Y-66618975D01*
X233354652Y-66618970D01*
X233302344Y-66586706D01*
X233203738Y-66525885D01*
X233119582Y-66497999D01*
X233035427Y-66470113D01*
X233035420Y-66470112D01*
X232931553Y-66459500D01*
X231380455Y-66459500D01*
X231276574Y-66470112D01*
X231108261Y-66525885D01*
X230957347Y-66618970D01*
X230957341Y-66618975D01*
X230831975Y-66744341D01*
X230831970Y-66744347D01*
X230738885Y-66895262D01*
X230683113Y-67063572D01*
X230683112Y-67063579D01*
X230672500Y-67167446D01*
X230672500Y-68468544D01*
X230683112Y-68572425D01*
X230738885Y-68740738D01*
X230831970Y-68891652D01*
X230831975Y-68891658D01*
X230957341Y-69017024D01*
X230957347Y-69017029D01*
X230957348Y-69017030D01*
X231084062Y-69095188D01*
X231103306Y-69107058D01*
X231150784Y-69159844D01*
X231162187Y-69229919D01*
X231133894Y-69295035D01*
X231124344Y-69305265D01*
X231007521Y-69417230D01*
X230870013Y-69603154D01*
X230765903Y-69809647D01*
X230737741Y-69901606D01*
X230698189Y-70030757D01*
X230679634Y-70175660D01*
X230668815Y-70260144D01*
X230678630Y-70491178D01*
X230727351Y-70717240D01*
X230813575Y-70931815D01*
X230813577Y-70931819D01*
X230929446Y-71120000D01*
X230934821Y-71128730D01*
X231087602Y-71302324D01*
X231092100Y-71305956D01*
X231247289Y-71431262D01*
X231267524Y-71447600D01*
X231288733Y-71459448D01*
X231338446Y-71510129D01*
X231352869Y-71579645D01*
X231327418Y-71645923D01*
X231297839Y-71673838D01*
X231174478Y-71757216D01*
X231174477Y-71757217D01*
X231007521Y-71917230D01*
X230870013Y-72103154D01*
X230765903Y-72309647D01*
X230732488Y-72418759D01*
X230698189Y-72530757D01*
X230674648Y-72714597D01*
X230668815Y-72760144D01*
X230678630Y-72991178D01*
X230727351Y-73217240D01*
X230759270Y-73296672D01*
X230809339Y-73421275D01*
X230813575Y-73431815D01*
X230813577Y-73431819D01*
X230854886Y-73498908D01*
X230934821Y-73628730D01*
X231087602Y-73802324D01*
X231267524Y-73947600D01*
X231288733Y-73959448D01*
X231338446Y-74010129D01*
X231352869Y-74079645D01*
X231327418Y-74145923D01*
X231297839Y-74173838D01*
X231174478Y-74257216D01*
X231174477Y-74257217D01*
X231007521Y-74417230D01*
X230870013Y-74603154D01*
X230765903Y-74809647D01*
X230728831Y-74930701D01*
X230698189Y-75030757D01*
X230676450Y-75200524D01*
X230668815Y-75260144D01*
X230678630Y-75491178D01*
X230727351Y-75717240D01*
X230813575Y-75931815D01*
X230813577Y-75931819D01*
X230934819Y-76128727D01*
X230934821Y-76128730D01*
X231087602Y-76302324D01*
X231267524Y-76447600D01*
X231288733Y-76459448D01*
X231338446Y-76510129D01*
X231352869Y-76579645D01*
X231327418Y-76645923D01*
X231297839Y-76673838D01*
X231174478Y-76757216D01*
X231174477Y-76757217D01*
X231007521Y-76917230D01*
X230870013Y-77103154D01*
X230765903Y-77309647D01*
X230732488Y-77418759D01*
X230698189Y-77530757D01*
X230683583Y-77644822D01*
X230668815Y-77760144D01*
X230678630Y-77991178D01*
X230727351Y-78217240D01*
X230813575Y-78431815D01*
X230813577Y-78431819D01*
X230934819Y-78628727D01*
X230934822Y-78628731D01*
X231087601Y-78802323D01*
X231260729Y-78942114D01*
X231267524Y-78947600D01*
X231288733Y-78959448D01*
X231338446Y-79010129D01*
X231352869Y-79079645D01*
X231327418Y-79145923D01*
X231297839Y-79173838D01*
X231174478Y-79257216D01*
X231174477Y-79257217D01*
X231007521Y-79417230D01*
X230870013Y-79603154D01*
X230765903Y-79809647D01*
X230742073Y-79887462D01*
X230698189Y-80030757D01*
X230673118Y-80226544D01*
X230668815Y-80260144D01*
X230678630Y-80491178D01*
X230727351Y-80717240D01*
X230762715Y-80805246D01*
X230811110Y-80925682D01*
X230813575Y-80931815D01*
X230813577Y-80931819D01*
X230929563Y-81120191D01*
X230934821Y-81128730D01*
X230984083Y-81184703D01*
X231087601Y-81302323D01*
X231225218Y-81413441D01*
X231267524Y-81447600D01*
X231288733Y-81459448D01*
X231338446Y-81510129D01*
X231352869Y-81579645D01*
X231327418Y-81645923D01*
X231297839Y-81673838D01*
X231174478Y-81757216D01*
X231174477Y-81757217D01*
X231007521Y-81917230D01*
X230870013Y-82103154D01*
X230765903Y-82309647D01*
X230727092Y-82436379D01*
X230698189Y-82530757D01*
X230671703Y-82737594D01*
X230668815Y-82760144D01*
X230678630Y-82991178D01*
X230727351Y-83217240D01*
X230813575Y-83431815D01*
X230813577Y-83431819D01*
X230907263Y-83583973D01*
X230934821Y-83628730D01*
X231087602Y-83802324D01*
X231267524Y-83947600D01*
X231288733Y-83959448D01*
X231338446Y-84010129D01*
X231352869Y-84079645D01*
X231327418Y-84145923D01*
X231297839Y-84173838D01*
X231174478Y-84257216D01*
X231174477Y-84257217D01*
X231007521Y-84417230D01*
X230870013Y-84603154D01*
X230765903Y-84809647D01*
X230733758Y-84914612D01*
X230698189Y-85030757D01*
X230670315Y-85248434D01*
X230668815Y-85260144D01*
X224274500Y-85260144D01*
X224274500Y-82384924D01*
X224294502Y-82316803D01*
X224311405Y-82295829D01*
X225001330Y-81605904D01*
X227116906Y-79490327D01*
X227121470Y-79486192D01*
X227157568Y-79456568D01*
X227245301Y-79349664D01*
X227283595Y-79303003D01*
X227377241Y-79127804D01*
X227434909Y-78937701D01*
X227437135Y-78915096D01*
X227454380Y-78740004D01*
X227454380Y-78739995D01*
X227434910Y-78542302D01*
X227434909Y-78542301D01*
X227434909Y-78542299D01*
X227433924Y-78539051D01*
X227428500Y-78502481D01*
X227428500Y-58805265D01*
X230682788Y-58805265D01*
X230712412Y-59074514D01*
X230780928Y-59336590D01*
X230886869Y-59585889D01*
X230896301Y-59601344D01*
X231027982Y-59817110D01*
X231201255Y-60025320D01*
X231201257Y-60025322D01*
X231201259Y-60025324D01*
X231326093Y-60137175D01*
X231402998Y-60206082D01*
X231628910Y-60355544D01*
X231874176Y-60470520D01*
X232133569Y-60548560D01*
X232133572Y-60548560D01*
X232133574Y-60548561D01*
X232401557Y-60588000D01*
X232401561Y-60588000D01*
X232604633Y-60588000D01*
X232639363Y-60585457D01*
X232807156Y-60573177D01*
X232807160Y-60573176D01*
X232807161Y-60573176D01*
X232917665Y-60548560D01*
X233071553Y-60514280D01*
X233324558Y-60417514D01*
X233560777Y-60284941D01*
X233775177Y-60119388D01*
X233963186Y-59924381D01*
X234120799Y-59704079D01*
X234138422Y-59669803D01*
X234244656Y-59463175D01*
X234244657Y-59463172D01*
X234268046Y-59394615D01*
X234332118Y-59206805D01*
X234371257Y-58994909D01*
X234381318Y-58940441D01*
X234381319Y-58940430D01*
X234382107Y-58918879D01*
X234391212Y-58669735D01*
X234375015Y-58522526D01*
X234361587Y-58400485D01*
X234313379Y-58216086D01*
X234293072Y-58138412D01*
X234272528Y-58090069D01*
X234187130Y-57889110D01*
X234147212Y-57823702D01*
X234046018Y-57657890D01*
X233872745Y-57449680D01*
X233872741Y-57449677D01*
X233872740Y-57449675D01*
X233671012Y-57268927D01*
X233671002Y-57268918D01*
X233445090Y-57119456D01*
X233199824Y-57004480D01*
X233031544Y-56953852D01*
X232940425Y-56926438D01*
X232672442Y-56887000D01*
X232672439Y-56887000D01*
X232469369Y-56887000D01*
X232469367Y-56887000D01*
X232266839Y-56901823D01*
X232266838Y-56901823D01*
X232002456Y-56960717D01*
X232002441Y-56960722D01*
X231749441Y-57057486D01*
X231513229Y-57190055D01*
X231513225Y-57190057D01*
X231298818Y-57355616D01*
X231110815Y-57550617D01*
X231110810Y-57550623D01*
X230953203Y-57770917D01*
X230953196Y-57770927D01*
X230829343Y-58011824D01*
X230829342Y-58011827D01*
X230741883Y-58268189D01*
X230741880Y-58268202D01*
X230692681Y-58534558D01*
X230692680Y-58534569D01*
X230682788Y-58805265D01*
X227428500Y-58805265D01*
X227428500Y-55597462D01*
X227428500Y-55597453D01*
X227413908Y-55449299D01*
X227356241Y-55259196D01*
X227262595Y-55083996D01*
X227136568Y-54930432D01*
X226983004Y-54804405D01*
X226807804Y-54710759D01*
X226617701Y-54653092D01*
X226617700Y-54653091D01*
X226617694Y-54653090D01*
X226420003Y-54633620D01*
X226419997Y-54633620D01*
X226222305Y-54653090D01*
X226032195Y-54710759D01*
X225856995Y-54804405D01*
X225703432Y-54930432D01*
X225577405Y-55083995D01*
X225483759Y-55259195D01*
X225426090Y-55449305D01*
X225411500Y-55597446D01*
X225411500Y-78291075D01*
X225391498Y-78359196D01*
X225374595Y-78380170D01*
X222590115Y-81164650D01*
X222585532Y-81168804D01*
X222549432Y-81198430D01*
X222423405Y-81351995D01*
X222357680Y-81474959D01*
X222329760Y-81527192D01*
X222329754Y-81527207D01*
X222272091Y-81717295D01*
X222272089Y-81717307D01*
X222252620Y-81914995D01*
X222252620Y-81915002D01*
X198055000Y-81915002D01*
X198055000Y-73660000D01*
X200889496Y-73660000D01*
X200909457Y-73849927D01*
X200939526Y-73942470D01*
X200968473Y-74031556D01*
X200968476Y-74031561D01*
X201063958Y-74196941D01*
X201063965Y-74196951D01*
X201191744Y-74338864D01*
X201191747Y-74338866D01*
X201346248Y-74451118D01*
X201520712Y-74528794D01*
X201707513Y-74568500D01*
X201898487Y-74568500D01*
X202085288Y-74528794D01*
X202259752Y-74451118D01*
X202414253Y-74338866D01*
X202417563Y-74335190D01*
X202478009Y-74297950D01*
X202511200Y-74293500D01*
X213159800Y-74293500D01*
X213227921Y-74313502D01*
X213253437Y-74335190D01*
X213256747Y-74338866D01*
X213411248Y-74451118D01*
X213585712Y-74528794D01*
X213772513Y-74568500D01*
X213963487Y-74568500D01*
X214150288Y-74528794D01*
X214324752Y-74451118D01*
X214479253Y-74338866D01*
X214572194Y-74235645D01*
X214607034Y-74196951D01*
X214607035Y-74196949D01*
X214607040Y-74196944D01*
X214702527Y-74031556D01*
X214761542Y-73849928D01*
X214781504Y-73660000D01*
X214761542Y-73470072D01*
X214702527Y-73288444D01*
X214607040Y-73123056D01*
X214607038Y-73123054D01*
X214607034Y-73123048D01*
X214479255Y-72981135D01*
X214324752Y-72868882D01*
X214150288Y-72791206D01*
X213963487Y-72751500D01*
X213772513Y-72751500D01*
X213585711Y-72791206D01*
X213411247Y-72868882D01*
X213256747Y-72981133D01*
X213253437Y-72984810D01*
X213192991Y-73022050D01*
X213159800Y-73026500D01*
X202511200Y-73026500D01*
X202443079Y-73006498D01*
X202417563Y-72984810D01*
X202414252Y-72981133D01*
X202259752Y-72868882D01*
X202085288Y-72791206D01*
X201898487Y-72751500D01*
X201707513Y-72751500D01*
X201520711Y-72791206D01*
X201346247Y-72868882D01*
X201191744Y-72981135D01*
X201063965Y-73123048D01*
X201063958Y-73123058D01*
X200968476Y-73288438D01*
X200968473Y-73288444D01*
X200965800Y-73296672D01*
X200909457Y-73470072D01*
X200889496Y-73660000D01*
X198055000Y-73660000D01*
X198055000Y-61976000D01*
X200889496Y-61976000D01*
X200909457Y-62165927D01*
X200927316Y-62220890D01*
X200968473Y-62347556D01*
X200968476Y-62347561D01*
X201063958Y-62512941D01*
X201063965Y-62512951D01*
X201191744Y-62654864D01*
X201191747Y-62654866D01*
X201346248Y-62767118D01*
X201520712Y-62844794D01*
X201707513Y-62884500D01*
X201898487Y-62884500D01*
X202085288Y-62844794D01*
X202259752Y-62767118D01*
X202414253Y-62654866D01*
X202417563Y-62651190D01*
X202478009Y-62613950D01*
X202511200Y-62609500D01*
X213413800Y-62609500D01*
X213481921Y-62629502D01*
X213507437Y-62651190D01*
X213510747Y-62654866D01*
X213665248Y-62767118D01*
X213839712Y-62844794D01*
X214026513Y-62884500D01*
X214217487Y-62884500D01*
X214404288Y-62844794D01*
X214578752Y-62767118D01*
X214733253Y-62654866D01*
X214758910Y-62626371D01*
X214861034Y-62512951D01*
X214861035Y-62512949D01*
X214861040Y-62512944D01*
X214956527Y-62347556D01*
X215015542Y-62165928D01*
X215035504Y-61976000D01*
X215015542Y-61786072D01*
X214956527Y-61604444D01*
X214861040Y-61439056D01*
X214861038Y-61439054D01*
X214861034Y-61439048D01*
X214733255Y-61297135D01*
X214578752Y-61184882D01*
X214404288Y-61107206D01*
X214217487Y-61067500D01*
X214026513Y-61067500D01*
X213839711Y-61107206D01*
X213665247Y-61184882D01*
X213510747Y-61297133D01*
X213507437Y-61300810D01*
X213446991Y-61338050D01*
X213413800Y-61342500D01*
X202511200Y-61342500D01*
X202443079Y-61322498D01*
X202417563Y-61300810D01*
X202414252Y-61297133D01*
X202259752Y-61184882D01*
X202085288Y-61107206D01*
X201898487Y-61067500D01*
X201707513Y-61067500D01*
X201520711Y-61107206D01*
X201346247Y-61184882D01*
X201191744Y-61297135D01*
X201063965Y-61439048D01*
X201063958Y-61439058D01*
X200968476Y-61604438D01*
X200968473Y-61604445D01*
X200909457Y-61786072D01*
X200889496Y-61976000D01*
X198055000Y-61976000D01*
X198055000Y-61912950D01*
X198075002Y-61844829D01*
X198128658Y-61798336D01*
X198198932Y-61788232D01*
X198256508Y-61812082D01*
X198280296Y-61829889D01*
X198320488Y-61844880D01*
X198417295Y-61880988D01*
X198417303Y-61880990D01*
X198477850Y-61887499D01*
X198477855Y-61887499D01*
X198477862Y-61887500D01*
X198477868Y-61887500D01*
X200175132Y-61887500D01*
X200175138Y-61887500D01*
X200175145Y-61887499D01*
X200175149Y-61887499D01*
X200235696Y-61880990D01*
X200235699Y-61880989D01*
X200235701Y-61880989D01*
X200372704Y-61829889D01*
X200422279Y-61792778D01*
X200489761Y-61742261D01*
X200577387Y-61625207D01*
X200577387Y-61625206D01*
X200577389Y-61625204D01*
X200628489Y-61488201D01*
X200633773Y-61439056D01*
X200634999Y-61427649D01*
X200635000Y-61427632D01*
X200635000Y-59730367D01*
X200634999Y-59730350D01*
X200628490Y-59669803D01*
X200628488Y-59669795D01*
X200594822Y-59579535D01*
X200577389Y-59532796D01*
X200577388Y-59532794D01*
X200577387Y-59532792D01*
X200489761Y-59415738D01*
X200372707Y-59328112D01*
X200372702Y-59328110D01*
X200235704Y-59277011D01*
X200235696Y-59277009D01*
X200175149Y-59270500D01*
X200175138Y-59270500D01*
X198477862Y-59270500D01*
X198477850Y-59270500D01*
X198417303Y-59277009D01*
X198417295Y-59277011D01*
X198280297Y-59328110D01*
X198280292Y-59328112D01*
X198163238Y-59415738D01*
X198075612Y-59532792D01*
X198075610Y-59532797D01*
X198024511Y-59669795D01*
X198024509Y-59669803D01*
X198018000Y-59730350D01*
X198018000Y-60483405D01*
X197997998Y-60551526D01*
X197944342Y-60598019D01*
X197874068Y-60608123D01*
X197809488Y-60578629D01*
X197802905Y-60572500D01*
X196059905Y-58829500D01*
X196025879Y-58767188D01*
X196023000Y-58740405D01*
X196023000Y-57217524D01*
X196043002Y-57149403D01*
X196055358Y-57133220D01*
X196104178Y-57079000D01*
X198013504Y-57079000D01*
X198033451Y-57307002D01*
X198092686Y-57528068D01*
X198092688Y-57528073D01*
X198189413Y-57735501D01*
X198239399Y-57806888D01*
X198927772Y-57118516D01*
X198941335Y-57204148D01*
X198998859Y-57317045D01*
X199088455Y-57406641D01*
X199201352Y-57464165D01*
X199286982Y-57477727D01*
X198598610Y-58166098D01*
X198598610Y-58166100D01*
X198669998Y-58216086D01*
X198877426Y-58312811D01*
X198877431Y-58312813D01*
X199098499Y-58372048D01*
X199098495Y-58372048D01*
X199326500Y-58391995D01*
X199554502Y-58372048D01*
X199775568Y-58312813D01*
X199775573Y-58312811D01*
X199982997Y-58216088D01*
X200054388Y-58166099D01*
X200054388Y-58166097D01*
X199366018Y-57477727D01*
X199451648Y-57464165D01*
X199564545Y-57406641D01*
X199654141Y-57317045D01*
X199711665Y-57204148D01*
X199725227Y-57118518D01*
X200413597Y-57806888D01*
X200413599Y-57806888D01*
X200463588Y-57735497D01*
X200560311Y-57528073D01*
X200560313Y-57528068D01*
X200619548Y-57307002D01*
X200639495Y-57079000D01*
X200619548Y-56850997D01*
X200560313Y-56629931D01*
X200560311Y-56629926D01*
X200463586Y-56422498D01*
X200413600Y-56351110D01*
X200413598Y-56351110D01*
X199725227Y-57039481D01*
X199711665Y-56953852D01*
X199654141Y-56840955D01*
X199564545Y-56751359D01*
X199451648Y-56693835D01*
X199366017Y-56680272D01*
X200054388Y-55991899D01*
X200054388Y-55991898D01*
X199983001Y-55941913D01*
X199775573Y-55845188D01*
X199775568Y-55845186D01*
X199554500Y-55785951D01*
X199554504Y-55785951D01*
X199326500Y-55766004D01*
X199098497Y-55785951D01*
X198877431Y-55845186D01*
X198877426Y-55845188D01*
X198670000Y-55941913D01*
X198598609Y-55991900D01*
X199286981Y-56680272D01*
X199201352Y-56693835D01*
X199088455Y-56751359D01*
X198998859Y-56840955D01*
X198941335Y-56953852D01*
X198927772Y-57039481D01*
X198239400Y-56351109D01*
X198189413Y-56422500D01*
X198092688Y-56629926D01*
X198092686Y-56629931D01*
X198033451Y-56850997D01*
X198013504Y-57079000D01*
X196104178Y-57079000D01*
X196128540Y-57051944D01*
X196224027Y-56886556D01*
X196283042Y-56704928D01*
X196303004Y-56515000D01*
X196283042Y-56325072D01*
X196224027Y-56143444D01*
X196128540Y-55978056D01*
X196128538Y-55978054D01*
X196128534Y-55978048D01*
X196000755Y-55836135D01*
X195846252Y-55723882D01*
X195671788Y-55646206D01*
X195484987Y-55606500D01*
X195294013Y-55606500D01*
X195107211Y-55646206D01*
X194932747Y-55723882D01*
X194778244Y-55836135D01*
X194650465Y-55978048D01*
X194650458Y-55978058D01*
X194554976Y-56143438D01*
X194554973Y-56143445D01*
X194495957Y-56325072D01*
X194475996Y-56515000D01*
X194495957Y-56704927D01*
X194526026Y-56797470D01*
X194554973Y-56886556D01*
X194564738Y-56903470D01*
X194623056Y-57004480D01*
X194650460Y-57051944D01*
X194723637Y-57133215D01*
X194754353Y-57197220D01*
X194756000Y-57217524D01*
X194756000Y-58971146D01*
X194754251Y-58986988D01*
X194754544Y-58987016D01*
X194753798Y-58994907D01*
X194756000Y-59064957D01*
X194756000Y-59094851D01*
X194756001Y-59094872D01*
X194756878Y-59101820D01*
X194757344Y-59107732D01*
X194758826Y-59154888D01*
X194758827Y-59154893D01*
X194764477Y-59174339D01*
X194768486Y-59193697D01*
X194771025Y-59213793D01*
X194771026Y-59213799D01*
X194788393Y-59257662D01*
X194790316Y-59263279D01*
X194803482Y-59308593D01*
X194813794Y-59326031D01*
X194822488Y-59343779D01*
X194829944Y-59362609D01*
X194829950Y-59362620D01*
X194857677Y-59400783D01*
X194860937Y-59405746D01*
X194884960Y-59446365D01*
X194899279Y-59460684D01*
X194912117Y-59475714D01*
X194921656Y-59488843D01*
X194924028Y-59492107D01*
X194932965Y-59499500D01*
X194960386Y-59522185D01*
X194964767Y-59526171D01*
X195909115Y-60470519D01*
X196751095Y-61312499D01*
X196785121Y-61374811D01*
X196788000Y-61401594D01*
X196788000Y-88337646D01*
X196786251Y-88353488D01*
X196786544Y-88353516D01*
X196785798Y-88361407D01*
X196788000Y-88431457D01*
X196788000Y-88461351D01*
X196788001Y-88461372D01*
X196788878Y-88468320D01*
X196789344Y-88474232D01*
X196790826Y-88521388D01*
X196790827Y-88521393D01*
X196796477Y-88540839D01*
X196800486Y-88560197D01*
X196803025Y-88580293D01*
X196803026Y-88580299D01*
X196820393Y-88624162D01*
X196822316Y-88629779D01*
X196835482Y-88675093D01*
X196845794Y-88692531D01*
X196854488Y-88710279D01*
X196861944Y-88729109D01*
X196861950Y-88729120D01*
X196889677Y-88767283D01*
X196892937Y-88772246D01*
X196916960Y-88812865D01*
X196931279Y-88827184D01*
X196944117Y-88842214D01*
X196953656Y-88855343D01*
X196956028Y-88858607D01*
X196972520Y-88872250D01*
X196992386Y-88888685D01*
X196996767Y-88892671D01*
X199218690Y-91114594D01*
X201429595Y-93325499D01*
X201463621Y-93387811D01*
X201466500Y-93414594D01*
X201466500Y-95605326D01*
X201460333Y-95644262D01*
X201406457Y-95810071D01*
X201386496Y-96000000D01*
X201406457Y-96189927D01*
X201428549Y-96257916D01*
X201465473Y-96371556D01*
X201465476Y-96371561D01*
X201560958Y-96536941D01*
X201560965Y-96536951D01*
X201688739Y-96678859D01*
X201690619Y-96680551D01*
X201691390Y-96681803D01*
X201693165Y-96683774D01*
X201692804Y-96684098D01*
X201727863Y-96740994D01*
X201726518Y-96811977D01*
X201687009Y-96870965D01*
X201632514Y-96897440D01*
X201520715Y-96921204D01*
X201346247Y-96998882D01*
X201191747Y-97111133D01*
X201188437Y-97114810D01*
X201127991Y-97152050D01*
X201094800Y-97156500D01*
X198180595Y-97156500D01*
X198112474Y-97136498D01*
X198091500Y-97119595D01*
X197837905Y-96866000D01*
X197803879Y-96803688D01*
X197801000Y-96776905D01*
X197801000Y-93746349D01*
X197802749Y-93730512D01*
X197802455Y-93730485D01*
X197803201Y-93722592D01*
X197801000Y-93652559D01*
X197801000Y-93622651D01*
X197801000Y-93622644D01*
X197800120Y-93615685D01*
X197799655Y-93609780D01*
X197798173Y-93562610D01*
X197792522Y-93543163D01*
X197788512Y-93523800D01*
X197785974Y-93503703D01*
X197768600Y-93459823D01*
X197766684Y-93454225D01*
X197753518Y-93408906D01*
X197743200Y-93391461D01*
X197734505Y-93373709D01*
X197727053Y-93354885D01*
X197727050Y-93354879D01*
X197699318Y-93316710D01*
X197696062Y-93311753D01*
X197672042Y-93271137D01*
X197672040Y-93271135D01*
X197672040Y-93271134D01*
X197657718Y-93256812D01*
X197644877Y-93241779D01*
X197632971Y-93225392D01*
X197614225Y-93209884D01*
X197596608Y-93195310D01*
X197592236Y-93191331D01*
X195869405Y-91468500D01*
X195835379Y-91406188D01*
X195832500Y-91379405D01*
X195832500Y-90401524D01*
X195852502Y-90333403D01*
X195864858Y-90317220D01*
X195938040Y-90235944D01*
X196033527Y-90070556D01*
X196092542Y-89888928D01*
X196112504Y-89699000D01*
X196092542Y-89509072D01*
X196033527Y-89327444D01*
X195938040Y-89162056D01*
X195938038Y-89162054D01*
X195938034Y-89162048D01*
X195810255Y-89020135D01*
X195655752Y-88907882D01*
X195481288Y-88830206D01*
X195294487Y-88790500D01*
X195103513Y-88790500D01*
X194916711Y-88830206D01*
X194742247Y-88907882D01*
X194587744Y-89020135D01*
X194459965Y-89162048D01*
X194459958Y-89162058D01*
X194364891Y-89326720D01*
X194364473Y-89327444D01*
X194349999Y-89371986D01*
X194305457Y-89509072D01*
X194285496Y-89699000D01*
X164975734Y-89699000D01*
X164857334Y-89580600D01*
X164857326Y-89580592D01*
X164742253Y-89486155D01*
X164567055Y-89392509D01*
X164567053Y-89392508D01*
X164376954Y-89334841D01*
X164376942Y-89334839D01*
X164179254Y-89315370D01*
X164179246Y-89315370D01*
X163981557Y-89334839D01*
X163981545Y-89334841D01*
X163791446Y-89392508D01*
X163791444Y-89392509D01*
X163616249Y-89486153D01*
X163462682Y-89612182D01*
X163336653Y-89765749D01*
X163243009Y-89940944D01*
X163243008Y-89940946D01*
X163185341Y-90131045D01*
X163185339Y-90131057D01*
X163165870Y-90328745D01*
X163165870Y-90328754D01*
X163185339Y-90526442D01*
X163185341Y-90526454D01*
X163243008Y-90716553D01*
X163243009Y-90716555D01*
X163336655Y-90891753D01*
X163431092Y-91006826D01*
X163431100Y-91006834D01*
X164010377Y-91586112D01*
X164010396Y-91586130D01*
X164034348Y-91610082D01*
X164058173Y-91633907D01*
X164095171Y-91670905D01*
X164129197Y-91733217D01*
X164124132Y-91804032D01*
X164081585Y-91860868D01*
X164015065Y-91885679D01*
X164006076Y-91886000D01*
X160715594Y-91886000D01*
X160647473Y-91865998D01*
X160626499Y-91849095D01*
X158360951Y-89583546D01*
X158326925Y-89521234D01*
X158331990Y-89450418D01*
X158374537Y-89393583D01*
X158375982Y-89392517D01*
X158375995Y-89392508D01*
X158409286Y-89368318D01*
X158414244Y-89365062D01*
X158454862Y-89341042D01*
X158469185Y-89326718D01*
X158484224Y-89313874D01*
X158500607Y-89301972D01*
X158530688Y-89265608D01*
X158534666Y-89261236D01*
X159088663Y-88707240D01*
X159101097Y-88697281D01*
X159100909Y-88697054D01*
X159107014Y-88692003D01*
X159107015Y-88692001D01*
X159107018Y-88692000D01*
X159154984Y-88640920D01*
X159176135Y-88619770D01*
X159180445Y-88614212D01*
X159184274Y-88609729D01*
X159216586Y-88575321D01*
X159226346Y-88557565D01*
X159237195Y-88541050D01*
X159249614Y-88525041D01*
X159268363Y-88481710D01*
X159270953Y-88476423D01*
X159293695Y-88435060D01*
X159298733Y-88415434D01*
X159305137Y-88396732D01*
X159313181Y-88378145D01*
X159320561Y-88331547D01*
X159321762Y-88325740D01*
X159333500Y-88280030D01*
X159333500Y-88259775D01*
X159335051Y-88240063D01*
X159338220Y-88220057D01*
X159334547Y-88181198D01*
X159333780Y-88173080D01*
X159333500Y-88167148D01*
X159333500Y-87950544D01*
X177291500Y-87950544D01*
X177302112Y-88054425D01*
X177357885Y-88222738D01*
X177450970Y-88373652D01*
X177450975Y-88373658D01*
X177576341Y-88499024D01*
X177576347Y-88499029D01*
X177576348Y-88499030D01*
X177727262Y-88592115D01*
X177895574Y-88647887D01*
X177999455Y-88658500D01*
X179600544Y-88658499D01*
X179704426Y-88647887D01*
X179872738Y-88592115D01*
X180023652Y-88499030D01*
X180149030Y-88373652D01*
X180242115Y-88222738D01*
X180297887Y-88054426D01*
X180308500Y-87950545D01*
X180308499Y-86649456D01*
X180306488Y-86629775D01*
X180297887Y-86545574D01*
X180285529Y-86508280D01*
X180249830Y-86400544D01*
X186041500Y-86400544D01*
X186052112Y-86504425D01*
X186107885Y-86672738D01*
X186200970Y-86823652D01*
X186200975Y-86823658D01*
X186326341Y-86949024D01*
X186326347Y-86949029D01*
X186326348Y-86949030D01*
X186477262Y-87042115D01*
X186645574Y-87097887D01*
X186749455Y-87108500D01*
X188050544Y-87108499D01*
X188154426Y-87097887D01*
X188322738Y-87042115D01*
X188473652Y-86949030D01*
X188599030Y-86823652D01*
X188689331Y-86677250D01*
X188742115Y-86629775D01*
X188812190Y-86618372D01*
X188877305Y-86646664D01*
X188887536Y-86656216D01*
X188999556Y-86773096D01*
X188999564Y-86773102D01*
X189185413Y-86910556D01*
X189391834Y-87014630D01*
X189391833Y-87014630D01*
X189612864Y-87082320D01*
X189646000Y-87086562D01*
X189646000Y-86033674D01*
X189757685Y-86084680D01*
X189864237Y-86100000D01*
X189935763Y-86100000D01*
X190042315Y-86084680D01*
X190154000Y-86033674D01*
X190154000Y-87084437D01*
X190299093Y-87053167D01*
X190513587Y-86966977D01*
X190710435Y-86845772D01*
X190883961Y-86693048D01*
X190883964Y-86693045D01*
X191029180Y-86513199D01*
X191141922Y-86311382D01*
X191218931Y-86093429D01*
X191258000Y-85865580D01*
X191258000Y-85854000D01*
X190331116Y-85854000D01*
X190359493Y-85809844D01*
X190400000Y-85671889D01*
X190400000Y-85528111D01*
X190359493Y-85390156D01*
X190331116Y-85346000D01*
X191254058Y-85346000D01*
X191254057Y-85345999D01*
X191243306Y-85219668D01*
X191243304Y-85219661D01*
X191185059Y-84995966D01*
X191089842Y-84785321D01*
X191089839Y-84785315D01*
X190960393Y-84593794D01*
X190960387Y-84593786D01*
X190800443Y-84426903D01*
X190800435Y-84426897D01*
X190614586Y-84289443D01*
X190408165Y-84185369D01*
X190187137Y-84117680D01*
X190154000Y-84113435D01*
X190154000Y-85166325D01*
X190042315Y-85115320D01*
X189935763Y-85100000D01*
X189864237Y-85100000D01*
X189757685Y-85115320D01*
X189646000Y-85166325D01*
X189646000Y-84115561D01*
X189500906Y-84146831D01*
X189286412Y-84233022D01*
X189089564Y-84354227D01*
X188916038Y-84506951D01*
X188916033Y-84506956D01*
X188893812Y-84534476D01*
X188835454Y-84574910D01*
X188764500Y-84577374D01*
X188703478Y-84541087D01*
X188688540Y-84521466D01*
X188641992Y-84446000D01*
X188599030Y-84376348D01*
X188599029Y-84376347D01*
X188599024Y-84376341D01*
X188473658Y-84250975D01*
X188473652Y-84250970D01*
X188353003Y-84176553D01*
X188322738Y-84157885D01*
X188201405Y-84117680D01*
X188154427Y-84102113D01*
X188154420Y-84102112D01*
X188050553Y-84091500D01*
X186749455Y-84091500D01*
X186645574Y-84102112D01*
X186477261Y-84157885D01*
X186326347Y-84250970D01*
X186326341Y-84250975D01*
X186200975Y-84376341D01*
X186200970Y-84376347D01*
X186107885Y-84527262D01*
X186052113Y-84695572D01*
X186052112Y-84695579D01*
X186041500Y-84799446D01*
X186041500Y-86400544D01*
X180249830Y-86400544D01*
X180242115Y-86377262D01*
X180149030Y-86226348D01*
X180149029Y-86226347D01*
X180149024Y-86226341D01*
X180023658Y-86100975D01*
X180023652Y-86100970D01*
X179997242Y-86084680D01*
X179877252Y-86010669D01*
X179829775Y-85957884D01*
X179818372Y-85887809D01*
X179846665Y-85822693D01*
X179856216Y-85812462D01*
X179973101Y-85700436D01*
X179973102Y-85700435D01*
X180110556Y-85514586D01*
X180214630Y-85308165D01*
X180282320Y-85087135D01*
X180286563Y-85054000D01*
X179231116Y-85054000D01*
X179259493Y-85009844D01*
X179300000Y-84871889D01*
X179300000Y-84728111D01*
X179259493Y-84590156D01*
X179231116Y-84546000D01*
X180284439Y-84546000D01*
X180253168Y-84400906D01*
X180166977Y-84186412D01*
X180045772Y-83989564D01*
X179893048Y-83816038D01*
X179893045Y-83816035D01*
X179713199Y-83670819D01*
X179511382Y-83558077D01*
X179293429Y-83481068D01*
X179065580Y-83442000D01*
X179054000Y-83442000D01*
X179054000Y-84366325D01*
X178942315Y-84315320D01*
X178835763Y-84300000D01*
X178764237Y-84300000D01*
X178657685Y-84315320D01*
X178546000Y-84366325D01*
X178546000Y-83445941D01*
X178419666Y-83456694D01*
X178419660Y-83456695D01*
X178195966Y-83514940D01*
X177985321Y-83610157D01*
X177985315Y-83610160D01*
X177793794Y-83739606D01*
X177793786Y-83739612D01*
X177626903Y-83899556D01*
X177626897Y-83899564D01*
X177489443Y-84085413D01*
X177385369Y-84291834D01*
X177317679Y-84512864D01*
X177313437Y-84546000D01*
X178368884Y-84546000D01*
X178340507Y-84590156D01*
X178300000Y-84728111D01*
X178300000Y-84871889D01*
X178340507Y-85009844D01*
X178368884Y-85054000D01*
X177315561Y-85054000D01*
X177346831Y-85199093D01*
X177433022Y-85413587D01*
X177554227Y-85610435D01*
X177706951Y-85783961D01*
X177706950Y-85783961D01*
X177734474Y-85806184D01*
X177774910Y-85864541D01*
X177777377Y-85935494D01*
X177741091Y-85996518D01*
X177721467Y-86011458D01*
X177576353Y-86100966D01*
X177576341Y-86100975D01*
X177450975Y-86226341D01*
X177450970Y-86226347D01*
X177357885Y-86377262D01*
X177302113Y-86545572D01*
X177302112Y-86545579D01*
X177291500Y-86649446D01*
X177291500Y-87950544D01*
X159333500Y-87950544D01*
X159333500Y-83814594D01*
X159353502Y-83746473D01*
X159370405Y-83725499D01*
X160625500Y-82470405D01*
X160687812Y-82436379D01*
X160714595Y-82433500D01*
X183292147Y-82433500D01*
X183307988Y-82435249D01*
X183308016Y-82434956D01*
X183315902Y-82435700D01*
X183315909Y-82435702D01*
X183385958Y-82433500D01*
X183415856Y-82433500D01*
X183422818Y-82432619D01*
X183428719Y-82432154D01*
X183475889Y-82430673D01*
X183495347Y-82425019D01*
X183514694Y-82421013D01*
X183534797Y-82418474D01*
X183578679Y-82401099D01*
X183584274Y-82399183D01*
X183612816Y-82390891D01*
X183629591Y-82386019D01*
X183629595Y-82386017D01*
X183647026Y-82375708D01*
X183664780Y-82367009D01*
X183683617Y-82359552D01*
X183721786Y-82331818D01*
X183726744Y-82328562D01*
X183767362Y-82304542D01*
X183781685Y-82290218D01*
X183796724Y-82277374D01*
X183813107Y-82265472D01*
X183843193Y-82229103D01*
X183847161Y-82224741D01*
X189226407Y-76845495D01*
X189288717Y-76811471D01*
X189359532Y-76816536D01*
X189416368Y-76859083D01*
X189441179Y-76925603D01*
X189441500Y-76934592D01*
X189441500Y-78300544D01*
X189452112Y-78404425D01*
X189507885Y-78572738D01*
X189600970Y-78723652D01*
X189600975Y-78723658D01*
X189726341Y-78849024D01*
X189726347Y-78849029D01*
X189726348Y-78849030D01*
X189877262Y-78942115D01*
X190045574Y-78997887D01*
X190149455Y-79008500D01*
X191450544Y-79008499D01*
X191554426Y-78997887D01*
X191722738Y-78942115D01*
X191873652Y-78849030D01*
X191999030Y-78723652D01*
X192089059Y-78577691D01*
X192141844Y-78530215D01*
X192211919Y-78518812D01*
X192277035Y-78547104D01*
X192287260Y-78556651D01*
X192302679Y-78572738D01*
X192399230Y-78673478D01*
X192585154Y-78810986D01*
X192652841Y-78845112D01*
X192791643Y-78915095D01*
X193012757Y-78982811D01*
X193242135Y-79012184D01*
X193473178Y-79002369D01*
X193699238Y-78953649D01*
X193913813Y-78867426D01*
X194110730Y-78746179D01*
X194284324Y-78593398D01*
X194429600Y-78413476D01*
X194542380Y-78211591D01*
X194619419Y-77993550D01*
X194658500Y-77765625D01*
X194658500Y-77292287D01*
X194643801Y-77119582D01*
X194585530Y-76895793D01*
X194490278Y-76685071D01*
X194360783Y-76493477D01*
X194200772Y-76326524D01*
X194200771Y-76326523D01*
X194200769Y-76326521D01*
X194014845Y-76189013D01*
X193831221Y-76096433D01*
X193808357Y-76084905D01*
X193808354Y-76084904D01*
X193808352Y-76084903D01*
X193712494Y-76055547D01*
X193587243Y-76017189D01*
X193357865Y-75987816D01*
X193357861Y-75987816D01*
X193357860Y-75987816D01*
X193312586Y-75989739D01*
X193243678Y-75972645D01*
X193194951Y-75921010D01*
X193181874Y-75851228D01*
X193208600Y-75785454D01*
X193218136Y-75774766D01*
X194428157Y-74564745D01*
X194440592Y-74554784D01*
X194440405Y-74554557D01*
X194446509Y-74549505D01*
X194446518Y-74549500D01*
X194494499Y-74498404D01*
X194515634Y-74477270D01*
X194519929Y-74471732D01*
X194523771Y-74467231D01*
X194556086Y-74432821D01*
X194565845Y-74415067D01*
X194576697Y-74398546D01*
X194589113Y-74382541D01*
X194607847Y-74339248D01*
X194610461Y-74333912D01*
X194621682Y-74313502D01*
X194633195Y-74292560D01*
X194638233Y-74272935D01*
X194644638Y-74254230D01*
X194652681Y-74235645D01*
X194660061Y-74189047D01*
X194661262Y-74183240D01*
X194673000Y-74137530D01*
X194673000Y-74117275D01*
X194674551Y-74097563D01*
X194677720Y-74077557D01*
X194675129Y-74050151D01*
X194673280Y-74030580D01*
X194673000Y-74024648D01*
X194673000Y-72774691D01*
X194693002Y-72706570D01*
X194732933Y-72667401D01*
X194850230Y-72595179D01*
X195023824Y-72442398D01*
X195169100Y-72262476D01*
X195281880Y-72060591D01*
X195347640Y-71874473D01*
X195358917Y-71842557D01*
X195358917Y-71842556D01*
X195358917Y-71842555D01*
X195358919Y-71842550D01*
X195398000Y-71614625D01*
X195398000Y-71191287D01*
X195383301Y-71018582D01*
X195325030Y-70794793D01*
X195229778Y-70584071D01*
X195100283Y-70392477D01*
X194940272Y-70225524D01*
X194754347Y-70088015D01*
X194754343Y-70088013D01*
X194754339Y-70088010D01*
X194742270Y-70081924D01*
X194690450Y-70033393D01*
X194673000Y-69969418D01*
X194673000Y-62741853D01*
X194674749Y-62726011D01*
X194674456Y-62725984D01*
X194675202Y-62718091D01*
X194673000Y-62648028D01*
X194673000Y-62618150D01*
X194673000Y-62618144D01*
X194672120Y-62611182D01*
X194671656Y-62605293D01*
X194670174Y-62558111D01*
X194664517Y-62538642D01*
X194660512Y-62519298D01*
X194657974Y-62499203D01*
X194640600Y-62455322D01*
X194638681Y-62449716D01*
X194638472Y-62448998D01*
X194625518Y-62404407D01*
X194618604Y-62392716D01*
X194615206Y-62386970D01*
X194606510Y-62369221D01*
X194599052Y-62350383D01*
X194571312Y-62312203D01*
X194568064Y-62307258D01*
X194544042Y-62266638D01*
X194529714Y-62252310D01*
X194516884Y-62237289D01*
X194504972Y-62220893D01*
X194504969Y-62220891D01*
X194504969Y-62220890D01*
X194468607Y-62190808D01*
X194464226Y-62186822D01*
X192491244Y-60213839D01*
X192481279Y-60201401D01*
X192481052Y-60201590D01*
X192476001Y-60195484D01*
X192476000Y-60195482D01*
X192424920Y-60147515D01*
X192414576Y-60137171D01*
X192403777Y-60126371D01*
X192403772Y-60126366D01*
X192398225Y-60122063D01*
X192393717Y-60118212D01*
X192359325Y-60085917D01*
X192359319Y-60085913D01*
X192341563Y-60076151D01*
X192325047Y-60065302D01*
X192309041Y-60052886D01*
X192278289Y-60039578D01*
X192265740Y-60034148D01*
X192260408Y-60031536D01*
X192219061Y-60008805D01*
X192199436Y-60003766D01*
X192180736Y-59997364D01*
X192162145Y-59989319D01*
X192162143Y-59989318D01*
X192162142Y-59989318D01*
X192115542Y-59981937D01*
X192109729Y-59980733D01*
X192064030Y-59969000D01*
X192043776Y-59969000D01*
X192024066Y-59967449D01*
X192004057Y-59964280D01*
X192004056Y-59964280D01*
X191957083Y-59968720D01*
X191951150Y-59969000D01*
X191265692Y-59969000D01*
X191197571Y-59948998D01*
X191158400Y-59909063D01*
X191086180Y-59791772D01*
X191086179Y-59791770D01*
X191032138Y-59730367D01*
X190933398Y-59618175D01*
X190905976Y-59596034D01*
X190865542Y-59537677D01*
X190863076Y-59466723D01*
X190899363Y-59405700D01*
X190918979Y-59390765D01*
X191063652Y-59301530D01*
X191189030Y-59176152D01*
X191282115Y-59025238D01*
X191337887Y-58856926D01*
X191348500Y-58753045D01*
X191348499Y-57451956D01*
X191348266Y-57449680D01*
X191337887Y-57348074D01*
X191327260Y-57316004D01*
X191282115Y-57179762D01*
X191189030Y-57028848D01*
X191189029Y-57028847D01*
X191189024Y-57028841D01*
X191063658Y-56903475D01*
X191063652Y-56903470D01*
X190978580Y-56850997D01*
X190912738Y-56810385D01*
X190828582Y-56782499D01*
X190744427Y-56754613D01*
X190744420Y-56754612D01*
X190640553Y-56744000D01*
X189089455Y-56744000D01*
X188985574Y-56754612D01*
X188817261Y-56810385D01*
X188666347Y-56903470D01*
X188666341Y-56903475D01*
X188540975Y-57028841D01*
X188540970Y-57028847D01*
X188447885Y-57179761D01*
X188422082Y-57257633D01*
X188381668Y-57316004D01*
X188316111Y-57343260D01*
X188302477Y-57344000D01*
X187437371Y-57344000D01*
X187369250Y-57323998D01*
X187348276Y-57307095D01*
X186636908Y-56595727D01*
X186624936Y-56581875D01*
X186610469Y-56562442D01*
X186605154Y-56557982D01*
X186570024Y-56528503D01*
X186565970Y-56524789D01*
X186560107Y-56518925D01*
X186556682Y-56516217D01*
X186534103Y-56498363D01*
X186474640Y-56448468D01*
X186474638Y-56448467D01*
X186474636Y-56448465D01*
X186468506Y-56444433D01*
X186468541Y-56444378D01*
X186462187Y-56440329D01*
X186462153Y-56440386D01*
X186455906Y-56436533D01*
X186385540Y-56403720D01*
X186379546Y-56400710D01*
X186316188Y-56368891D01*
X186316186Y-56368890D01*
X186316183Y-56368889D01*
X186309289Y-56366380D01*
X186309311Y-56366317D01*
X186302189Y-56363841D01*
X186302169Y-56363904D01*
X186295209Y-56361597D01*
X186219150Y-56345892D01*
X186143652Y-56327999D01*
X186136367Y-56327148D01*
X186136374Y-56327080D01*
X186128877Y-56326314D01*
X186128872Y-56326381D01*
X186121559Y-56325741D01*
X186121558Y-56325741D01*
X186043920Y-56328000D01*
X169291941Y-56328000D01*
X169273681Y-56326670D01*
X169249711Y-56323159D01*
X169197115Y-56327760D01*
X169191622Y-56328000D01*
X169183318Y-56328000D01*
X169161376Y-56330564D01*
X169150405Y-56331847D01*
X169141232Y-56332649D01*
X169073077Y-56338612D01*
X169065886Y-56340097D01*
X169065872Y-56340032D01*
X169058514Y-56341663D01*
X169058530Y-56341728D01*
X169051389Y-56343420D01*
X168978444Y-56369969D01*
X168904760Y-56394385D01*
X168898113Y-56397486D01*
X168898085Y-56397426D01*
X168891301Y-56400710D01*
X168891331Y-56400769D01*
X168884768Y-56404065D01*
X168819900Y-56446728D01*
X168753847Y-56487471D01*
X168748092Y-56492022D01*
X168748051Y-56491970D01*
X168742204Y-56496733D01*
X168742246Y-56496783D01*
X168736628Y-56501496D01*
X168683336Y-56557982D01*
X168038225Y-57203092D01*
X168024376Y-57215062D01*
X168004943Y-57229530D01*
X167971007Y-57269971D01*
X167967300Y-57274017D01*
X167961421Y-57279897D01*
X167961412Y-57279907D01*
X167940863Y-57305896D01*
X167899148Y-57355612D01*
X167890965Y-57365364D01*
X167886935Y-57371491D01*
X167886880Y-57371455D01*
X167882825Y-57377820D01*
X167882882Y-57377855D01*
X167879028Y-57384101D01*
X167846220Y-57454458D01*
X167811391Y-57523812D01*
X167808882Y-57530707D01*
X167808820Y-57530684D01*
X167806343Y-57537810D01*
X167806404Y-57537831D01*
X167804097Y-57544790D01*
X167788392Y-57620849D01*
X167788392Y-57620850D01*
X167771077Y-57693912D01*
X167770500Y-57696345D01*
X167769648Y-57703634D01*
X167769581Y-57703626D01*
X167768814Y-57711126D01*
X167768881Y-57711132D01*
X167768241Y-57718442D01*
X167770500Y-57796079D01*
X167770500Y-58414022D01*
X167750498Y-58482143D01*
X167716777Y-58517230D01*
X167709219Y-58522523D01*
X167709215Y-58522526D01*
X167552020Y-58679722D01*
X167424512Y-58861823D01*
X167373195Y-58971873D01*
X167326277Y-59025158D01*
X167258000Y-59044619D01*
X167190040Y-59024077D01*
X167144805Y-58971873D01*
X167107600Y-58892088D01*
X167093488Y-58861824D01*
X166965977Y-58679719D01*
X166808781Y-58522523D01*
X166808777Y-58522520D01*
X166808772Y-58522516D01*
X166626677Y-58395012D01*
X166626675Y-58395011D01*
X166425199Y-58301061D01*
X166425193Y-58301059D01*
X166383074Y-58289773D01*
X166210463Y-58243522D01*
X165989000Y-58224147D01*
X165767537Y-58243522D01*
X165675457Y-58268195D01*
X165552806Y-58301059D01*
X165552801Y-58301061D01*
X165351323Y-58395012D01*
X165169222Y-58522520D01*
X165169216Y-58522525D01*
X165012025Y-58679716D01*
X165012020Y-58679722D01*
X164884512Y-58861823D01*
X164833195Y-58971873D01*
X164786277Y-59025158D01*
X164718000Y-59044619D01*
X164650040Y-59024077D01*
X164604805Y-58971873D01*
X164567600Y-58892088D01*
X164553488Y-58861824D01*
X164425977Y-58679719D01*
X164268781Y-58522523D01*
X164268777Y-58522520D01*
X164268772Y-58522516D01*
X164086677Y-58395012D01*
X164086675Y-58395011D01*
X163885199Y-58301061D01*
X163885193Y-58301059D01*
X163843074Y-58289773D01*
X163670463Y-58243522D01*
X163449000Y-58224147D01*
X163227537Y-58243522D01*
X163135457Y-58268195D01*
X163012806Y-58301059D01*
X163012801Y-58301061D01*
X162811323Y-58395012D01*
X162629222Y-58522520D01*
X162629216Y-58522525D01*
X162472025Y-58679716D01*
X162472020Y-58679722D01*
X162344512Y-58861823D01*
X162250561Y-59063301D01*
X162250559Y-59063306D01*
X162239452Y-59104759D01*
X162193022Y-59278037D01*
X162173647Y-59499500D01*
X162193022Y-59720963D01*
X162231574Y-59864839D01*
X162250559Y-59935693D01*
X162250561Y-59935699D01*
X162344511Y-60137175D01*
X162344512Y-60137177D01*
X162472016Y-60319272D01*
X162472020Y-60319277D01*
X162472023Y-60319281D01*
X162629219Y-60476477D01*
X162629223Y-60476480D01*
X162629227Y-60476483D01*
X162639113Y-60483405D01*
X162811323Y-60603988D01*
X163012804Y-60697940D01*
X163227537Y-60755478D01*
X163449000Y-60774853D01*
X163670463Y-60755478D01*
X163885196Y-60697940D01*
X164086677Y-60603988D01*
X164268781Y-60476477D01*
X164425977Y-60319281D01*
X164553488Y-60137177D01*
X164604805Y-60027126D01*
X164651722Y-59973842D01*
X164719999Y-59954381D01*
X164787959Y-59974923D01*
X164833195Y-60027127D01*
X164884511Y-60137175D01*
X164884512Y-60137177D01*
X165012016Y-60319272D01*
X165012020Y-60319277D01*
X165012023Y-60319281D01*
X165169219Y-60476477D01*
X165169223Y-60476480D01*
X165169227Y-60476483D01*
X165179113Y-60483405D01*
X165351323Y-60603988D01*
X165552804Y-60697940D01*
X165767537Y-60755478D01*
X165989000Y-60774853D01*
X166210463Y-60755478D01*
X166425196Y-60697940D01*
X166626677Y-60603988D01*
X166808781Y-60476477D01*
X166965977Y-60319281D01*
X167093488Y-60137177D01*
X167144805Y-60027126D01*
X167191722Y-59973842D01*
X167259999Y-59954381D01*
X167327959Y-59974923D01*
X167373195Y-60027127D01*
X167424511Y-60137175D01*
X167424512Y-60137177D01*
X167552016Y-60319272D01*
X167552020Y-60319277D01*
X167552023Y-60319281D01*
X167709219Y-60476477D01*
X167709223Y-60476480D01*
X167709227Y-60476483D01*
X167719113Y-60483405D01*
X167891323Y-60603988D01*
X168092804Y-60697940D01*
X168307537Y-60755478D01*
X168529000Y-60774853D01*
X168750463Y-60755478D01*
X168965196Y-60697940D01*
X169166677Y-60603988D01*
X169348781Y-60476477D01*
X169505977Y-60319281D01*
X169633488Y-60137177D01*
X169641786Y-60119383D01*
X169664170Y-60071379D01*
X169685081Y-60026534D01*
X169731996Y-59973251D01*
X169800273Y-59953789D01*
X169868234Y-59974330D01*
X169913469Y-60026534D01*
X169964943Y-60136920D01*
X169964946Y-60136925D01*
X170009184Y-60200103D01*
X170009185Y-60200103D01*
X170684607Y-59524681D01*
X170684051Y-59531398D01*
X170715266Y-59654662D01*
X170784813Y-59761112D01*
X170885157Y-59839213D01*
X171005422Y-59880500D01*
X171047210Y-59880500D01*
X170368395Y-60559313D01*
X170368395Y-60559314D01*
X170431575Y-60603553D01*
X170431574Y-60603553D01*
X170632972Y-60697466D01*
X170632976Y-60697468D01*
X170847625Y-60754982D01*
X171069000Y-60774350D01*
X171290374Y-60754982D01*
X171505023Y-60697468D01*
X171505027Y-60697466D01*
X171706425Y-60603553D01*
X171706426Y-60603552D01*
X171769603Y-60559314D01*
X171769603Y-60559312D01*
X171090791Y-59880500D01*
X171100569Y-59880500D01*
X171194421Y-59864839D01*
X171306251Y-59804320D01*
X171392371Y-59710769D01*
X171443448Y-59594323D01*
X171449538Y-59520829D01*
X172128812Y-60200103D01*
X172128814Y-60200103D01*
X172173052Y-60136926D01*
X172173053Y-60136925D01*
X172266966Y-59935527D01*
X172266968Y-59935523D01*
X172324482Y-59720874D01*
X172343850Y-59499500D01*
X172324482Y-59278125D01*
X172266968Y-59063476D01*
X172266966Y-59063472D01*
X172173051Y-58862071D01*
X172128815Y-58798895D01*
X172128813Y-58798895D01*
X171453392Y-59474316D01*
X171453949Y-59467602D01*
X171422734Y-59344338D01*
X171353187Y-59237888D01*
X171252843Y-59159787D01*
X171132578Y-59118500D01*
X171090790Y-59118500D01*
X171769603Y-58439685D01*
X171769603Y-58439684D01*
X171706425Y-58395446D01*
X171505027Y-58301533D01*
X171505023Y-58301531D01*
X171290374Y-58244017D01*
X171069000Y-58224649D01*
X170847625Y-58244017D01*
X170632976Y-58301531D01*
X170632972Y-58301533D01*
X170431575Y-58395446D01*
X170368394Y-58439685D01*
X171047209Y-59118500D01*
X171037431Y-59118500D01*
X170943579Y-59134161D01*
X170831749Y-59194680D01*
X170745629Y-59288231D01*
X170694552Y-59404677D01*
X170688461Y-59478170D01*
X170009185Y-58798894D01*
X169964945Y-58862077D01*
X169913469Y-58972466D01*
X169866552Y-59025751D01*
X169798274Y-59045211D01*
X169730315Y-59024669D01*
X169685080Y-58972464D01*
X169633488Y-58861824D01*
X169505977Y-58679719D01*
X169348781Y-58522523D01*
X169341223Y-58517230D01*
X169296898Y-58461772D01*
X169287500Y-58414022D01*
X169287500Y-58151371D01*
X169307502Y-58083250D01*
X169324405Y-58062276D01*
X169504776Y-57881905D01*
X169567088Y-57847879D01*
X169593871Y-57845000D01*
X183553344Y-57845000D01*
X185688629Y-57845000D01*
X185756750Y-57865002D01*
X185777724Y-57881905D01*
X186489092Y-58593273D01*
X186501065Y-58607127D01*
X186515531Y-58626559D01*
X186521489Y-58631558D01*
X186560817Y-58690666D01*
X186566500Y-58728081D01*
X186566500Y-63003411D01*
X186546498Y-63071532D01*
X186492842Y-63118025D01*
X186422568Y-63128129D01*
X186366440Y-63105348D01*
X186282887Y-63044644D01*
X186257752Y-63026382D01*
X186083288Y-62948706D01*
X185896487Y-62909000D01*
X185705513Y-62909000D01*
X185518711Y-62948706D01*
X185344247Y-63026382D01*
X185189745Y-63138634D01*
X185188349Y-63140186D01*
X185187314Y-63140823D01*
X185184837Y-63143054D01*
X185184429Y-63142600D01*
X185127902Y-63177425D01*
X185098673Y-63181812D01*
X185029060Y-63184000D01*
X184999144Y-63184000D01*
X184992172Y-63184879D01*
X184986265Y-63185344D01*
X184939110Y-63186826D01*
X184939105Y-63186827D01*
X184919660Y-63192477D01*
X184900302Y-63196486D01*
X184880207Y-63199024D01*
X184880205Y-63199025D01*
X184836324Y-63216397D01*
X184830709Y-63218319D01*
X184785410Y-63231480D01*
X184785404Y-63231482D01*
X184767966Y-63241795D01*
X184750220Y-63250489D01*
X184731381Y-63257948D01*
X184731380Y-63257949D01*
X184693213Y-63285678D01*
X184688252Y-63288937D01*
X184647637Y-63312958D01*
X184633307Y-63327287D01*
X184618281Y-63340120D01*
X184601895Y-63352026D01*
X184601894Y-63352026D01*
X184571818Y-63388380D01*
X184567823Y-63392771D01*
X183697836Y-64262757D01*
X183685401Y-64272721D01*
X183685589Y-64272948D01*
X183679480Y-64278001D01*
X183631516Y-64329078D01*
X183610366Y-64350227D01*
X183606060Y-64355777D01*
X183602214Y-64360279D01*
X183569917Y-64394674D01*
X183569911Y-64394683D01*
X183560151Y-64412435D01*
X183549303Y-64428950D01*
X183536886Y-64444958D01*
X183518145Y-64488264D01*
X183515534Y-64493594D01*
X183492805Y-64534939D01*
X183492803Y-64534944D01*
X183487767Y-64554559D01*
X183481364Y-64573262D01*
X183473319Y-64591852D01*
X183465937Y-64638456D01*
X183464733Y-64644268D01*
X183453000Y-64689968D01*
X183453000Y-64710223D01*
X183451449Y-64729933D01*
X183448280Y-64749942D01*
X183448280Y-64749943D01*
X183452720Y-64796917D01*
X183453000Y-64802850D01*
X183453000Y-67757405D01*
X183432998Y-67825526D01*
X183416095Y-67846500D01*
X178209500Y-73053095D01*
X178147188Y-73087121D01*
X178120405Y-73090000D01*
X165247353Y-73090000D01*
X165231511Y-73088250D01*
X165231484Y-73088544D01*
X165223591Y-73087797D01*
X165153528Y-73090000D01*
X165123644Y-73090000D01*
X165123640Y-73090000D01*
X165123629Y-73090001D01*
X165116690Y-73090877D01*
X165110777Y-73091343D01*
X165063614Y-73092825D01*
X165063607Y-73092827D01*
X165044149Y-73098479D01*
X165024804Y-73102485D01*
X165004706Y-73105025D01*
X165004697Y-73105027D01*
X164960831Y-73122394D01*
X164955216Y-73124317D01*
X164909908Y-73137481D01*
X164892464Y-73147797D01*
X164874718Y-73156490D01*
X164855882Y-73163948D01*
X164817709Y-73191681D01*
X164812748Y-73194940D01*
X164772138Y-73218958D01*
X164757811Y-73233284D01*
X164742785Y-73246117D01*
X164726395Y-73258025D01*
X164726393Y-73258027D01*
X164696308Y-73294392D01*
X164692312Y-73298783D01*
X163314336Y-74676757D01*
X163301901Y-74686721D01*
X163302089Y-74686948D01*
X163295980Y-74692001D01*
X163248015Y-74743079D01*
X163226866Y-74764227D01*
X163222560Y-74769777D01*
X163218714Y-74774279D01*
X163186417Y-74808674D01*
X163186411Y-74808683D01*
X163176651Y-74826435D01*
X163165803Y-74842950D01*
X163153386Y-74858958D01*
X163134645Y-74902264D01*
X163132034Y-74907594D01*
X163109305Y-74948939D01*
X163109303Y-74948944D01*
X163104267Y-74968559D01*
X163097864Y-74987262D01*
X163089819Y-75005852D01*
X163082437Y-75052456D01*
X163081233Y-75058268D01*
X163069500Y-75103968D01*
X163069500Y-75124223D01*
X163067949Y-75143933D01*
X163064780Y-75163942D01*
X163064780Y-75163943D01*
X163069220Y-75210917D01*
X163069500Y-75216850D01*
X163069500Y-77647606D01*
X163049498Y-77715727D01*
X163015771Y-77750819D01*
X162858703Y-77860799D01*
X162858697Y-77860804D01*
X162696804Y-78022697D01*
X162696799Y-78022703D01*
X162565477Y-78210250D01*
X162547195Y-78249457D01*
X162500278Y-78302742D01*
X162432001Y-78322203D01*
X162364041Y-78301661D01*
X162318805Y-78249457D01*
X162303781Y-78217238D01*
X162300523Y-78210251D01*
X162169198Y-78022700D01*
X162007300Y-77860802D01*
X162007291Y-77860796D01*
X161819749Y-77729477D01*
X161612246Y-77632717D01*
X161612240Y-77632715D01*
X161454225Y-77590375D01*
X161391087Y-77573457D01*
X161163000Y-77553502D01*
X160934913Y-77573457D01*
X160713759Y-77632715D01*
X160713753Y-77632717D01*
X160506250Y-77729477D01*
X160318703Y-77860799D01*
X160318697Y-77860804D01*
X160156804Y-78022697D01*
X160156799Y-78022703D01*
X160025477Y-78210250D01*
X160007195Y-78249457D01*
X159960278Y-78302742D01*
X159892001Y-78322203D01*
X159824041Y-78301661D01*
X159778805Y-78249457D01*
X159763781Y-78217238D01*
X159760523Y-78210251D01*
X159629198Y-78022700D01*
X159467300Y-77860802D01*
X159467291Y-77860796D01*
X159279749Y-77729477D01*
X159072246Y-77632717D01*
X159072240Y-77632715D01*
X158914225Y-77590375D01*
X158851087Y-77573457D01*
X158623000Y-77553502D01*
X158394913Y-77573457D01*
X158173759Y-77632715D01*
X158173753Y-77632717D01*
X157966250Y-77729477D01*
X157778703Y-77860799D01*
X157778697Y-77860804D01*
X157616804Y-78022697D01*
X157616799Y-78022703D01*
X157485477Y-78210250D01*
X157467195Y-78249457D01*
X157420278Y-78302742D01*
X157352001Y-78322203D01*
X157284041Y-78301661D01*
X157238805Y-78249457D01*
X157223781Y-78217238D01*
X157220523Y-78210251D01*
X157089198Y-78022700D01*
X156927300Y-77860802D01*
X156927291Y-77860796D01*
X156739749Y-77729477D01*
X156532246Y-77632717D01*
X156532240Y-77632715D01*
X156374225Y-77590375D01*
X156311087Y-77573457D01*
X156083000Y-77553502D01*
X155854913Y-77573457D01*
X155633759Y-77632715D01*
X155633753Y-77632717D01*
X155426250Y-77729477D01*
X155238703Y-77860799D01*
X155238697Y-77860804D01*
X155076804Y-78022697D01*
X155076799Y-78022703D01*
X154945477Y-78210250D01*
X154927195Y-78249457D01*
X154880278Y-78302742D01*
X154812001Y-78322203D01*
X154744041Y-78301661D01*
X154698805Y-78249457D01*
X154683781Y-78217238D01*
X154680523Y-78210251D01*
X154549198Y-78022700D01*
X154387300Y-77860802D01*
X154387291Y-77860796D01*
X154199749Y-77729477D01*
X153992246Y-77632717D01*
X153992240Y-77632715D01*
X153834225Y-77590375D01*
X153771087Y-77573457D01*
X153543000Y-77553502D01*
X153314913Y-77573457D01*
X153093759Y-77632715D01*
X153093747Y-77632719D01*
X153085745Y-77636451D01*
X153015553Y-77647109D01*
X152950741Y-77618126D01*
X152911888Y-77558705D01*
X152906500Y-77522254D01*
X152906500Y-71752094D01*
X152926502Y-71683973D01*
X152943405Y-71662999D01*
X153450999Y-71155405D01*
X153513311Y-71121379D01*
X153540094Y-71118500D01*
X157396147Y-71118500D01*
X157411988Y-71120249D01*
X157412016Y-71119956D01*
X157419902Y-71120700D01*
X157419909Y-71120702D01*
X157489958Y-71118500D01*
X157519856Y-71118500D01*
X157526818Y-71117619D01*
X157532719Y-71117154D01*
X157579889Y-71115673D01*
X157599347Y-71110019D01*
X157618694Y-71106013D01*
X157638797Y-71103474D01*
X157682679Y-71086099D01*
X157688274Y-71084183D01*
X157716816Y-71075891D01*
X157733591Y-71071019D01*
X157733595Y-71071017D01*
X157751026Y-71060708D01*
X157768780Y-71052009D01*
X157787617Y-71044552D01*
X157825786Y-71016818D01*
X157830744Y-71013562D01*
X157871362Y-70989542D01*
X157885685Y-70975218D01*
X157900724Y-70962374D01*
X157917107Y-70950472D01*
X157947193Y-70914103D01*
X157951161Y-70909741D01*
X160753502Y-68107402D01*
X160815812Y-68073379D01*
X160842595Y-68070500D01*
X166741300Y-68070500D01*
X166809421Y-68090502D01*
X166834937Y-68112190D01*
X166838247Y-68115866D01*
X166992748Y-68228118D01*
X167167212Y-68305794D01*
X167354013Y-68345500D01*
X167544987Y-68345500D01*
X167731788Y-68305794D01*
X167906252Y-68228118D01*
X168060753Y-68115866D01*
X168082191Y-68092057D01*
X168188534Y-67973951D01*
X168188535Y-67973949D01*
X168188540Y-67973944D01*
X168284027Y-67808556D01*
X168343042Y-67626928D01*
X168363004Y-67437000D01*
X168343042Y-67247072D01*
X168284027Y-67065444D01*
X168214953Y-66945804D01*
X168203519Y-66926000D01*
X168186781Y-66857005D01*
X168210001Y-66789913D01*
X168265808Y-66746026D01*
X168312638Y-66737000D01*
X170477147Y-66737000D01*
X170492988Y-66738749D01*
X170493016Y-66738456D01*
X170500902Y-66739200D01*
X170500909Y-66739202D01*
X170570958Y-66737000D01*
X170600856Y-66737000D01*
X170607818Y-66736119D01*
X170613719Y-66735654D01*
X170660889Y-66734173D01*
X170680347Y-66728519D01*
X170699694Y-66724513D01*
X170719797Y-66721974D01*
X170763679Y-66704599D01*
X170769274Y-66702683D01*
X170798621Y-66694158D01*
X170814591Y-66689519D01*
X170814595Y-66689517D01*
X170832026Y-66679208D01*
X170849780Y-66670509D01*
X170868617Y-66663052D01*
X170906786Y-66635318D01*
X170911744Y-66632062D01*
X170952362Y-66608042D01*
X170966685Y-66593718D01*
X170981724Y-66580874D01*
X170998107Y-66568972D01*
X171028193Y-66532603D01*
X171032161Y-66528241D01*
X171711657Y-65848745D01*
X171724097Y-65838782D01*
X171723908Y-65838554D01*
X171730019Y-65833499D01*
X171777984Y-65782420D01*
X171799128Y-65761277D01*
X171799128Y-65761276D01*
X171799135Y-65761270D01*
X171803445Y-65755712D01*
X171807283Y-65751220D01*
X171839586Y-65716821D01*
X171849346Y-65699065D01*
X171860195Y-65682550D01*
X171872614Y-65666541D01*
X171891363Y-65623210D01*
X171893960Y-65617912D01*
X171916695Y-65576560D01*
X171921733Y-65556934D01*
X171928137Y-65538232D01*
X171929880Y-65534205D01*
X171936181Y-65519645D01*
X171943561Y-65473047D01*
X171944764Y-65467234D01*
X171956500Y-65421530D01*
X171956500Y-65401269D01*
X171958051Y-65381563D01*
X171958052Y-65381558D01*
X171961220Y-65361557D01*
X171957342Y-65320527D01*
X171956780Y-65314580D01*
X171956500Y-65308648D01*
X171956500Y-64846393D01*
X171976502Y-64778272D01*
X172010230Y-64743180D01*
X172110161Y-64673207D01*
X172167300Y-64633198D01*
X172329198Y-64471300D01*
X172460523Y-64283749D01*
X172479081Y-64243950D01*
X172525995Y-64190667D01*
X172594272Y-64171205D01*
X172662232Y-64191745D01*
X172707469Y-64243949D01*
X172725911Y-64283497D01*
X172857184Y-64470974D01*
X172857189Y-64470980D01*
X173019019Y-64632810D01*
X173019025Y-64632815D01*
X173206501Y-64764087D01*
X173413926Y-64860811D01*
X173413931Y-64860813D01*
X173609000Y-64913081D01*
X173609000Y-63938686D01*
X173624955Y-63954641D01*
X173737852Y-64012165D01*
X173831519Y-64027000D01*
X173894481Y-64027000D01*
X173988148Y-64012165D01*
X174101045Y-63954641D01*
X174117000Y-63938686D01*
X174117000Y-64913081D01*
X174312068Y-64860813D01*
X174312073Y-64860811D01*
X174519498Y-64764087D01*
X174706974Y-64632815D01*
X174706980Y-64632810D01*
X174868810Y-64470980D01*
X174868815Y-64470974D01*
X175000087Y-64283498D01*
X175018529Y-64243951D01*
X175065446Y-64190666D01*
X175133723Y-64171205D01*
X175201683Y-64191747D01*
X175246919Y-64243951D01*
X175265477Y-64283749D01*
X175354354Y-64410679D01*
X175396802Y-64471300D01*
X175558700Y-64633198D01*
X175746251Y-64764523D01*
X175953757Y-64861284D01*
X176174913Y-64920543D01*
X176403000Y-64940498D01*
X176631087Y-64920543D01*
X176852243Y-64861284D01*
X177059749Y-64764523D01*
X177247300Y-64633198D01*
X177409198Y-64471300D01*
X177540523Y-64283749D01*
X177558805Y-64244543D01*
X177605721Y-64191258D01*
X177673998Y-64171796D01*
X177741958Y-64192337D01*
X177787195Y-64244543D01*
X177805477Y-64283749D01*
X177936802Y-64471300D01*
X178098700Y-64633198D01*
X178286251Y-64764523D01*
X178493757Y-64861284D01*
X178714913Y-64920543D01*
X178943000Y-64940498D01*
X179171087Y-64920543D01*
X179392243Y-64861284D01*
X179599749Y-64764523D01*
X179787300Y-64633198D01*
X179949198Y-64471300D01*
X179951506Y-64468004D01*
X180006961Y-64423673D01*
X180077580Y-64416361D01*
X180140942Y-64448389D01*
X180176929Y-64509588D01*
X180180000Y-64526802D01*
X180181009Y-64536196D01*
X180181011Y-64536204D01*
X180232110Y-64673202D01*
X180232112Y-64673207D01*
X180319738Y-64790261D01*
X180436792Y-64877887D01*
X180436794Y-64877888D01*
X180436796Y-64877889D01*
X180495875Y-64899924D01*
X180573795Y-64928988D01*
X180573803Y-64928990D01*
X180634350Y-64935499D01*
X180634355Y-64935499D01*
X180634362Y-64935500D01*
X180634368Y-64935500D01*
X182331632Y-64935500D01*
X182331638Y-64935500D01*
X182331645Y-64935499D01*
X182331649Y-64935499D01*
X182392196Y-64928990D01*
X182392199Y-64928989D01*
X182392201Y-64928989D01*
X182529204Y-64877889D01*
X182551389Y-64861282D01*
X182646261Y-64790261D01*
X182733887Y-64673207D01*
X182733887Y-64673206D01*
X182733889Y-64673204D01*
X182784989Y-64536201D01*
X182785125Y-64534944D01*
X182791499Y-64475649D01*
X182791500Y-64475632D01*
X182791500Y-62778367D01*
X182791499Y-62778350D01*
X182784990Y-62717803D01*
X182784988Y-62717795D01*
X182750886Y-62626366D01*
X182733889Y-62580796D01*
X182733888Y-62580794D01*
X182733887Y-62580792D01*
X182646261Y-62463738D01*
X182529207Y-62376112D01*
X182529202Y-62376110D01*
X182392204Y-62325011D01*
X182392196Y-62325009D01*
X182331649Y-62318500D01*
X182331638Y-62318500D01*
X180634362Y-62318500D01*
X180634350Y-62318500D01*
X180573803Y-62325009D01*
X180573795Y-62325011D01*
X180436797Y-62376110D01*
X180436792Y-62376112D01*
X180319738Y-62463738D01*
X180232112Y-62580792D01*
X180232110Y-62580797D01*
X180181011Y-62717795D01*
X180181009Y-62717803D01*
X180180000Y-62727197D01*
X180152831Y-62792790D01*
X180094513Y-62833281D01*
X180023562Y-62835815D01*
X179962504Y-62799588D01*
X179951510Y-62786001D01*
X179949203Y-62782706D01*
X179949195Y-62782697D01*
X179787302Y-62620804D01*
X179787296Y-62620799D01*
X179599749Y-62489477D01*
X179392246Y-62392717D01*
X179392240Y-62392715D01*
X179298771Y-62367670D01*
X179171087Y-62333457D01*
X178943000Y-62313502D01*
X178714913Y-62333457D01*
X178493759Y-62392715D01*
X178493753Y-62392717D01*
X178286250Y-62489477D01*
X178098703Y-62620799D01*
X178098697Y-62620804D01*
X177936804Y-62782697D01*
X177936799Y-62782703D01*
X177805477Y-62970250D01*
X177787195Y-63009457D01*
X177740278Y-63062742D01*
X177672001Y-63082203D01*
X177604041Y-63061661D01*
X177558805Y-63009457D01*
X177555986Y-63003411D01*
X177540523Y-62970251D01*
X177409198Y-62782700D01*
X177247300Y-62620802D01*
X177237514Y-62613950D01*
X177059749Y-62489477D01*
X176852246Y-62392717D01*
X176852240Y-62392715D01*
X176758771Y-62367670D01*
X176631087Y-62333457D01*
X176403000Y-62313502D01*
X176174913Y-62333457D01*
X175953759Y-62392715D01*
X175953753Y-62392717D01*
X175746250Y-62489477D01*
X175558703Y-62620799D01*
X175558697Y-62620804D01*
X175396804Y-62782697D01*
X175396799Y-62782703D01*
X175265475Y-62970252D01*
X175246918Y-63010049D01*
X175200001Y-63063333D01*
X175131724Y-63082794D01*
X175063764Y-63062252D01*
X175018530Y-63010049D01*
X175000089Y-62970503D01*
X174868815Y-62783025D01*
X174868810Y-62783019D01*
X174706980Y-62621189D01*
X174706974Y-62621184D01*
X174519498Y-62489912D01*
X174312073Y-62393188D01*
X174312071Y-62393187D01*
X174117000Y-62340917D01*
X174117000Y-63315314D01*
X174101045Y-63299359D01*
X173988148Y-63241835D01*
X173894481Y-63227000D01*
X173831519Y-63227000D01*
X173737852Y-63241835D01*
X173624955Y-63299359D01*
X173609000Y-63315314D01*
X173609000Y-62340917D01*
X173608999Y-62340917D01*
X173413928Y-62393187D01*
X173413926Y-62393188D01*
X173206501Y-62489912D01*
X173019025Y-62621184D01*
X173019019Y-62621189D01*
X172857189Y-62783019D01*
X172857184Y-62783025D01*
X172725910Y-62970504D01*
X172707468Y-63010051D01*
X172660550Y-63063335D01*
X172592272Y-63082794D01*
X172524313Y-63062250D01*
X172479080Y-63010047D01*
X172475986Y-63003411D01*
X172460523Y-62970251D01*
X172329198Y-62782700D01*
X172167300Y-62620802D01*
X172157514Y-62613950D01*
X171979749Y-62489477D01*
X171772246Y-62392717D01*
X171772240Y-62392715D01*
X171678771Y-62367670D01*
X171551087Y-62333457D01*
X171323000Y-62313502D01*
X171094913Y-62333457D01*
X170873759Y-62392715D01*
X170873753Y-62392717D01*
X170666250Y-62489477D01*
X170478703Y-62620799D01*
X170478697Y-62620804D01*
X170316804Y-62782697D01*
X170316799Y-62782703D01*
X170185477Y-62970250D01*
X170167195Y-63009457D01*
X170120278Y-63062742D01*
X170052001Y-63082203D01*
X169984041Y-63061661D01*
X169938805Y-63009457D01*
X169935986Y-63003411D01*
X169920523Y-62970251D01*
X169789198Y-62782700D01*
X169627300Y-62620802D01*
X169617514Y-62613950D01*
X169439749Y-62489477D01*
X169232246Y-62392717D01*
X169232240Y-62392715D01*
X169138771Y-62367670D01*
X169011087Y-62333457D01*
X168783000Y-62313502D01*
X168554913Y-62333457D01*
X168333759Y-62392715D01*
X168333753Y-62392717D01*
X168126250Y-62489477D01*
X167938703Y-62620799D01*
X167938697Y-62620804D01*
X167776804Y-62782697D01*
X167776799Y-62782703D01*
X167645477Y-62970250D01*
X167627195Y-63009457D01*
X167580278Y-63062742D01*
X167512001Y-63082203D01*
X167444041Y-63061661D01*
X167398805Y-63009457D01*
X167395986Y-63003411D01*
X167380523Y-62970251D01*
X167249198Y-62782700D01*
X167087300Y-62620802D01*
X167077514Y-62613950D01*
X166899749Y-62489477D01*
X166692246Y-62392717D01*
X166692240Y-62392715D01*
X166598771Y-62367670D01*
X166471087Y-62333457D01*
X166243000Y-62313502D01*
X166014913Y-62333457D01*
X165793759Y-62392715D01*
X165793753Y-62392717D01*
X165586250Y-62489477D01*
X165398703Y-62620799D01*
X165398697Y-62620804D01*
X165236804Y-62782697D01*
X165236799Y-62782703D01*
X165105477Y-62970250D01*
X165087195Y-63009457D01*
X165040278Y-63062742D01*
X164972001Y-63082203D01*
X164904041Y-63061661D01*
X164858805Y-63009457D01*
X164855986Y-63003411D01*
X164840523Y-62970251D01*
X164709198Y-62782700D01*
X164547300Y-62620802D01*
X164537514Y-62613950D01*
X164359749Y-62489477D01*
X164152246Y-62392717D01*
X164152240Y-62392715D01*
X164058771Y-62367670D01*
X163931087Y-62333457D01*
X163703000Y-62313502D01*
X163474913Y-62333457D01*
X163253759Y-62392715D01*
X163253753Y-62392717D01*
X163046250Y-62489477D01*
X162858703Y-62620799D01*
X162858697Y-62620804D01*
X162696804Y-62782697D01*
X162696799Y-62782703D01*
X162565477Y-62970250D01*
X162547195Y-63009457D01*
X162500278Y-63062742D01*
X162432001Y-63082203D01*
X162364041Y-63061661D01*
X162318805Y-63009457D01*
X162315986Y-63003411D01*
X162300523Y-62970251D01*
X162169198Y-62782700D01*
X162007300Y-62620802D01*
X161997514Y-62613950D01*
X161819749Y-62489477D01*
X161612246Y-62392717D01*
X161612240Y-62392715D01*
X161518771Y-62367670D01*
X161391087Y-62333457D01*
X161163000Y-62313502D01*
X160934913Y-62333457D01*
X160713759Y-62392715D01*
X160713753Y-62392717D01*
X160506250Y-62489477D01*
X160318703Y-62620799D01*
X160318697Y-62620804D01*
X160156804Y-62782697D01*
X160156799Y-62782703D01*
X160025477Y-62970250D01*
X160007195Y-63009457D01*
X159960278Y-63062742D01*
X159892001Y-63082203D01*
X159824041Y-63061661D01*
X159778805Y-63009457D01*
X159775986Y-63003411D01*
X159760523Y-62970251D01*
X159629198Y-62782700D01*
X159467300Y-62620802D01*
X159457514Y-62613950D01*
X159279749Y-62489477D01*
X159072246Y-62392717D01*
X159072240Y-62392715D01*
X158978771Y-62367670D01*
X158851087Y-62333457D01*
X158623000Y-62313502D01*
X158394913Y-62333457D01*
X158173759Y-62392715D01*
X158173753Y-62392717D01*
X157966250Y-62489477D01*
X157778703Y-62620799D01*
X157778697Y-62620804D01*
X157616804Y-62782697D01*
X157616799Y-62782703D01*
X157485477Y-62970250D01*
X157467195Y-63009457D01*
X157420278Y-63062742D01*
X157352001Y-63082203D01*
X157284041Y-63061661D01*
X157238805Y-63009457D01*
X157235986Y-63003411D01*
X157220523Y-62970251D01*
X157089198Y-62782700D01*
X156927300Y-62620802D01*
X156917514Y-62613950D01*
X156739749Y-62489477D01*
X156532246Y-62392717D01*
X156532240Y-62392715D01*
X156438771Y-62367670D01*
X156311087Y-62333457D01*
X156083000Y-62313502D01*
X155854913Y-62333457D01*
X155633759Y-62392715D01*
X155633753Y-62392717D01*
X155426250Y-62489477D01*
X155238703Y-62620799D01*
X155238697Y-62620804D01*
X155076804Y-62782697D01*
X155076799Y-62782703D01*
X154945477Y-62970250D01*
X154927195Y-63009457D01*
X154880278Y-63062742D01*
X154812001Y-63082203D01*
X154744041Y-63061661D01*
X154698805Y-63009457D01*
X154695986Y-63003411D01*
X154680523Y-62970251D01*
X154549198Y-62782700D01*
X154387300Y-62620802D01*
X154377514Y-62613950D01*
X154199749Y-62489477D01*
X153992246Y-62392717D01*
X153992240Y-62392715D01*
X153898771Y-62367670D01*
X153771087Y-62333457D01*
X153543000Y-62313502D01*
X153314913Y-62333457D01*
X153093759Y-62392715D01*
X153093753Y-62392717D01*
X152886250Y-62489477D01*
X152698703Y-62620799D01*
X152698697Y-62620804D01*
X152536804Y-62782697D01*
X152536799Y-62782703D01*
X152405477Y-62970250D01*
X152387195Y-63009457D01*
X152340278Y-63062742D01*
X152272001Y-63082203D01*
X152204041Y-63061661D01*
X152158805Y-63009457D01*
X152155986Y-63003411D01*
X152140523Y-62970251D01*
X152009198Y-62782700D01*
X151847300Y-62620802D01*
X151837514Y-62613950D01*
X151659749Y-62489477D01*
X151452246Y-62392717D01*
X151452240Y-62392715D01*
X151358771Y-62367670D01*
X151231087Y-62333457D01*
X151003000Y-62313502D01*
X150774913Y-62333457D01*
X150553759Y-62392715D01*
X150553753Y-62392717D01*
X150346250Y-62489477D01*
X150158703Y-62620799D01*
X150158697Y-62620804D01*
X149996804Y-62782697D01*
X149996799Y-62782703D01*
X149865477Y-62970250D01*
X149847195Y-63009457D01*
X149800278Y-63062742D01*
X149732001Y-63082203D01*
X149664041Y-63061661D01*
X149618805Y-63009457D01*
X149615986Y-63003411D01*
X149600523Y-62970251D01*
X149469198Y-62782700D01*
X149307300Y-62620802D01*
X149297514Y-62613950D01*
X149119749Y-62489477D01*
X148912246Y-62392717D01*
X148912240Y-62392715D01*
X148818771Y-62367670D01*
X148691087Y-62333457D01*
X148463000Y-62313502D01*
X148234913Y-62333457D01*
X148013759Y-62392715D01*
X148013753Y-62392717D01*
X147806250Y-62489477D01*
X147618703Y-62620799D01*
X147618697Y-62620804D01*
X147456804Y-62782697D01*
X147456799Y-62782703D01*
X147325477Y-62970250D01*
X147307195Y-63009457D01*
X147260278Y-63062742D01*
X147192001Y-63082203D01*
X147124041Y-63061661D01*
X147078805Y-63009457D01*
X147075986Y-63003411D01*
X147060523Y-62970251D01*
X146929198Y-62782700D01*
X146767300Y-62620802D01*
X146757514Y-62613950D01*
X146579749Y-62489477D01*
X146372246Y-62392717D01*
X146372240Y-62392715D01*
X146278771Y-62367670D01*
X146151087Y-62333457D01*
X145923000Y-62313502D01*
X145694913Y-62333457D01*
X145473759Y-62392715D01*
X145473753Y-62392717D01*
X145266250Y-62489477D01*
X145078703Y-62620799D01*
X145078697Y-62620804D01*
X144916804Y-62782697D01*
X144916799Y-62782703D01*
X144785477Y-62970250D01*
X144688717Y-63177753D01*
X144688715Y-63177759D01*
X144653000Y-63311049D01*
X144629457Y-63398913D01*
X144609502Y-63627000D01*
X144629457Y-63855087D01*
X144645037Y-63913231D01*
X144688715Y-64076240D01*
X144688717Y-64076246D01*
X144785477Y-64283749D01*
X144874354Y-64410679D01*
X144916802Y-64471300D01*
X145078700Y-64633198D01*
X145266251Y-64764523D01*
X145473757Y-64861284D01*
X145694913Y-64920543D01*
X145923000Y-64940498D01*
X146151087Y-64920543D01*
X146372243Y-64861284D01*
X146579749Y-64764523D01*
X146767300Y-64633198D01*
X146929198Y-64471300D01*
X147060523Y-64283749D01*
X147078805Y-64244543D01*
X147125721Y-64191258D01*
X147193998Y-64171796D01*
X147261958Y-64192337D01*
X147307195Y-64244543D01*
X147325477Y-64283749D01*
X147456802Y-64471300D01*
X147618700Y-64633198D01*
X147806251Y-64764523D01*
X148013757Y-64861284D01*
X148189887Y-64908478D01*
X148250508Y-64945429D01*
X148281529Y-65009289D01*
X148273101Y-65079784D01*
X148227898Y-65134531D01*
X148176992Y-65154632D01*
X148172611Y-65155326D01*
X148153150Y-65160979D01*
X148133804Y-65164985D01*
X148113704Y-65167525D01*
X148113703Y-65167525D01*
X148069835Y-65184893D01*
X148064220Y-65186815D01*
X148018913Y-65199978D01*
X148018904Y-65199982D01*
X148001462Y-65210297D01*
X147983715Y-65218991D01*
X147964883Y-65226447D01*
X147964881Y-65226448D01*
X147926714Y-65254178D01*
X147921754Y-65257436D01*
X147881136Y-65281459D01*
X147881133Y-65281461D01*
X147866812Y-65295783D01*
X147851783Y-65308619D01*
X147835393Y-65320527D01*
X147805308Y-65356892D01*
X147801312Y-65361283D01*
X143184836Y-69977757D01*
X143172401Y-69987721D01*
X143172589Y-69987948D01*
X143166480Y-69993001D01*
X143118516Y-70044078D01*
X143097366Y-70065227D01*
X143093060Y-70070777D01*
X143089214Y-70075279D01*
X143056917Y-70109674D01*
X143056911Y-70109683D01*
X143047151Y-70127435D01*
X143036303Y-70143950D01*
X143023886Y-70159958D01*
X143005145Y-70203264D01*
X143002534Y-70208594D01*
X142979805Y-70249939D01*
X142979803Y-70249944D01*
X142974767Y-70269559D01*
X142968364Y-70288262D01*
X142960319Y-70306852D01*
X142952937Y-70353456D01*
X142951733Y-70359268D01*
X142940000Y-70404968D01*
X142940000Y-70425223D01*
X142938449Y-70444933D01*
X142935280Y-70464942D01*
X142935280Y-70464943D01*
X142519500Y-70464943D01*
X142519500Y-58360765D01*
X144576788Y-58360765D01*
X144606412Y-58630014D01*
X144674928Y-58892090D01*
X144780869Y-59141389D01*
X144825061Y-59213799D01*
X144921982Y-59372610D01*
X145095255Y-59580820D01*
X145095257Y-59580822D01*
X145095259Y-59580824D01*
X145177668Y-59654662D01*
X145296998Y-59761582D01*
X145522910Y-59911044D01*
X145768176Y-60026020D01*
X146027569Y-60104060D01*
X146027572Y-60104060D01*
X146027574Y-60104061D01*
X146295557Y-60143500D01*
X146295561Y-60143500D01*
X146498633Y-60143500D01*
X146533363Y-60140957D01*
X146701156Y-60128677D01*
X146701160Y-60128676D01*
X146701161Y-60128676D01*
X146856184Y-60094143D01*
X146965553Y-60069780D01*
X147218558Y-59973014D01*
X147454777Y-59840441D01*
X147669177Y-59674888D01*
X147857186Y-59479881D01*
X148014799Y-59259579D01*
X148041930Y-59206810D01*
X148138656Y-59018675D01*
X148138657Y-59018672D01*
X148192166Y-58861825D01*
X148226118Y-58762305D01*
X148270407Y-58522526D01*
X148275318Y-58495941D01*
X148275319Y-58495930D01*
X148276567Y-58461772D01*
X148285212Y-58225235D01*
X148261731Y-58011827D01*
X148255587Y-57955985D01*
X148191572Y-57711126D01*
X148187072Y-57693912D01*
X148171764Y-57657890D01*
X148081130Y-57444610D01*
X148057958Y-57406641D01*
X147940018Y-57213390D01*
X147766745Y-57005180D01*
X147766741Y-57005177D01*
X147766740Y-57005175D01*
X147565012Y-56824427D01*
X147565002Y-56824418D01*
X147339090Y-56674956D01*
X147093824Y-56559980D01*
X146883601Y-56496733D01*
X146834425Y-56481938D01*
X146566442Y-56442500D01*
X146566439Y-56442500D01*
X146363369Y-56442500D01*
X146363367Y-56442500D01*
X146160839Y-56457323D01*
X146160838Y-56457323D01*
X145896456Y-56516217D01*
X145896441Y-56516222D01*
X145643441Y-56612986D01*
X145407229Y-56745555D01*
X145407225Y-56745557D01*
X145192818Y-56911116D01*
X145004815Y-57106117D01*
X145004810Y-57106123D01*
X144847203Y-57326417D01*
X144847196Y-57326427D01*
X144723343Y-57567324D01*
X144723342Y-57567327D01*
X144635883Y-57823689D01*
X144635880Y-57823702D01*
X144586681Y-58090058D01*
X144586680Y-58090069D01*
X144576788Y-58360765D01*
X142519500Y-58360765D01*
X142519500Y-54253500D01*
X142539502Y-54185379D01*
X142593158Y-54138886D01*
X142645500Y-54127500D01*
X236386000Y-54127500D01*
X236454121Y-54147502D01*
G37*
G04 #@! TD.AperFunction*
M02*
